<svg width="26" height="26" fill="none" xmlns="http://www.w3.org/2000/svg"><path fill-rule="evenodd" clip-rule="evenodd" d="M24.993 10.607a9.893 9.893 0 0 0-1.527-4.915c-.951-1.499-2.286-2.653-3.995-3.472C17.76 1.41 15.82 1 13.67 1c-2.545 0-4.792.503-6.723 1.517C5.007 3.532 3.51 5.04 2.453 7.061 1.396 9.07.916 11.25 1.012 13.586a12.4 12.4 0 0 0 1.748 5.921c1.076 1.806 2.66 3.175 4.754 4.106C9.607 24.535 12.066 25 14.899 25c.336 0 .672-.01.99-.019a.932.932 0 0 0 .71-.363.867.867 0 0 0 .183-.754l-.106-.465c-.096-.447-.51-.745-.98-.726-.355.018-.72.028-1.104.028-2.123 0-4.024-.326-5.695-.987C7.226 21.053 5.9 20 4.93 18.558a9.04 9.04 0 0 1-1.565-4.785 11.38 11.38 0 0 1 1.008-5.214A8.346 8.346 0 0 1 7.86 4.668c1.575-.912 3.524-1.378 5.848-1.378 2.728 0 4.889.689 6.473 2.067 1.575 1.368 2.41 3.081 2.488 5.12a6.958 6.958 0 0 1-.673 3.305 7.272 7.272 0 0 1-.97 1.518c-.816.893-1.834 1.368-3.034 1.461a.605.605 0 0 1-.096-.335c-.01-.168.038-.54.134-1.099l1.364-7.745a.913.913 0 0 0-.24-.81 1.004 1.004 0 0 0-.797-.363h-1.335c-.48 0-.865.307-.951.763l-.125.624c-.768-1.126-1.92-1.694-3.438-1.694-2.142 0-3.851.977-5.148 2.932C5.21 12.311 5.756 19.6 11.048 19.591c1.316 0 2.459-.475 3.429-1.406.144.457.393.81.768 1.052.24.159.567.261.95.317.529.093 6.464-.13 8.404-5.735a.956.956 0 0 0 .048-.326c.269-.912.384-1.88.346-2.886Zm-9.979 3.37c-.297.969-.653 1.704-1.085 2.207-.307.363-.614.624-.931.791a2.708 2.708 0 0 1-1.354.345c-.654 0-1.201-.252-1.672-.745-.451-.494-.7-1.275-.749-2.327-.029-.792.087-1.695.365-2.719.27-1.015.71-1.806 1.306-2.355.605-.55 1.268-.829 2.008-.829.681 0 1.258.252 1.728.754.47.503.72 1.22.759 2.16.038.838-.086 1.741-.375 2.718Z" fill="#fff"/></svg>