<svg width="145" height="32" fill="none" xmlns="http://www.w3.org/2000/svg"><path d="M9.61 9.393h1.16v4.24h-1.8V11H1.04V.409h1.86v8.984H7.75V.41h1.86v8.984ZM12.01 11V.409h1.86v8.122L18.42.409h2.158V11h-1.86V2.878L14.167 11H12.01Zm21.147-5.34c0 1.299-.451 2.31-1.353 3.034-.903.724-1.974 1.096-3.213 1.116V11h-1.86V9.81a5.902 5.902 0 0 1-2.186-.461 4.11 4.11 0 0 1-1.696-1.398c-.456-.645-.684-1.409-.684-2.291 0-1.29.436-2.306 1.309-3.05.882-.743 1.968-1.135 3.257-1.175V.41h1.86v1.026c1.309.05 2.394.447 3.257 1.19.873.734 1.31 1.746 1.31 3.035Zm-1.86 0c0-1.557-.902-2.43-2.706-2.618v5.162c.872-.11 1.542-.358 2.008-.744.466-.387.699-.987.699-1.8Zm-4.566 2.543V3.043c-1.805.188-2.707 1.061-2.707 2.618 0 .813.233 1.413.7 1.8.465.386 1.134.634 2.007.744ZM34.803.41h4.596c1.14 0 2.038.273 2.693.818.664.536.996 1.339.996 2.41 0 1.011-.307 1.815-.922 2.41-.615.585-1.453.877-2.514.877h-2.99V11h-1.859V.409Zm1.86 1.547v3.466h2.588c1.348 0 2.023-.58 2.023-1.74 0-1.15-.73-1.726-2.187-1.726h-2.425ZM49.26.156c1.498 0 2.713.516 3.645 1.547.942 1.022 1.413 2.355 1.413 4.002 0 1.646-.471 2.984-1.413 4.016-.942 1.021-2.167 1.532-3.674 1.532-1.518 0-2.747-.51-3.69-1.532-.932-1.022-1.398-2.36-1.398-4.016 0-1.607.456-2.93 1.369-3.972C46.435.682 47.685.156 49.26.156Zm-.03 1.562c-.971 0-1.75.362-2.335 1.086-.585.714-.877 1.67-.877 2.87 0 1.23.287 2.207.862 2.931.585.724 1.379 1.086 2.38 1.086.962 0 1.73-.362 2.306-1.086.585-.734.878-1.706.878-2.915 0-1.21-.293-2.172-.878-2.886-.575-.724-1.354-1.086-2.335-1.086Zm6.75-1.309h4.835c1.11 0 1.958.243 2.543.729.595.476.893 1.12.893 1.934 0 .505-.139.962-.417 1.368a2.366 2.366 0 0 1-1.1.863c.614.149 1.1.446 1.457.892.357.447.536 1.007.536 1.681 0 .932-.313 1.686-.937 2.261-.615.575-1.418.863-2.41.863h-5.4V.409Zm1.815 1.502v2.916h2.529c.714 0 1.24-.11 1.577-.327.337-.228.505-.605.505-1.13 0-.596-.178-.988-.535-1.176-.347-.188-.843-.283-1.488-.283h-2.588Zm0 4.255v3.317h2.782c.714 0 1.274-.12 1.68-.357.407-.238.61-.67.61-1.294 0-.347-.064-.635-.193-.863a1.093 1.093 0 0 0-.535-.52 2.599 2.599 0 0 0-.714-.224c-.248-.04-.54-.06-.878-.06h-2.752Zm16.691 1.547c0 1.05-.317 1.864-.952 2.44-.624.564-1.512.847-2.662.847h-4.388V.409h1.859v4.046h2.529c1.16 0 2.052.283 2.677.848s.937 1.368.937 2.41Zm-1.859.044c0-.555-.164-.991-.49-1.309-.328-.317-.784-.476-1.37-.476h-2.424v3.51h2.454c1.22 0 1.83-.574 1.83-1.725ZM75.737.41h1.86V11h-1.86V.409Zm11.684 0v1.562h-5.786v2.811h5.37v1.503h-5.37v3.123h5.875V11h-7.72V.409h7.631ZM41.996 28V17.409h1.86v8.122l4.551-8.122h2.157V28h-1.86v-8.122L44.154 28h-2.157ZM61.3 17.409V28h-1.86v-4.76H54.59V28h-1.859V17.409h1.86v4.21h4.849v-4.21h1.86Zm2.182 0h4.834c1.111 0 1.959.243 2.544.729.595.476.892 1.12.892 1.934 0 .505-.138.962-.416 1.368a2.366 2.366 0 0 1-1.1.863c.614.149 1.1.446 1.457.892.357.447.536 1.007.536 1.681 0 .932-.313 1.686-.938 2.261-.615.575-1.418.863-2.41.863h-5.399V17.409Zm1.815 1.502v2.916h2.528c.715 0 1.24-.11 1.577-.327.337-.229.506-.605.506-1.13 0-.596-.178-.988-.535-1.176-.348-.188-.843-.283-1.488-.283h-2.588Zm0 4.255v3.317h2.781c.714 0 1.275-.12 1.681-.357.407-.238.61-.67.61-1.294 0-.348-.064-.635-.193-.863a1.093 1.093 0 0 0-.536-.52 2.6 2.6 0 0 0-.714-.224 5.64 5.64 0 0 0-.877-.06h-2.752Zm16.29-5.757v1.562h-5.787v2.811h5.37v1.503h-5.37v3.123h5.876V28h-7.72V17.409h7.63Zm10.827 6.56c-.1 1.299-.566 2.34-1.399 3.124-.823.773-1.894 1.16-3.213 1.16-1.497 0-2.697-.506-3.6-1.517-.902-1.012-1.353-2.356-1.353-4.032 0-1.011.193-1.928.58-2.751a4.741 4.741 0 0 1 1.74-2.008c.774-.516 1.681-.774 2.723-.774 1.12 0 2.097.312 2.93.937.833.615 1.334 1.508 1.502 2.678H90.48c-.129-.635-.427-1.13-.893-1.488-.466-.367-1.04-.55-1.725-.55-.704 0-1.304.198-1.8.595a3.295 3.295 0 0 0-1.041 1.472 5.759 5.759 0 0 0-.298 1.89c0 .515.06 1.001.179 1.457.119.456.297.878.535 1.265.238.377.56.679.967.907.417.228.898.342 1.443.342 1.577 0 2.48-.902 2.707-2.707h1.86Zm9.001-6.56v1.607h-3.377V28h-1.86v-8.985h-3.376V17.41h8.613ZM102.6 28V17.409h1.86v8.122l4.551-8.122h2.157V28h-1.859v-8.122L104.757 28H102.6Zm19.259-1.607h1.16v4.24h-1.8V28h-7.928V17.409h1.859v8.985h4.849v-8.985h1.86v8.985Zm2.4 1.607V17.409h1.859v8.122l4.552-8.122h2.157V28h-1.859v-8.122L126.416 28h-2.157Zm10.735 0V17.409h1.859v8.122l4.552-8.122h2.157V28h-1.859v-8.122L137.151 28h-2.157Z" fill="#00222E"/></svg>