<svg width="282" height="126" viewBox="0 0 282 126" fill="none" xmlns="http://www.w3.org/2000/svg">
<mask id="mask0_4069_355" style="mask-type:alpha" maskUnits="userSpaceOnUse" x="0" y="0" width="282" height="126">
<rect width="282" height="126" fill="#D9D9D9"/>
</mask>
<g mask="url(#mask0_4069_355)">
<path d="M70.6961 53.5145L68.2946 50.7556L74.2202 45.8892C76.6412 47.604 78.6521 49.8072 80.136 52.3554L70.6961 53.5145Z" fill="#0094FF"/>
<path d="M52.3728 44.2511L52.5875 44.1458C53.3587 43.7626 54.1592 43.4369 54.9792 43.1591C55.1061 43.1112 55.233 43.0729 55.3599 43.0346L55.4478 43.0058C55.5747 42.9675 55.6918 42.9292 55.8188 42.8909C56.0823 42.8142 56.3459 42.7376 56.6095 42.6705L56.834 42.6131L56.9511 42.5843C57.2635 42.5077 57.5857 42.4406 57.8981 42.3832C58.0933 42.3449 58.2983 42.3161 58.4935 42.2778L58.6107 42.2586L58.8255 42.2203C59.1769 42.1724 59.5186 42.1341 59.87 42.0958L59.9676 42.0862C60.2214 42.0671 60.4655 42.0479 60.7193 42.0287L60.9731 42.0191C61.3441 42 61.6467 42 61.9298 42C62.2519 42 62.5838 42.0096 62.945 42.0287C63.0231 42.0287 63.111 42.0383 63.1891 42.0479L63.3355 42.0575C63.5405 42.0671 63.7455 42.0862 63.9505 42.1054C64.0677 42.1149 64.1848 42.1341 64.3019 42.1437L64.4093 42.1532C64.5948 42.1724 64.7705 42.1916 64.9462 42.2203C65.1122 42.2395 65.2684 42.2682 65.4343 42.297C65.6296 42.3257 65.8248 42.364 66.0201 42.4023L66.2348 42.4406C66.9572 42.5939 67.6796 42.7759 68.3825 43.0058C68.5484 43.0537 68.7046 43.1112 68.8608 43.1687L68.9682 43.207C69.0365 43.2357 69.1146 43.2549 69.1927 43.2836C70.2861 43.686 71.3501 44.1649 72.3654 44.7397L61.9298 53.3133L51.4942 44.7397C51.6699 44.6439 51.8554 44.5385 52.0311 44.4427C52.1482 44.3661 52.2654 44.3086 52.3728 44.2511Z" fill="#0094FF"/>
<path d="M49.6491 45.8892L55.8383 50.9759L53.3001 53.5336L43.7334 52.3554C45.2172 49.8072 47.2282 47.604 49.6491 45.8892Z" fill="#0094FF"/>
<path d="M65.8443 62.6245L65.1122 56.35L70.9011 55.6124L66.3813 58.0743L66.6546 63.0652L62.6326 68.0177V68.8512L67.5136 70.9107L68.7827 68.5925L76.4068 77.2523C75.2452 78.3444 73.9566 79.3023 72.5606 80.107L72.0432 80.404L66.391 73.8229L67.2989 71.4951L61.92 70.3264L56.5411 71.4951L57.449 73.8229L51.787 80.4135C51.5137 80.2507 51.2306 80.0878 50.9573 79.9154C50.0787 79.379 49.2294 78.785 48.4387 78.1336L48.2434 77.9708C47.9701 77.7409 47.7065 77.5014 47.4429 77.2523L55.0768 68.6021L56.3459 70.9203L61.305 68.8224L61.3148 68.0177L57.1073 63.1226L57.4685 58.0838L52.9487 55.6219L58.7376 56.3596L58.0054 62.6341L61.9688 63.9369C61.9883 63.9177 65.8443 62.6245 65.8443 62.6245Z" fill="#0094FF"/>
<path d="M82.3812 66.897L72.3654 55.4208L81.1414 54.3C82.6936 57.7965 83.2207 61.6378 82.6545 65.4121C82.5764 65.9198 82.4886 66.4084 82.3812 66.897Z" fill="#0094FF"/>
<path d="M67.4453 63.9178L72.9901 59.4058L81.6881 69.2727C80.8291 71.6388 79.5405 73.8229 77.8809 75.7292L67.4453 63.9178Z" fill="#0094FF"/>
<path d="M50.8889 59.4154L56.385 63.889L45.9982 75.7388C45.0708 74.6755 44.2605 73.5355 43.5772 72.3094C43.0305 71.3418 42.5717 70.3264 42.191 69.2823L50.8889 59.4154Z" fill="#0094FF"/>
<path d="M41.1757 59.8465C41.4295 57.9402 41.9469 56.0722 42.7279 54.3096L51.5039 55.4304L41.4979 66.9066C41.166 65.4505 41 63.9657 41 62.4713C41 61.59 41.0586 60.7086 41.1757 59.8465Z" fill="#0094FF"/>
<path d="M61.9298 75.0203L64.6729 75.0108L70.1299 81.3619C67.5332 82.4444 64.751 83 61.9298 83C59.089 83 56.3264 82.454 53.7199 81.3619L59.1867 75.0108L61.9298 75.0203Z" fill="#0094FF"/>
<path d="M99.6795 78.9671V73.5164H102.022C102.354 73.5164 102.667 73.5739 102.969 73.6984C103.272 73.823 103.545 74.005 103.789 74.2349C104.033 74.4744 104.219 74.7521 104.355 75.0874C104.492 75.4227 104.561 75.8059 104.561 76.2274C104.561 76.6585 104.492 77.0321 104.355 77.3673C104.219 77.7026 104.024 77.99 103.789 78.2199C103.545 78.4594 103.272 78.6318 102.969 78.7564C102.667 78.8809 102.345 78.9384 102.022 78.9384H99.6795V78.9671ZM100.314 78.3828H102.003C102.403 78.3828 102.745 78.287 103.038 78.0858C103.33 77.8846 103.555 77.626 103.711 77.3003C103.867 76.9746 103.945 76.6201 103.945 76.237C103.945 75.8442 103.867 75.4898 103.711 75.1641C103.555 74.8384 103.33 74.5797 103.038 74.3881C102.745 74.1965 102.403 74.0912 102.003 74.0912H100.314V78.3828Z" fill="#0094FF"/>
<path d="M107.216 79.0341C106.806 79.0341 106.454 78.9383 106.152 78.7468C105.849 78.5552 105.615 78.2965 105.439 77.9804C105.273 77.6547 105.185 77.3002 105.185 76.9075C105.185 76.5147 105.273 76.1507 105.439 75.8346C105.605 75.5185 105.839 75.2598 106.152 75.0682C106.454 74.8767 106.816 74.7808 107.216 74.7808C107.557 74.7808 107.86 74.8479 108.104 74.982C108.348 75.1161 108.553 75.2886 108.709 75.5185V74.8479H109.334V78.9575H108.709V78.2965C108.553 78.5168 108.348 78.6893 108.104 78.8234C107.86 78.9671 107.557 79.0341 107.216 79.0341ZM107.294 78.4689C107.606 78.4689 107.87 78.4019 108.085 78.2582C108.299 78.1145 108.465 77.9229 108.573 77.6834C108.68 77.444 108.739 77.1853 108.739 76.9075C108.739 76.6201 108.68 76.3615 108.573 76.122C108.465 75.8825 108.299 75.7005 108.085 75.5568C107.87 75.4131 107.606 75.3461 107.294 75.3461C106.991 75.3461 106.718 75.4131 106.493 75.5568C106.269 75.7005 106.103 75.8921 105.986 76.122C105.869 76.3615 105.81 76.6201 105.81 76.9075C105.81 77.1853 105.869 77.444 105.986 77.6834C106.103 77.9229 106.269 78.1145 106.493 78.2582C106.718 78.4019 106.991 78.4689 107.294 78.4689Z" fill="#0094FF"/>
<path d="M110.886 78.9671V75.3939H110.027V74.8479H110.886V73.3727H111.511V74.8479H112.477V75.3939H111.511V78.9671H110.886Z" fill="#0094FF"/>
<path d="M114.85 79.0341C114.44 79.0341 114.088 78.9383 113.786 78.7468C113.483 78.5552 113.249 78.2965 113.073 77.9804C112.907 77.6547 112.819 77.3002 112.819 76.9075C112.819 76.5147 112.907 76.1507 113.073 75.8346C113.239 75.5185 113.473 75.2598 113.786 75.0682C114.088 74.8767 114.449 74.7808 114.85 74.7808C115.191 74.7808 115.494 74.8479 115.738 74.982C115.982 75.1161 116.187 75.2886 116.343 75.5185V74.8479H116.968V78.9575H116.343V78.2965C116.187 78.5168 115.982 78.6893 115.738 78.8234C115.494 78.9671 115.191 79.0341 114.85 79.0341ZM114.928 78.4689C115.24 78.4689 115.504 78.4019 115.719 78.2582C115.933 78.1145 116.099 77.9229 116.207 77.6834C116.314 77.444 116.373 77.1853 116.373 76.9075C116.373 76.6201 116.314 76.3615 116.207 76.122C116.099 75.8825 115.933 75.7005 115.719 75.5568C115.504 75.4131 115.24 75.3461 114.928 75.3461C114.625 75.3461 114.352 75.4131 114.127 75.5568C113.903 75.7005 113.737 75.8921 113.62 76.122C113.503 76.3615 113.444 76.6201 113.444 76.9075C113.444 77.1853 113.503 77.444 113.62 77.6834C113.737 77.9229 113.903 78.1145 114.127 78.2582C114.362 78.4019 114.625 78.4689 114.928 78.4689Z" fill="#0094FF"/>
<path d="M121.976 79.0341C121.429 79.0341 120.98 78.9575 120.639 78.8138C120.297 78.6701 120.043 78.469 119.867 78.2103C119.692 77.9517 119.594 77.6643 119.574 77.3386H120.229C120.248 77.5972 120.336 77.8176 120.492 77.9804C120.658 78.1433 120.863 78.2582 121.136 78.3348C121.41 78.4115 121.693 78.4498 122.015 78.4498C122.484 78.4498 122.855 78.3732 123.128 78.2103C123.401 78.0475 123.538 77.808 123.538 77.4919C123.538 77.3003 123.47 77.147 123.333 77.0225C123.196 76.9075 123.011 76.8117 122.786 76.7351C122.562 76.6584 122.308 76.5914 122.044 76.5243C121.781 76.4573 121.507 76.3902 121.234 76.3232C120.961 76.2561 120.717 76.1603 120.492 76.0549C120.268 75.9496 120.082 75.8059 119.945 75.6334C119.809 75.461 119.74 75.2407 119.74 74.9724C119.74 74.5318 119.916 74.1678 120.268 73.89C120.619 73.6122 121.136 73.4685 121.83 73.4685C122.318 73.4685 122.728 73.5451 123.05 73.6888C123.372 73.8325 123.606 74.0241 123.762 74.2636C123.919 74.5031 124.006 74.7521 124.026 75.0299H123.382C123.352 74.7521 123.206 74.5222 122.962 74.3306C122.718 74.1391 122.337 74.0432 121.83 74.0432C121.517 74.0432 121.263 74.072 121.068 74.1295C120.873 74.1869 120.726 74.2636 120.619 74.3594C120.512 74.4552 120.443 74.551 120.414 74.6563C120.375 74.7617 120.355 74.8575 120.355 74.9533C120.355 75.1353 120.424 75.279 120.56 75.3939C120.697 75.5089 120.883 75.5951 121.107 75.6718C121.332 75.7484 121.585 75.8154 121.859 75.8729C122.132 75.9304 122.405 75.9974 122.679 76.0741C122.952 76.1507 123.196 76.2369 123.421 76.3519C123.645 76.4668 123.831 76.6105 123.967 76.783C124.104 76.9554 124.172 77.1853 124.172 77.4535C124.172 77.9612 123.977 78.3444 123.587 78.6222C123.196 78.9 122.659 79.0341 121.976 79.0341Z" fill="#0094FF"/>
<path d="M125.441 80.5956L126.203 78.9096L124.495 74.8575H125.188L126.535 78.2295L127.911 74.8575H128.604L126.125 80.5956H125.441Z" fill="#0094FF"/>
<path d="M130.703 79.0341C130.313 79.0341 129.991 78.9671 129.727 78.8426C129.463 78.718 129.258 78.5552 129.122 78.3444C128.985 78.1432 128.907 77.9133 128.887 77.6739H129.542C129.561 77.808 129.61 77.9421 129.688 78.0762C129.766 78.2007 129.893 78.3061 130.059 78.3923C130.225 78.4785 130.44 78.5073 130.713 78.5073C130.801 78.5073 130.898 78.4977 131.025 78.4785C131.152 78.4594 131.269 78.4306 131.387 78.3923C131.504 78.354 131.601 78.2869 131.679 78.1912C131.757 78.1049 131.797 77.99 131.797 77.8559C131.797 77.6834 131.728 77.5589 131.592 77.4631C131.455 77.3673 131.289 77.3002 131.074 77.2428C130.859 77.1949 130.635 77.1374 130.401 77.0895C130.166 77.0416 129.942 76.9746 129.727 76.8979C129.512 76.8213 129.346 76.7063 129.21 76.5626C129.073 76.4189 129.005 76.2178 129.005 75.9687C129.005 75.5951 129.141 75.3077 129.415 75.097C129.688 74.8958 130.098 74.7904 130.645 74.7904C131.016 74.7904 131.318 74.8479 131.543 74.9629C131.767 75.0778 131.953 75.2215 132.07 75.3939C132.187 75.5664 132.265 75.758 132.285 75.9591H131.65C131.631 75.7867 131.543 75.6334 131.387 75.5089C131.23 75.3844 130.977 75.3173 130.625 75.3173C129.961 75.3173 129.629 75.5185 129.629 75.9112C129.629 76.0741 129.698 76.1986 129.834 76.2944C129.971 76.3806 130.137 76.4477 130.352 76.5052C130.567 76.5531 130.791 76.6105 131.025 76.6489C131.26 76.6967 131.484 76.7638 131.699 76.8405C131.914 76.9267 132.08 77.0416 132.216 77.1853C132.353 77.3386 132.421 77.5398 132.421 77.7984C132.421 78.2007 132.265 78.5073 131.953 78.718C131.64 78.9288 131.221 79.0341 130.703 79.0341Z" fill="#0094FF"/>
<path d="M133.671 78.9671V75.3939H132.812V74.8479H133.671V73.3727H134.296V74.8479H135.262V75.3939H134.296V78.9671H133.671Z" fill="#0094FF"/>
<path d="M137.722 79.0341C137.302 79.0341 136.922 78.9383 136.609 78.7468C136.287 78.5552 136.043 78.2965 135.867 77.9804C135.692 77.6547 135.604 77.3002 135.604 76.9075C135.604 76.5147 135.692 76.1507 135.858 75.8346C136.023 75.5185 136.268 75.2598 136.58 75.0682C136.892 74.8767 137.263 74.7808 137.683 74.7808C138.113 74.7808 138.483 74.8767 138.796 75.0682C139.108 75.2598 139.343 75.5089 139.509 75.8346C139.674 76.1603 139.762 76.5147 139.762 76.9075V77.1566H136.248C136.287 77.396 136.365 77.6164 136.492 77.8175C136.619 78.0187 136.785 78.1816 137 78.2965C137.214 78.4115 137.459 78.4689 137.742 78.4689C138.034 78.4689 138.288 78.4019 138.484 78.2774C138.689 78.1528 138.845 77.9804 138.952 77.7792H139.635C139.489 78.1432 139.264 78.4498 138.942 78.6797C138.63 78.9192 138.22 79.0341 137.722 79.0341ZM136.258 76.5818H139.108C139.05 76.2273 138.903 75.94 138.659 75.7005C138.415 75.461 138.093 75.3461 137.683 75.3461C137.273 75.3461 136.961 75.461 136.717 75.7005C136.473 75.94 136.326 76.2273 136.258 76.5818Z" fill="#0094FF"/>
<path d="M140.534 78.9671V74.8575H141.158V75.4802C141.256 75.3173 141.402 75.164 141.607 75.0108C141.812 74.8575 142.086 74.7904 142.427 74.7904C142.71 74.7904 142.964 74.8671 143.199 75.0108C143.433 75.1545 143.618 75.3652 143.755 75.6238C143.814 75.528 143.901 75.4227 144.019 75.2886C144.136 75.1545 144.292 75.0395 144.497 74.9437C144.692 74.8479 144.926 74.8 145.2 74.8C145.473 74.8 145.717 74.8671 145.951 75.0012C146.186 75.1353 146.381 75.3365 146.527 75.5855C146.674 75.8442 146.752 76.1412 146.752 76.486V78.9671H146.127V76.4956C146.127 76.1507 146.03 75.8729 145.834 75.6622C145.639 75.4514 145.385 75.3461 145.092 75.3461C144.79 75.3461 144.516 75.4514 144.292 75.6526C144.067 75.8538 143.96 76.1411 143.96 76.5052V78.9671H143.335V76.4956C143.335 76.1507 143.238 75.8729 143.033 75.6622C142.837 75.4514 142.584 75.3461 142.291 75.3461C141.988 75.3461 141.715 75.4514 141.49 75.6526C141.266 75.8538 141.158 76.1411 141.158 76.5052V78.9671H140.534Z" fill="#0094FF"/>
<path d="M149.339 79.0341C148.948 79.0341 148.626 78.9671 148.363 78.8426C148.099 78.718 147.894 78.5552 147.757 78.3444C147.621 78.1432 147.543 77.9133 147.523 77.6739H148.177C148.197 77.808 148.246 77.9421 148.324 78.0762C148.402 78.2007 148.529 78.3061 148.695 78.3923C148.861 78.4785 149.075 78.5073 149.349 78.5073C149.437 78.5073 149.534 78.4977 149.661 78.4785C149.788 78.4594 149.905 78.4306 150.022 78.3923C150.139 78.354 150.237 78.2869 150.315 78.1912C150.393 78.1049 150.432 77.99 150.432 77.8559C150.432 77.6834 150.364 77.5589 150.227 77.4631C150.091 77.3673 149.925 77.3002 149.71 77.2428C149.495 77.1949 149.271 77.1374 149.036 77.0895C148.802 77.0416 148.577 76.9746 148.363 76.8979C148.148 76.8213 147.982 76.7063 147.845 76.5626C147.709 76.4189 147.64 76.2178 147.64 75.9687C147.64 75.5951 147.777 75.3077 148.05 75.097C148.324 74.8958 148.734 74.7904 149.28 74.7904C149.651 74.7904 149.954 74.8479 150.178 74.9629C150.403 75.0778 150.588 75.2215 150.706 75.3939C150.823 75.5664 150.901 75.758 150.92 75.9591H150.286C150.266 75.7867 150.178 75.6334 150.022 75.5089C149.866 75.3844 149.612 75.3173 149.261 75.3173C148.597 75.3173 148.265 75.5185 148.265 75.9112C148.265 76.0741 148.333 76.1986 148.47 76.2944C148.607 76.3806 148.773 76.4477 148.987 76.5052C149.202 76.5531 149.427 76.6105 149.661 76.6489C149.895 76.6967 150.12 76.7638 150.335 76.8405C150.549 76.9267 150.715 77.0416 150.852 77.1853C150.989 77.3386 151.057 77.5398 151.057 77.7984C151.057 78.2007 150.901 78.5073 150.588 78.718C150.276 78.9288 149.856 79.0341 149.339 79.0341Z" fill="#0094FF"/>
<path d="M99.66 66.6766H102.96V50.315L99.66 53.5624V66.6766Z" fill="#0094FF"/>
<path d="M193.463 66.6766H196.773V50.1808H193.463V66.6766Z" fill="#0094FF"/>
<path d="M131.055 50.1521V53.3996H137.898V66.6767H141.197V53.3996H147.816V50.1521H131.055Z" fill="#0094FF"/>
<path d="M152.629 50.1521V50.2288H152.609V65.0386H152.629V66.5905H169.39V63.343H155.919V60.0094H169.39V56.7715H155.919V53.3996H169.39V50.1521H152.629Z" fill="#0094FF"/>
<path d="M179.172 50.2287H175.872V65.0385H175.892V66.5904H189.392V63.343H179.172V50.2287Z" fill="#0094FF"/>
<path d="M122.962 61.1685L112.77 51.1675L111.755 50.1808H109.568V66.6766H112.868V55.8519L123.03 65.8241L123.987 66.6766H126.261V50.1808H122.962V61.1685Z" fill="#0094FF"/>
<path d="M238.769 50.1808H238.691V61.1685L228.499 51.1675L227.484 50.1808H225.297V66.6766H228.607V55.8519L238.691 65.757L238.739 65.7953L238.769 65.8241L239.716 66.6766H242V53.3516L238.769 50.1808Z" fill="#0094FF"/>
<path d="M211.035 49.7593C206.056 49.7593 202.015 53.639 202.015 58.4288C202.015 63.2185 206.046 67.0981 211.035 67.0981C216.014 67.0981 220.055 63.2185 220.055 58.4288C220.055 53.639 216.014 49.7593 211.035 49.7593ZM211.035 63.9178C207.882 63.9178 205.324 61.4559 205.324 58.4288C205.324 55.3921 207.882 52.9397 211.035 52.9397C214.188 52.9397 216.746 55.4016 216.746 58.4288C216.746 61.4559 214.188 63.9178 211.035 63.9178Z" fill="#0094FF"/>
</g>
</svg>
