<svg width="282" height="126" viewBox="0 0 282 126" fill="none" xmlns="http://www.w3.org/2000/svg">
<mask id="mask0_4070_364" style="mask-type:alpha" maskUnits="userSpaceOnUse" x="0" y="0" width="282" height="126">
<rect width="282" height="126" fill="#D9D9D9"/>
</mask>
<g mask="url(#mask0_4070_364)">
<mask id="mask1_4070_364" style="mask-type:alpha" maskUnits="userSpaceOnUse" x="70" y="47" width="142" height="32">
<path fill-rule="evenodd" clip-rule="evenodd" d="M70 47H212V79H70V47Z" fill="white"/>
</mask>
<g mask="url(#mask1_4070_364)">
<path fill-rule="evenodd" clip-rule="evenodd" d="M79.5658 62.3818C82.9337 62.3818 85.0896 61.8075 86.6618 60.5255C88.0537 59.3762 88.7271 57.8295 88.7271 55.929C88.7271 53.5862 87.6949 51.9953 86.0783 50.9344C84.3263 49.7851 82.1711 49.4762 78.5335 49.4762H72.7408L72.7401 62.3818H79.5658ZM70.0007 47L78.7126 47.0007C82.485 47.0007 85.4042 47.443 87.6949 48.9019C89.895 50.3159 91.4666 52.6138 91.4666 55.7963C91.4672 58.7134 90.1197 61.0998 88.0537 62.558C86.572 63.6195 84.8206 64.1496 82.7996 64.4592L93.6667 78.9994L90.3437 79L79.7449 64.6797H72.7401L72.7394 78.9994H70L70.0007 47Z" fill="#1B2A30"/>
<path fill-rule="evenodd" clip-rule="evenodd" d="M125.223 57H127.194L127.194 79H125.222L125.223 57Z" fill="#1B2A30"/>
<path fill-rule="evenodd" clip-rule="evenodd" d="M135.625 74.4629C138.019 75.9179 141.09 76.689 144.025 76.689C147.774 76.689 150.169 75.4475 150.169 72.9222C150.169 69.7552 146.465 69.4125 142.988 68.8986C139.284 68.3424 135.083 67.315 135.083 63.0349C135.084 59.054 138.651 57 143.71 57C146.6 57 149.537 57.6847 151.705 58.7977L151.705 61.4514C149.356 60.0392 146.375 59.3117 143.621 59.3117C140.142 59.3117 137.749 60.4669 137.748 62.8643C137.749 65.8171 141.362 66.117 144.704 66.631C148.724 67.2299 152.833 68.2566 152.833 72.708C152.833 76.8603 149.265 79 143.891 79C140.955 79 137.883 78.3574 135.625 77.1595V74.4629Z" fill="#1B2A30"/>
<path fill-rule="evenodd" clip-rule="evenodd" d="M161.059 71.3005L161.06 59.602H156.778L156.778 57.3651H161.06V51.4298L163.637 51V57.3658H170.583V59.602H163.637V70.8707C163.637 74.0533 164.117 76.677 167.525 76.6776C168.66 76.677 169.753 76.3763 170.583 75.9029L170.583 78.312C169.753 78.6987 168.486 79 167.175 79C165.603 79 163.811 78.5696 162.588 77.1928C161.495 75.9459 161.059 74.0533 161.059 71.3005Z" fill="#1B2A30"/>
<path fill-rule="evenodd" clip-rule="evenodd" d="M188.27 74.2579V69.5166C186.658 69.047 184.792 68.7478 183.095 68.7478C180.127 68.7478 177.072 69.687 177.073 72.8058C177.072 75.5398 179.405 76.7355 181.95 76.7362C184.325 76.7362 186.615 75.7109 188.27 74.2579ZM176.69 77.5472C175.334 76.5224 174.528 74.9848 174.528 73.0195C174.528 70.7979 175.546 69.2174 177.157 68.1493C178.727 67.1246 180.847 66.7405 182.883 66.7398C184.792 66.7398 186.53 67.039 188.27 67.5093V65.0746C188.27 63.0238 187.888 61.6999 186.743 60.6746C185.767 59.8202 184.326 59.35 182.459 59.35C180 59.35 177.752 60.1616 176.055 61.4007V58.8804C177.752 57.8116 180.084 57.0007 182.714 57C185.217 57.0007 187.252 57.6412 188.652 58.8376C190.051 60.034 190.772 61.913 190.772 64.4766V73.5754C190.771 75.3694 191.195 76.6941 192.892 76.6934C193.401 76.6934 193.868 76.5659 194.25 76.3522L194.249 78.531C193.783 78.7442 193.147 78.8725 192.426 78.8725C190.644 78.8725 189.245 78.0181 188.651 76.3942H188.566C186.997 77.7616 184.453 79 181.611 79C179.829 79 178.048 78.5731 176.69 77.5472Z" fill="#1B2A30"/>
<path fill-rule="evenodd" clip-rule="evenodd" d="M202.476 71.3013L202.476 59.602H198.194L198.195 57.3658H202.476V51.4304L205.054 51V57.3658H212V59.602H205.054V70.8707C205.054 74.0539 205.533 76.6776 208.942 76.6776C210.077 76.6776 211.169 76.3763 212 75.9035L211.999 78.312C211.169 78.6994 209.903 79 208.592 79C207.019 79 205.228 78.5702 204.005 77.1934C202.912 75.9466 202.476 74.0539 202.476 71.3013Z" fill="#1B2A30"/>
<path fill-rule="evenodd" clip-rule="evenodd" d="M111.783 64.8715C112.388 65.7525 112.741 66.8293 112.741 68.0003C112.741 70.9966 110.453 73.3934 107.473 73.3934C104.493 73.3934 102.204 70.996 102.204 68.0003C102.204 65.0046 104.493 62.6072 107.473 62.6072C108.802 62.6072 109.992 63.087 110.904 63.8818L114.777 59.2339C112.797 57.8264 110.284 57.0007 107.473 57C100.692 57 95.6395 61.7941 95.6389 68.0003C95.6389 74.2066 100.692 79 107.473 79C114.253 79.0006 119.306 74.2072 119.306 68.001C119.306 65.4224 118.432 63.0902 116.926 61.2418L111.783 64.8715Z" fill="#26A4F0"/>
<path fill-rule="evenodd" clip-rule="evenodd" d="M126.086 53L131.139 49.137C130.534 48.3319 129.825 47.6137 129.027 47L125.222 51.9459C125.55 52.2545 125.838 52.6093 126.086 53Z" fill="#26A4F0"/>
</g>
</g>
</svg>
