<svg width="282" height="126" viewBox="0 0 282 126" fill="none" xmlns="http://www.w3.org/2000/svg">
<mask id="mask0_4070_366" style="mask-type:alpha" maskUnits="userSpaceOnUse" x="0" y="0" width="282" height="126">
<rect width="282" height="126" fill="#D9D9D9"/>
</mask>
<g mask="url(#mask0_4070_366)">
<path d="M89.0311 57.5649C88.7358 56.8958 87.7572 56.8832 87.4561 57.5496C86.7149 59.1906 85.5101 61.7351 84.056 64.3531C83.9008 64.6326 83.9184 64.9775 84.0982 65.2415C84.7519 66.2011 86.3525 68.6495 87.6299 71.4072C87.9474 72.0927 88.9952 72.0909 89.2886 71.3945C90.0367 69.6188 91.2157 67.0533 92.4569 65.2636C92.6492 64.9863 92.6707 64.6227 92.5003 64.3311C91.8844 63.2768 90.375 60.6089 89.0311 57.5649Z" fill="url(#paint0_linear_4070_366)"/>
<path d="M102.842 86.0647C102.279 86.1203 101.944 86.726 102.194 87.2377L102.987 88.8618C103.27 89.4422 103.856 89.8097 104.497 89.8097H122.948C123.526 89.8097 124.063 89.5114 124.371 89.0193L125.869 86.6303C119.007 84.003 111.841 67.9242 111.7 67.6075C111.696 67.5976 111.695 67.5979 111.691 67.5882L97.4149 38.4817C97.1175 37.8752 96.2596 37.8757 95.9628 38.4824L92.3076 45.9533C91.6998 47.1956 91.711 48.6482 92.3374 49.8811C95.6264 56.3553 102.896 70.8818 105.789 76.7788C109.332 84.0029 105.259 85.6099 103.449 86.0046L102.842 86.0647Z" fill="url(#paint1_linear_4070_366)"/>
<path d="M81.4928 75.1838C81.1859 74.5323 80.2167 74.5299 79.8996 75.1764C78.3921 78.2495 74.8392 84.4976 70.0001 86.6302L71.3287 89.8096H88.0779C88.7926 89.8096 89.4294 89.3545 89.6662 88.6746L90.3781 86.6302C89.149 86.0851 85.5697 83.8358 81.4928 75.1838Z" fill="url(#paint2_linear_4070_366)"/>
<path d="M166.897 73.6794V74.2339L167.28 85.9032C167.62 86.1604 167.935 86.289 168.225 86.289C168.514 86.289 168.676 86.0238 168.71 85.4934C168.71 85.3326 168.702 84.9549 168.685 84.3602C168.685 83.7494 168.676 83.0341 168.659 82.2144C168.659 81.3946 168.65 80.5186 168.633 79.5864C168.616 78.6541 168.599 77.7781 168.582 76.9584C168.565 76.1386 168.548 75.4314 168.531 74.8367C168.514 74.2259 168.506 73.8401 168.506 73.6794L168.531 73.165L168.506 72.731V72.0158C168.455 71.5818 168.421 71.1076 168.404 70.5933C168.387 70.0629 168.378 69.5244 168.378 68.9779C168.395 68.4153 168.412 67.8608 168.429 67.3143C168.446 66.7517 168.472 66.2213 168.506 65.723C168.455 65.5623 168.352 65.4337 168.199 65.3373C168.046 65.2247 167.876 65.1685 167.688 65.1685C167.518 65.1524 167.348 65.1926 167.178 65.289C167.007 65.3855 166.897 65.5382 166.845 65.7471L166.897 72.5703V73.3418V73.6794Z" fill="#150333"/>
<path d="M156.833 84.3361C156.373 84.32 155.981 84.1914 155.658 83.9503C155.181 84.1271 154.951 84.3763 154.968 84.6977C154.985 85.0031 155.189 85.3166 155.581 85.638C155.939 85.7345 156.407 85.7425 156.986 85.6621C157.582 85.5818 158.212 85.4291 158.876 85.204C159.557 84.979 160.238 84.6977 160.92 84.3602C161.601 84.0066 162.214 83.6208 162.759 83.2029C163.321 82.7689 163.78 82.3108 164.138 81.8286C164.496 81.3303 164.683 80.816 164.7 80.2856C164.666 79.4498 164.487 78.8791 164.163 78.5737C163.84 78.2523 163.431 78.0755 162.937 78.0433C162.444 77.9951 161.89 78.0353 161.277 78.1639C160.664 78.2764 160.06 78.3568 159.464 78.405C158.885 78.4532 158.331 78.405 157.803 78.2603C157.292 78.0996 156.875 77.7299 156.552 77.1512C156.398 76.653 156.433 76.0984 156.654 75.4876C156.875 74.8769 157.25 74.3304 157.778 73.8482C158.306 73.3499 158.97 72.9641 159.77 72.6909C160.57 72.4176 161.473 72.3774 162.478 72.5703C162.767 72.6025 162.997 72.5462 163.167 72.4015C163.338 72.2569 163.431 72.064 163.448 71.8229C163.465 71.63 163.44 71.4854 163.372 71.3889C163.321 71.2925 163.235 71.2201 163.116 71.1719C162.997 71.1237 162.861 71.0996 162.708 71.0996C162.571 71.0835 162.418 71.0674 162.248 71.0514C161.396 71.0031 160.553 71.1157 159.719 71.3889C158.902 71.6622 158.152 72.056 157.471 72.5703C156.807 73.0847 156.254 73.7115 155.811 74.4509C155.385 75.1742 155.147 75.9538 155.096 76.7896C155.062 77.6576 155.258 78.3005 155.683 78.7184C156.109 79.1363 156.662 79.4015 157.344 79.514C158.042 79.6266 158.825 79.6266 159.693 79.514C160.562 79.4015 161.43 79.2488 162.299 79.056C162.776 79.2167 163.082 79.4337 163.218 79.7069C163.355 79.9802 163.363 80.2856 163.244 80.6231C163.125 80.9446 162.895 81.2902 162.554 81.6599C162.231 82.0135 161.839 82.351 161.379 82.6725C160.937 82.9939 160.443 83.2913 159.898 83.5646C159.37 83.8217 158.842 84.0226 158.314 84.1673C157.803 84.2959 157.309 84.3522 156.833 84.3361Z" fill="#150333"/>
<path fill-rule="evenodd" clip-rule="evenodd" d="M180.026 85.4451C179.787 85.1076 179.634 84.6656 179.566 84.1191C179.515 83.5726 179.481 83.002 179.464 82.4073V80.6231C179.481 80.0284 179.438 79.5221 179.336 79.1042C178.536 80.7597 177.778 82.0537 177.063 82.9859C176.364 83.9021 175.717 84.5611 175.121 84.9629C174.542 85.3487 174.014 85.5255 173.538 85.4934C173.061 85.4451 172.652 85.2844 172.312 85.0112C171.988 84.7218 171.733 84.3763 171.545 83.9744C171.358 83.5565 171.256 83.1627 171.239 82.793C171.12 82.1822 171.111 81.4509 171.213 80.599C171.332 79.731 171.528 78.839 171.801 77.9228C172.09 77.0066 172.448 76.1145 172.874 75.2465C173.316 74.3625 173.81 73.599 174.355 72.9561C174.917 72.3131 175.513 71.839 176.143 71.5336C176.773 71.2121 177.429 71.1558 178.11 71.3648C178.45 71.3327 178.731 71.3487 178.953 71.413C179.191 71.4612 179.387 71.5738 179.54 71.7506C179.693 71.9274 179.804 72.1765 179.872 72.498C179.94 72.8034 179.991 73.1972 180.026 73.6794C179.991 75.2385 180.034 76.5646 180.153 77.6576C180.289 78.7506 180.443 79.715 180.613 80.5508C180.783 81.3866 180.945 82.1421 181.098 82.8171C181.269 83.4922 181.371 84.1914 181.405 84.9147C181.405 85.1719 181.337 85.3728 181.201 85.5175C181.064 85.6461 180.911 85.7264 180.741 85.7586C180.57 85.8068 180.409 85.7988 180.255 85.7345C180.119 85.6702 180.043 85.5737 180.026 85.4451ZM178.544 73.2695C178.135 72.7552 177.693 72.5382 177.216 72.6185C176.739 72.6989 176.262 72.9802 175.785 73.4624C175.326 73.9285 174.883 74.5473 174.457 75.3189C174.032 76.0743 173.665 76.886 173.359 77.754C173.052 78.622 172.822 79.4899 172.669 80.3579C172.533 81.2098 172.507 81.9652 172.593 82.6243C172.831 83.3476 173.12 83.7815 173.461 83.9262C173.802 84.0709 174.168 84.0226 174.559 83.7815C174.951 83.5244 175.351 83.1225 175.76 82.576C176.169 82.0295 176.56 81.4429 176.935 80.816C177.309 80.1731 177.642 79.5382 177.931 78.9113C178.238 78.2684 178.484 77.7299 178.672 77.2959L178.544 73.2695Z" fill="#150333"/>
<path d="M182.58 79.5864C182.614 81.1294 182.656 83.01 182.708 85.2282C182.776 85.405 182.895 85.5416 183.065 85.638C183.252 85.7184 183.431 85.7505 183.602 85.7345C183.789 85.7345 183.951 85.6943 184.087 85.6139C184.24 85.5175 184.325 85.3809 184.342 85.204C184.359 84.6736 184.351 84.0548 184.317 83.3476C184.3 82.6403 184.3 81.8929 184.317 81.1053C184.351 80.3177 184.427 79.5301 184.547 78.7425C184.683 77.9388 184.93 77.1754 185.287 76.4521C185.526 75.9538 185.849 75.4796 186.258 75.0295C186.684 74.5795 187.169 74.1937 187.714 73.8723C188.276 73.5347 188.889 73.2856 189.553 73.1248C190.234 72.948 190.958 72.8837 191.724 72.932C191.877 72.8677 191.997 72.7712 192.082 72.6426C192.184 72.498 192.226 72.3533 192.209 72.2087C192.209 72.0479 192.15 71.9033 192.031 71.7747C191.928 71.6461 191.767 71.5577 191.545 71.5095C190.881 71.3969 190.158 71.405 189.374 71.5336C188.608 71.6622 187.867 71.9434 187.152 72.3774C186.437 72.7953 185.79 73.374 185.211 74.1134C184.649 74.8527 184.24 75.777 183.985 76.886L183.908 71.3407C183.84 71.196 183.729 71.0916 183.576 71.0273C183.423 70.963 183.261 70.9469 183.091 70.979C182.937 70.9951 182.793 71.0514 182.656 71.1478C182.52 71.2443 182.444 71.3648 182.427 71.5095V72.1122C182.444 72.3855 182.452 72.8114 182.452 73.3901C182.469 73.9526 182.486 74.7402 182.503 75.7529C182.52 76.7655 182.546 78.0433 182.58 79.5864Z" fill="#150333"/>
<path d="M199.334 54.0982C198.206 51.1765 183.712 54.4458 166.96 61.4004C150.208 68.3551 137.542 76.3614 138.67 79.2832" stroke="url(#paint3_linear_4070_366)" stroke-width="2.42271"/>
<path d="M170.892 48.1564C172.063 47.3789 173.734 45.6988 174.585 42.9384H177.103V48.0631H180.698V49.6006H177.103V59.6793C177.103 60.9092 177.244 61.7633 177.527 62.2416C177.811 62.6972 178.236 62.9249 178.802 62.9249C179.412 62.9249 180.022 62.7769 180.633 62.4808C180.872 62.3441 181.123 62.1847 181.384 62.0025L181.842 62.9591C181.559 63.2096 181.221 63.4602 180.829 63.7107C179.913 64.2118 178.835 64.4624 177.593 64.4624C176.089 64.4624 174.924 64.041 174.096 63.1983C173.268 62.3327 172.854 61.0914 172.854 59.4743V49.6006H170.892V48.1564Z" fill="#150333"/>
<path fill-rule="evenodd" clip-rule="evenodd" d="M154.281 64.2574C152.908 64.2574 151.666 63.9613 150.555 63.3691C149.444 62.7541 148.539 61.5697 147.842 59.8159L147.09 57.9027H138.396L135.716 64.1207H134.016L143.658 41.5718H145.129L152.451 59.8159C153.279 61.9341 154.412 63.073 155.85 63.2324V64.0865C155.458 64.2004 154.935 64.2574 154.281 64.2574ZM139.082 56.3652H146.469L142.874 47.4482L139.082 56.3652Z" fill="#150333"/>
<path d="M162.402 64.4624C159.852 64.4624 158.098 63.9954 157.14 63.0616C156.791 62.7199 156.573 62.2416 156.486 61.6267C156.399 60.9889 156.355 60.112 156.355 58.996H157.499C157.695 60.1803 158.142 61.137 158.839 61.8658C159.536 62.5719 160.506 62.9249 161.748 62.9249C163.927 62.9249 165.017 62.1505 165.017 60.6017C165.017 60.0095 164.777 59.5198 164.298 59.1326C163.84 58.7454 163.099 58.3127 162.075 57.8343L160.375 57.0827C158.981 56.445 157.935 55.7503 157.238 54.9986C156.54 54.247 156.192 53.3359 156.192 52.2654C156.192 50.8305 156.758 49.7144 157.891 48.9173C159.046 48.1201 160.55 47.7215 162.402 47.7215C164.951 47.7215 166.705 48.1884 167.664 49.1223C168.013 49.4639 168.231 49.9422 168.318 50.5572C168.405 51.1722 168.449 52.0491 168.449 53.1879H167.305C167.108 52.0035 166.662 51.0583 165.964 50.3522C165.267 49.6233 164.298 49.2589 163.056 49.2589C162.119 49.2589 161.421 49.4753 160.964 49.908C160.506 50.318 160.277 50.8761 160.277 51.5821C160.277 52.1516 160.463 52.6299 160.833 53.0171C161.225 53.3815 161.813 53.7459 162.598 54.1104L164.559 54.9645C166.171 55.6706 167.326 56.388 168.024 57.1169C168.743 57.823 169.102 58.7568 169.102 59.9184C169.102 61.3761 168.481 62.5036 167.239 63.3007C166.019 64.0752 164.406 64.4624 162.402 64.4624Z" fill="#150333"/>
<path d="M194.214 48.4048C194.606 48.7009 194.889 49.0311 195.063 49.3956C195.238 49.7372 195.325 49.9194 195.325 49.9422L193.658 51.2747C193.505 51.0697 193.309 50.8533 193.07 50.6255C192.59 50.17 192.035 49.9422 191.403 49.9422C190.139 49.9422 189.169 50.2953 188.494 51.0013L188.559 51.5138C188.603 51.9238 188.624 52.2996 188.624 52.6413V64.1207H184.375V52.5046C184.375 51.343 184.223 50.4889 183.918 49.9422C183.635 49.3728 183.035 49.0881 182.12 49.0881H181.793V48.0631H185.029C185.77 48.0631 186.347 48.1656 186.761 48.3706C187.197 48.5528 187.535 48.8717 187.775 49.3272C188.951 48.2567 190.324 47.7215 191.893 47.7215C192.83 47.7215 193.603 47.9493 194.214 48.4048Z" fill="#150333"/>
<path fill-rule="evenodd" clip-rule="evenodd" d="M199.972 63.3691C201.17 64.0979 202.565 64.4624 204.156 64.4624C205.746 64.4624 207.13 64.0979 208.307 63.3691C209.505 62.6175 210.42 61.6153 211.052 60.3626C211.684 59.0871 212 57.6635 212 56.0919C212 54.5203 211.684 53.1082 211.052 51.8555C210.42 50.58 209.505 49.5778 208.307 48.8489C207.13 48.0973 205.746 47.7215 204.156 47.7215C202.565 47.7215 201.17 48.0973 199.972 48.8489C198.795 49.5778 197.891 50.58 197.259 51.8555C196.627 53.1082 196.311 54.5203 196.311 56.0919C196.311 57.6635 196.627 59.0871 197.259 60.3626C197.891 61.6153 198.795 62.6175 199.972 63.3691ZM206.705 61.0459C206.117 62.2986 205.267 62.9249 204.156 62.9249C203.044 62.9249 202.195 62.2986 201.606 61.0459C201.018 59.7931 200.724 58.1418 200.724 56.0919C200.724 54.042 201.018 52.3907 201.606 51.138C202.195 49.8853 203.044 49.2589 204.156 49.2589C205.267 49.2589 206.117 49.8853 206.705 51.138C207.293 52.3907 207.588 54.042 207.588 56.0919C207.588 58.1418 207.293 59.7931 206.705 61.0459Z" fill="#150333"/>
<path d="M199.334 54.0982C200.462 57.0199 187.796 65.0263 171.044 71.9809C154.292 78.9356 139.797 82.2049 138.67 79.2832" stroke="#150333" stroke-width="2.42271"/>
</g>
<defs>
<linearGradient id="paint0_linear_4070_366" x1="88.2922" y1="55.7159" x2="88.2922" y2="73.4291" gradientUnits="userSpaceOnUse">
<stop stop-color="#45DEFF"/>
<stop offset="1" stop-color="#45DEFF" stop-opacity="0.27"/>
</linearGradient>
<linearGradient id="paint1_linear_4070_366" x1="108.836" y1="38.0277" x2="117.648" y2="92.1368" gradientUnits="userSpaceOnUse">
<stop stop-color="#00FDFE"/>
<stop offset="1" stop-color="#0266EF"/>
</linearGradient>
<linearGradient id="paint2_linear_4070_366" x1="80.1721" y1="74.6935" x2="81.4506" y2="90.8064" gradientUnits="userSpaceOnUse">
<stop stop-color="#00FDFE"/>
<stop offset="1" stop-color="#0266EF"/>
</linearGradient>
<linearGradient id="paint3_linear_4070_366" x1="169.109" y1="67.8452" x2="166.43" y2="60.5361" gradientUnits="userSpaceOnUse">
<stop stop-color="#0F0226"/>
<stop offset="1" stop-color="#19043C" stop-opacity="0"/>
</linearGradient>
</defs>
</svg>
