<svg width="282" height="126" viewBox="0 0 282 126" fill="none" xmlns="http://www.w3.org/2000/svg">
<mask id="mask0_4069_359" style="mask-type:alpha" maskUnits="userSpaceOnUse" x="0" y="0" width="282" height="126">
<rect width="282" height="126" fill="#D9D9D9"/>
</mask>
<g mask="url(#mask0_4069_359)">
<path d="M87 64.18V73H81.24V47.8C82.608 47.8 84.12 47.788 85.776 47.764C87.432 47.74 88.776 47.728 89.808 47.728C96.024 47.728 99.132 50.416 99.132 55.792C99.132 59.248 97.716 61.672 94.884 63.064L102.228 73H95.244L89.124 64.18H87ZM89.52 53.128C89.496 53.128 89.388 53.14 89.196 53.164C89.004 53.164 88.704 53.176 88.296 53.2C87.888 53.2 87.456 53.2 87 53.2V58.78H89.088C91.704 58.78 93.012 57.808 93.012 55.864C93.012 54.04 91.848 53.128 89.52 53.128ZM114.389 67.78L115.865 71.596C114.233 72.82 112.133 73.432 109.565 73.432C106.925 73.432 104.789 72.652 103.157 71.092C101.573 69.532 100.781 67.468 100.781 64.9C100.781 62.452 101.585 60.424 103.193 58.816C104.825 57.184 106.949 56.368 109.565 56.368C111.701 56.368 113.549 57.088 115.109 58.528C116.645 59.92 117.413 61.744 117.413 64C117.413 65.08 117.305 65.98 117.089 66.7H106.361C106.841 68.188 108.101 68.932 110.141 68.932C111.725 68.932 113.141 68.548 114.389 67.78ZM109.385 60.868C107.801 60.868 106.733 61.612 106.181 63.1H112.013C112.013 62.476 111.773 61.948 111.293 61.516C110.813 61.084 110.177 60.868 109.385 60.868ZM117.043 75.088C117.043 73.768 117.511 72.676 118.447 71.812C119.383 70.948 120.703 70.336 122.407 69.976C122.263 69.688 122.191 69.388 122.191 69.076C122.191 68.692 122.275 68.38 122.443 68.14C121.195 67.636 120.211 66.892 119.491 65.908C118.795 64.9 118.447 63.796 118.447 62.596C118.447 60.892 119.095 59.428 120.391 58.204C121.735 56.98 123.475 56.368 125.611 56.368C127.195 56.368 128.575 56.728 129.751 57.448L134.827 56.44L135.007 60.76L132.595 61.228C132.715 61.828 132.775 62.284 132.775 62.596C132.775 64.204 132.163 65.596 130.939 66.772C129.739 67.948 128.155 68.584 126.187 68.68C126.163 68.752 126.151 68.884 126.151 69.076C126.151 69.268 126.187 69.472 126.259 69.688C128.611 69.76 130.531 70.252 132.019 71.164C133.507 72.076 134.251 73.384 134.251 75.088C134.251 76.888 133.447 78.232 131.839 79.12C130.207 80.032 128.143 80.488 125.647 80.488C123.103 80.488 121.027 80.044 119.419 79.156C117.835 78.268 117.043 76.912 117.043 75.088ZM122.083 75.088C122.083 75.808 123.271 76.168 125.647 76.168C128.023 76.168 129.211 75.808 129.211 75.088C129.211 74.344 128.023 73.972 125.647 73.972C123.271 73.972 122.083 74.344 122.083 75.088ZM125.611 64.36C126.259 64.36 126.775 64.204 127.159 63.892C127.543 63.58 127.735 63.148 127.735 62.596C127.735 62.02 127.543 61.564 127.159 61.228C126.799 60.868 126.283 60.688 125.611 60.688C124.747 60.664 124.123 60.976 123.739 61.624C123.379 62.272 123.379 62.908 123.739 63.532C124.099 64.156 124.723 64.432 125.611 64.36ZM137.632 71.02C136 69.388 135.184 67.348 135.184 64.9C135.184 62.452 136 60.412 137.632 58.78C139.264 57.172 141.448 56.368 144.184 56.368C146.92 56.368 149.092 57.172 150.7 58.78C152.356 60.388 153.184 62.428 153.184 64.9C153.184 67.372 152.356 69.412 150.7 71.02C149.092 72.628 146.92 73.432 144.184 73.432C141.448 73.432 139.264 72.628 137.632 71.02ZM140.944 64.9C140.944 65.908 141.244 66.748 141.844 67.42C142.468 68.068 143.248 68.392 144.184 68.392C145.144 68.392 145.924 68.08 146.524 67.456C147.124 66.808 147.424 65.956 147.424 64.9C147.424 63.892 147.112 63.064 146.488 62.416C145.888 61.744 145.12 61.408 144.184 61.408C143.248 61.408 142.468 61.732 141.844 62.38C141.244 63.004 140.944 63.844 140.944 64.9ZM155.148 68.356V47.8H160.548V66.304C160.548 67.696 160.848 68.392 161.448 68.392C161.784 68.392 162.252 68.2 162.852 67.816L163.932 71.92C162.708 72.928 161.124 73.432 159.18 73.432C156.492 73.432 155.148 71.74 155.148 68.356ZM171.046 73H165.646V56.8H171.046V73ZM165.178 51.22C165.178 50.308 165.49 49.576 166.114 49.024C166.738 48.448 167.518 48.16 168.454 48.16C169.294 48.16 170.014 48.448 170.614 49.024C171.214 49.6 171.514 50.332 171.514 51.22C171.514 52.204 171.214 52.996 170.614 53.596C170.014 54.196 169.294 54.496 168.454 54.496C167.494 54.496 166.702 54.208 166.078 53.632C165.478 53.032 165.178 52.228 165.178 51.22ZM174.038 66.844V52.3H179.438V56.8H183.938V61.84H179.438V66.592C179.438 67.792 179.786 68.392 180.482 68.392C181.25 68.392 182.054 68.08 182.894 67.456L184.514 71.596C183.122 72.82 181.31 73.432 179.078 73.432C177.326 73.432 176.042 72.892 175.226 71.812C174.434 70.708 174.038 69.052 174.038 66.844ZM191.902 73H186.502V47.8H191.902V57.916C192.934 56.98 194.266 56.512 195.898 56.512C197.986 56.512 199.606 57.1 200.758 58.276C201.91 59.428 202.486 61.168 202.486 63.496V73H197.086V64.18C197.086 63.388 196.846 62.752 196.366 62.272C195.886 61.792 195.262 61.552 194.494 61.552C193.462 61.552 192.598 61.9 191.902 62.596V73Z" fill="#00222E"/>
</g>
</svg>
