<svg width="864" height="338" fill="none" xmlns="http://www.w3.org/2000/svg"><g opacity=".36" filter="url(#a)"><path d="M0 32C0 14.327 14.327 0 32 0h8c17.673 0 32 14.327 32 32v137h72V32c0-17.673 14.327-32 32-32h8c17.673 0 32 14.327 32 32v274c0 17.673-14.327 32-32 32h-8c-17.673 0-32-14.327-32-32v-65H32c-17.673 0-32-14.327-32-32V32Z" fill="#EAF1F4"/></g><g opacity=".36" filter="url(#b)"><path d="M648 32c0-17.673 14.327-32 32-32h8c17.673 0 32 14.327 32 32v137h72V32c0-17.673 14.327-32 32-32h8c17.673 0 32 14.327 32 32v274c0 17.673-14.327 32-32 32h-8c-17.673 0-32-14.327-32-32v-65H680c-17.673 0-32-14.327-32-32V32Z" fill="#EAF1F4"/></g><g opacity=".36" filter="url(#c)"><path fill-rule="evenodd" clip-rule="evenodd" d="M320 0c-17.673 0-32 14.327-32 32v274c0 17.673 14.327 32 32 32h224c17.673 0 32-14.327 32-32V32c0-17.673-14.327-32-32-32H320Zm184 88c0-8.837-7.163-16-16-16H376c-8.837 0-16 7.163-16 16v162c0 8.837 7.163 16 16 16h112c8.837 0 16-7.163 16-16V88Z" fill="#EAF1F4"/></g><defs><filter id="a" x="0" y="0" width="217" height="339" filterUnits="userSpaceOnUse" color-interpolation-filters="sRGB"><feFlood flood-opacity="0" result="BackgroundImageFix"/><feBlend in="SourceGraphic" in2="BackgroundImageFix" result="shape"/><feColorMatrix in="SourceAlpha" values="0 0 0 0 0 0 0 0 0 0 0 0 0 0 0 0 0 0 127 0" result="hardAlpha"/><feOffset dx="1" dy="1"/><feGaussianBlur stdDeviation="4"/><feComposite in2="hardAlpha" operator="arithmetic" k2="-1" k3="1"/><feColorMatrix values="0 0 0 0 0 0 0 0 0 0.1495 0 0 0 0 0.2875 0 0 0 0.5 0"/><feBlend in2="shape" result="effect1_innerShadow_4030_50"/></filter><filter id="b" x="648" y="0" width="217" height="339" filterUnits="userSpaceOnUse" color-interpolation-filters="sRGB"><feFlood flood-opacity="0" result="BackgroundImageFix"/><feBlend in="SourceGraphic" in2="BackgroundImageFix" result="shape"/><feColorMatrix in="SourceAlpha" values="0 0 0 0 0 0 0 0 0 0 0 0 0 0 0 0 0 0 127 0" result="hardAlpha"/><feOffset dx="1" dy="1"/><feGaussianBlur stdDeviation="4"/><feComposite in2="hardAlpha" operator="arithmetic" k2="-1" k3="1"/><feColorMatrix values="0 0 0 0 0 0 0 0 0 0.1495 0 0 0 0 0.2875 0 0 0 0.5 0"/><feBlend in2="shape" result="effect1_innerShadow_4030_50"/></filter><filter id="c" x="288" y="0" width="289" height="339" filterUnits="userSpaceOnUse" color-interpolation-filters="sRGB"><feFlood flood-opacity="0" result="BackgroundImageFix"/><feBlend in="SourceGraphic" in2="BackgroundImageFix" result="shape"/><feColorMatrix in="SourceAlpha" values="0 0 0 0 0 0 0 0 0 0 0 0 0 0 0 0 0 0 127 0" result="hardAlpha"/><feOffset dx="1" dy="1"/><feGaussianBlur stdDeviation="4"/><feComposite in2="hardAlpha" operator="arithmetic" k2="-1" k3="1"/><feColorMatrix values="0 0 0 0 0 0 0 0 0 0.1495 0 0 0 0 0.2875 0 0 0 0.5 0"/><feBlend in2="shape" result="effect1_innerShadow_4030_50"/></filter></defs></svg>