<svg width="32" height="32" viewBox="0 0 32 32" fill="none" xmlns="http://www.w3.org/2000/svg">
<path fill-rule="evenodd" clip-rule="evenodd" d="M15.9801 22.9382C8.6799 22.9382 2.76172 19.8251 2.76172 15.9849C2.76172 12.1447 8.6799 9.03153 15.9801 9.03153C23.2802 9.03153 29.1984 12.1447 29.1984 15.9849C29.1984 19.8251 23.2802 22.9382 15.9801 22.9382ZM10.9559 16.467C10.6834 16.6767 10.2528 16.7831 9.67599 16.7831H8.92667L9.4377 14.1536H10.3595C10.8912 14.1536 11.2433 14.2451 11.4062 14.4255C11.5655 14.6022 11.6002 14.9295 11.5092 15.3983C11.4116 15.8999 11.2254 16.2595 10.9559 16.467ZM6.55035 19.97C6.57756 20.003 6.61819 20.0222 6.66098 20.0222H8.17898C8.24763 20.0222 8.30663 19.9735 8.31973 19.9061L8.65726 18.1696H9.83921C10.4257 18.1696 10.9171 18.1064 11.2997 17.9817C11.6885 17.8554 12.0465 17.6407 12.3628 17.3447C12.627 17.1018 12.8443 16.8296 13.0087 16.5353C13.173 16.2414 13.291 15.913 13.3597 15.5595C13.5284 14.6919 13.3952 14.0014 12.9637 13.5075C12.5345 13.0162 11.8517 12.7671 10.9343 12.7671H8.01538C7.94672 12.7671 7.88768 12.8158 7.87458 12.8831L6.52023 19.8514C6.51206 19.8934 6.5231 19.9369 6.55035 19.97ZM17.1077 18.1695C17.0648 18.1695 17.0243 18.1503 16.997 18.1173C16.9697 18.0842 16.9587 18.0408 16.9669 17.9987L17.566 14.9155C17.623 14.6223 17.6089 14.4118 17.5264 14.3229C17.476 14.2686 17.3243 14.1774 16.8759 14.1774H15.7905L15.0373 18.0534C15.0242 18.1208 14.9651 18.1695 14.8965 18.1695H13.3905C13.3477 18.1695 13.3071 18.1503 13.2798 18.1173C13.2526 18.0842 13.2415 18.0407 13.2497 17.9987L14.604 11.0304C14.6171 10.9631 14.6762 10.9144 14.7448 10.9144H16.2508C16.2937 10.9144 16.3343 10.9335 16.3615 10.9666C16.3888 10.9996 16.3998 11.0431 16.3916 11.0852L16.0648 12.767H17.2324C18.1219 12.767 18.7251 12.9238 19.0764 13.2464C19.4345 13.5756 19.5462 14.1018 19.4085 14.8107L18.7784 18.0534C18.7653 18.1208 18.7063 18.1695 18.6376 18.1695H17.1077ZM23.2625 16.4671C22.9901 16.6767 22.5595 16.7831 21.9826 16.7831H21.2333L21.7444 14.1536H22.6662C23.1978 14.1536 23.55 14.2451 23.7129 14.4255C23.8722 14.6022 23.9069 14.9296 23.8159 15.3984C23.7183 15.9 23.5321 16.2596 23.2625 16.4671ZM18.857 19.97C18.8843 20.0031 18.9249 20.0222 18.9677 20.0222H20.4856C20.5543 20.0222 20.6133 19.9735 20.6265 19.9061L20.9639 18.1696H22.1459C22.7323 18.1696 23.2237 18.1064 23.6063 17.9817C23.9951 17.8554 24.3531 17.6408 24.6694 17.3447C24.9337 17.1019 25.151 16.8296 25.3154 16.5353C25.4796 16.2414 25.5976 15.9131 25.6664 15.5596C25.8351 14.6918 25.7019 14.0014 25.2704 13.5076C24.8412 13.0162 24.1584 12.7671 23.241 12.7671H20.3221C20.2534 12.7671 20.1944 12.8158 20.1812 12.8832L18.8269 19.8514C18.8187 19.8935 18.8298 19.937 18.857 19.97Z" fill="#0B3948"/>
</svg>
