<svg width="32" height="32" viewBox="0 0 32 32" fill="none" xmlns="http://www.w3.org/2000/svg">
<path fill-rule="evenodd" clip-rule="evenodd" d="M15.9801 22.9382C8.6799 22.9382 2.76172 19.8251 2.76172 15.9849C2.76172 12.1447 8.6799 9.03153 15.9801 9.03153C23.2802 9.03153 29.1984 12.1447 29.1984 15.9849C29.1984 19.8251 23.2802 22.9382 15.9801 22.9382ZM10.9559 16.4671C10.6834 16.6768 10.2528 16.7832 9.67597 16.7832H8.92665L9.43769 14.1537H10.3595C10.8911 14.1537 11.2433 14.2452 11.4062 14.4256C11.5655 14.6023 11.6002 14.9296 11.5092 15.3984C11.4116 15.9 11.2254 16.2596 10.9559 16.4671ZM6.55034 19.9701C6.57754 20.0031 6.61818 20.0223 6.66097 20.0223H8.17896C8.24762 20.0223 8.30661 19.9736 8.31971 19.9062L8.65725 18.1697H9.83919C10.4257 18.1697 10.9171 18.1064 11.2997 17.9818C11.6885 17.8555 12.0465 17.6408 12.3628 17.3448C12.627 17.1019 12.8443 16.8297 13.0087 16.5354C13.1729 16.2415 13.291 15.9131 13.3597 15.5596C13.5284 14.692 13.3952 14.0015 12.9637 13.5076C12.5345 13.0163 11.8517 12.7672 10.9343 12.7672H8.01536C7.9467 12.7672 7.88766 12.8159 7.87456 12.8832L6.52022 19.8515C6.51204 19.8935 6.52308 19.937 6.55034 19.9701ZM17.1077 18.1697C17.0649 18.1697 17.0243 18.1506 16.9971 18.1175C16.9698 18.0844 16.9587 18.041 16.9669 17.9989L17.566 14.9157C17.623 14.6225 17.6089 14.4121 17.5265 14.3231C17.476 14.2688 17.3243 14.1776 16.8759 14.1776H15.7906L15.0373 18.0536C15.0242 18.121 14.9652 18.1697 14.8965 18.1697H13.3905C13.3477 18.1697 13.3071 18.1506 13.2799 18.1175C13.2526 18.0844 13.2416 18.0409 13.2497 17.9989L14.6041 11.0306C14.6172 10.9633 14.6762 10.9146 14.7449 10.9146H16.2509C16.2937 10.9146 16.3343 10.9337 16.3615 10.9668C16.3888 10.9998 16.3998 11.0433 16.3917 11.0854L16.0648 12.7672H17.2324C18.1219 12.7672 18.7251 12.924 19.0764 13.2467C19.4345 13.5758 19.5462 14.102 19.4085 14.8109L18.7784 18.0536C18.7653 18.121 18.7063 18.1697 18.6376 18.1697H17.1077ZM23.2626 16.4672C22.9901 16.6769 22.5595 16.7832 21.9827 16.7832H21.2333L21.7444 14.1537H22.6662C23.1978 14.1537 23.55 14.2452 23.7129 14.4257C23.8722 14.6023 23.9069 14.9297 23.8159 15.3985C23.7183 15.9001 23.5321 16.2597 23.2626 16.4672ZM18.8571 19.9701C18.8843 20.0032 18.9249 20.0223 18.9677 20.0223H20.4856C20.5543 20.0223 20.6133 19.9736 20.6265 19.9062L20.9639 18.1697H22.1459C22.7324 18.1697 23.2237 18.1065 23.6064 17.9819C23.9951 17.8555 24.3531 17.6409 24.6694 17.3448C24.9337 17.102 25.151 16.8297 25.3154 16.5354C25.4796 16.2415 25.5977 15.9132 25.6664 15.5597C25.8351 14.692 25.7019 14.0015 25.2704 13.5077C24.8412 13.0163 24.1584 12.7672 23.241 12.7672H20.3221C20.2534 12.7672 20.1944 12.8159 20.1812 12.8833L18.8269 19.8515C18.8187 19.8936 18.8298 19.9371 18.8571 19.9701Z" fill="white"/>
</svg>
