<svg width="32" height="32" viewBox="0 0 32 32" fill="none" xmlns="http://www.w3.org/2000/svg">
<path fill-rule="evenodd" clip-rule="evenodd" d="M5.59961 5.6001H26.3996V26.4001H5.59961V5.6001ZM21.5001 23.037C20.536 23.037 19.991 22.5342 19.572 21.8501L17.9836 22.7729C18.5574 23.9067 19.7301 24.7717 21.5453 24.7717C23.4018 24.7717 24.7842 23.8076 24.7842 22.0479C24.7842 20.4156 23.8465 19.6896 22.1858 18.9774L21.6972 18.7681C20.8586 18.4049 20.4954 18.1675 20.4954 17.5812C20.4954 17.1067 20.8583 16.7435 21.4308 16.7435C21.992 16.7435 22.3536 16.9803 22.6887 17.5812L24.2107 16.6039C23.5669 15.4714 22.6735 15.0389 21.4308 15.0389C19.6852 15.0389 18.5683 16.1549 18.5683 17.6208C18.5683 19.2121 19.5053 19.9649 20.9157 20.5658L21.4044 20.7754C22.2958 21.1654 22.8273 21.4028 22.8273 22.073C22.8273 22.6323 22.31 23.037 21.5001 23.037ZM13.9253 23.0248C13.2537 23.0248 12.9744 22.5642 12.6674 22.0195L11.0763 22.9827C11.5372 23.9582 12.4435 24.7681 14.0085 24.7681C15.7405 24.7681 16.9271 23.8469 16.9271 21.823V15.1505H14.9725V21.7966C14.9725 22.7736 14.5674 23.0248 13.9253 23.0248Z" fill="white"/>
</svg>
