<svg width="26" height="26" viewBox="0 0 26 26" fill="none" xmlns="http://www.w3.org/2000/svg">
<path fill-rule="evenodd" clip-rule="evenodd" d="M24.9928 10.6074C24.916 8.82933 24.407 7.19085 23.4658 5.69201C22.515 4.19317 21.1801 3.03879 19.4706 2.21955C17.7611 1.40962 15.8211 1 13.6699 1C11.1248 1 8.87755 1.50272 6.94718 2.51746C5.0072 3.5322 3.509 5.04034 2.45258 7.06051C1.39616 9.07137 0.915966 11.2498 1.012 13.5865C1.09844 15.7277 1.68427 17.692 2.7599 19.5074C3.83553 21.3134 5.42017 22.6819 7.5138 23.6129C9.60744 24.5345 12.066 25 14.8992 25C15.2353 25 15.5714 24.9907 15.8884 24.9814C16.1861 24.9628 16.4262 24.8417 16.599 24.6183C16.7815 24.3949 16.8391 24.1342 16.7815 23.8642L16.6759 23.3988C16.5798 22.9519 16.1669 22.654 15.6963 22.6726C15.3409 22.6912 14.976 22.7005 14.5918 22.7005C12.4694 22.7005 10.5678 22.3747 8.89676 21.7137C7.22569 21.0528 5.90036 20.0008 4.93037 18.5578C3.96038 17.1148 3.43217 15.5229 3.36495 13.7727C3.28811 11.9666 3.62425 10.2258 4.37335 8.55935C5.12245 6.88363 6.28451 5.5896 7.85954 4.66796C9.43457 3.75562 11.3842 3.29015 13.7083 3.29015C16.4358 3.29015 18.5966 3.97905 20.1813 5.35687C21.7563 6.72537 22.5918 8.43832 22.6687 10.4771C22.7167 11.6222 22.4958 12.7207 21.9964 13.782C21.7275 14.3499 21.401 14.8433 21.0264 15.2995C20.2101 16.1932 19.1921 16.668 17.9916 16.7611C17.934 16.668 17.8956 16.5656 17.8956 16.4259C17.886 16.2583 17.934 15.886 18.03 15.3274L19.3938 7.58185C19.4514 7.28394 19.3649 7.00466 19.1537 6.77192C18.952 6.52987 18.6735 6.40884 18.3565 6.40884H17.0216C16.5414 6.40884 16.1573 6.71606 16.0708 7.17223L15.946 7.79597C15.1777 6.66951 14.0252 6.10163 12.5078 6.10163C10.3661 6.10163 8.65666 7.07913 7.36014 9.03414C5.20888 12.3111 5.7563 19.6005 11.048 19.5912C12.3637 19.5912 13.5066 19.1164 14.4766 18.1854C14.6206 18.6416 14.8703 18.9953 15.2449 19.2374C15.485 19.3957 15.8115 19.4981 16.1957 19.5539C16.7239 19.647 22.6591 19.4236 24.599 13.8192C24.6375 13.7075 24.6471 13.6051 24.6471 13.4934C24.916 12.5811 25.0312 11.6129 24.9928 10.6074ZM15.0144 13.9775C14.7167 14.9457 14.3613 15.6811 13.9292 16.1839C13.6218 16.5469 13.3145 16.8076 12.9976 16.9752C12.5846 17.2079 12.1333 17.3196 11.6435 17.3196C10.9904 17.3196 10.443 17.0683 9.97239 16.5749C9.52101 16.0815 9.27131 15.2995 9.22329 14.2475C9.19448 13.4562 9.30972 12.5531 9.58823 11.5291C9.85714 10.5144 10.2989 9.72304 10.8944 9.17378C11.4994 8.62452 12.1621 8.34523 12.9016 8.34523C13.5834 8.34523 14.1597 8.59659 14.6303 9.0993C15.1008 9.60202 15.3505 10.3189 15.389 11.2591C15.4274 12.097 15.3025 13 15.0144 13.9775Z" fill="white"/>
</svg>
