<svg width="145" height="32" viewBox="0 0 145 32" fill="none" xmlns="http://www.w3.org/2000/svg">
<path d="M9.60925 9.3935H10.7695V13.6329H8.96963V11H1.04125V0.409H2.90063V9.3935H7.74988V0.409H9.60925V9.3935ZM12.0097 11V0.409H13.8691V8.53075L18.4208 0.409H20.5777V11H18.7183V2.87825L14.1666 11H12.0097ZM33.1572 5.65987C33.1572 6.95896 32.706 7.97046 31.8036 8.69437C30.9011 9.41829 29.8301 9.79017 28.5906 9.81V11H26.7312V9.81C25.9478 9.79017 25.2189 9.63646 24.5446 9.34887C23.8702 9.05137 23.305 8.58529 22.8488 7.95062C22.3926 7.30604 22.1646 6.54246 22.1646 5.65987C22.1646 4.37071 22.6009 3.35425 23.4736 2.6105C24.3561 1.86675 25.442 1.47504 26.7312 1.43537V0.409H28.5906V1.43537C29.8996 1.48496 30.9854 1.88162 31.8482 2.62537C32.7209 3.35921 33.1572 4.37071 33.1572 5.65987ZM31.2978 5.65987C31.2978 4.10296 30.3954 3.23029 28.5906 3.04187V8.2035C29.4632 8.09442 30.1326 7.8465 30.5987 7.45975C31.0648 7.073 31.2978 6.47304 31.2978 5.65987ZM26.7312 8.2035V3.04187C24.9264 3.23029 24.0239 4.10296 24.0239 5.65987C24.0239 6.47304 24.257 7.073 24.7231 7.45975C25.1891 7.8465 25.8585 8.09442 26.7312 8.2035ZM34.803 0.409H39.3993C40.5398 0.409 41.4372 0.681708 42.0917 1.22712C42.7561 1.76262 43.0883 2.56587 43.0883 3.63687C43.0883 4.64837 42.7809 5.45162 42.1661 6.04662C41.5513 6.63171 40.7133 6.92425 39.6522 6.92425H36.6623V11H34.803V0.409ZM36.6623 1.956V5.42187H39.2506C40.5993 5.42187 41.2736 4.84175 41.2736 3.6815C41.2736 2.53117 40.5447 1.956 39.087 1.956H36.6623ZM49.2614 0.156125C50.7588 0.156125 51.9736 0.671791 52.9057 1.70312C53.8478 2.72454 54.3189 4.05833 54.3189 5.7045C54.3189 7.35067 53.8478 8.68942 52.9057 9.72075C51.9636 10.7422 50.7389 11.2529 49.2316 11.2529C47.7144 11.2529 46.4847 10.7422 45.5426 9.72075C44.6104 8.69933 44.1444 7.36058 44.1444 5.7045C44.1444 4.098 44.6005 2.77412 45.5129 1.73287C46.4351 0.681708 47.6846 0.156125 49.2614 0.156125ZM49.2316 1.718C48.2598 1.718 47.4813 2.07996 46.8962 2.80388C46.3111 3.51787 46.0186 4.47483 46.0186 5.67475C46.0186 6.90442 46.3062 7.88121 46.8814 8.60512C47.4664 9.32904 48.2598 9.691 49.2614 9.691C50.2233 9.691 50.9918 9.32904 51.567 8.60512C52.1521 7.87129 52.4446 6.89946 52.4446 5.68962C52.4446 4.47979 52.1521 3.51787 51.567 2.80388C50.9918 2.07996 50.2134 1.718 49.2316 1.718ZM55.9814 0.409H60.8157C61.9264 0.409 62.7743 0.651958 63.3594 1.13787C63.9544 1.61387 64.2519 2.25846 64.2519 3.07162C64.2519 3.57737 64.113 4.03354 63.8354 4.44012C63.5577 4.83679 63.1908 5.12437 62.7346 5.30287C63.3494 5.45162 63.8354 5.74912 64.1924 6.19537C64.5494 6.64162 64.7279 7.20192 64.7279 7.87625C64.7279 8.80842 64.4155 9.56208 63.7907 10.1372C63.1759 10.7124 62.3727 11 61.381 11H55.9814V0.409ZM57.7961 1.91137V4.82687H60.3249C61.0389 4.82687 61.5644 4.71779 61.9016 4.49962C62.2388 4.27154 62.4074 3.89471 62.4074 3.36912C62.4074 2.77412 62.2289 2.38242 61.8719 2.194C61.5248 2.00558 61.0289 1.91137 60.3844 1.91137H57.7961ZM57.7961 6.16562V9.48275H60.5777C61.2917 9.48275 61.852 9.36375 62.2586 9.12575C62.6652 8.88775 62.8685 8.45637 62.8685 7.83162C62.8685 7.48454 62.804 7.19696 62.6751 6.96887C62.5561 6.73087 62.3776 6.55733 62.1396 6.44825C61.9115 6.33917 61.6735 6.26479 61.4256 6.22512C61.1777 6.18546 60.8852 6.16562 60.548 6.16562H57.7961ZM74.4874 7.71262C74.4874 8.76379 74.17 9.57696 73.5354 10.1521C72.9106 10.7174 72.0231 11 70.8728 11H66.4846V0.409H68.344V4.455H70.8728C72.033 4.455 72.9255 4.73762 73.5503 5.30287C74.175 5.86812 74.4874 6.67137 74.4874 7.71262ZM72.628 7.75725C72.628 7.20192 72.4644 6.76558 72.1371 6.44825C71.8099 6.13092 71.3537 5.97225 70.7686 5.97225H68.344V9.48275H70.7984C72.0181 9.48275 72.628 8.90758 72.628 7.75725ZM75.7369 0.409H77.5963V11H75.7369V0.409ZM87.421 0.409V1.97087H81.6346V4.78225H87.0045V6.28462H81.6346V9.40837H87.5102V11H79.7901V0.409H87.421Z" fill="#00222E"/>
<path d="M41.9962 28V17.409H43.8555V25.5307L48.4073 17.409H50.5642V28H48.7048V19.8782L44.153 28H41.9962ZM61.2991 17.409V28H59.4398V23.24H54.5905V28H52.7311V17.409H54.5905V21.6186H59.4398V17.409H61.2991ZM63.481 17.409H68.3154C69.426 17.409 70.2739 17.652 70.859 18.1379C71.454 18.6139 71.7515 19.2585 71.7515 20.0716C71.7515 20.5774 71.6127 21.0335 71.335 21.4401C71.0573 21.8368 70.6904 22.1244 70.2342 22.3029C70.8491 22.4516 71.335 22.7491 71.692 23.1954C72.049 23.6416 72.2275 24.2019 72.2275 24.8762C72.2275 25.8084 71.9151 26.5621 71.2904 27.1372C70.6755 27.7124 69.8723 28 68.8806 28H63.481V17.409ZM65.2957 18.9114V21.8269H67.8245C68.5385 21.8269 69.0641 21.7178 69.4012 21.4996C69.7384 21.2715 69.907 20.8947 69.907 20.3691C69.907 19.7741 69.7285 19.3824 69.3715 19.194C69.0244 19.0056 68.5286 18.9114 67.884 18.9114H65.2957ZM65.2957 23.1656V26.4827H68.0774C68.7914 26.4827 69.3517 26.3637 69.7582 26.1257C70.1648 25.8877 70.3681 25.4564 70.3681 24.8316C70.3681 24.4845 70.3037 24.197 70.1747 23.9689C70.0557 23.7309 69.8772 23.5573 69.6392 23.4482C69.4112 23.3392 69.1732 23.2648 68.9252 23.2251C68.6773 23.1855 68.3848 23.1656 68.0476 23.1656H65.2957ZM81.5854 17.409V18.9709H75.799V21.7822H81.1689V23.2846H75.799V26.4084H81.6746V28H73.9545V17.409H81.5854ZM92.4126 23.9689C92.3135 25.268 91.8474 26.3092 91.0144 27.0926C90.1913 27.8661 89.1203 28.2529 87.8014 28.2529C86.304 28.2529 85.1041 27.7471 84.2016 26.7356C83.2992 25.7241 82.848 24.3804 82.848 22.7045C82.848 21.693 83.0414 20.7757 83.4281 19.9526C83.8149 19.1196 84.395 18.4502 85.1685 17.9445C85.942 17.4288 86.8494 17.171 87.8906 17.171C89.0112 17.171 89.988 17.4834 90.821 18.1081C91.654 18.723 92.1548 19.6155 92.3234 20.7856H90.4789C90.35 20.151 90.0525 19.6551 89.5864 19.2981C89.1203 18.9312 88.5451 18.7477 87.8609 18.7477C87.1568 18.7477 86.5569 18.9461 86.061 19.3427C85.5751 19.7394 85.228 20.2303 85.0198 20.8154C84.8214 21.3905 84.7223 22.0202 84.7223 22.7045C84.7223 23.2202 84.7818 23.7061 84.9008 24.1622C85.0198 24.6184 85.1983 25.0399 85.4363 25.4266C85.6743 25.8035 85.9966 26.1059 86.4031 26.334C86.8196 26.5621 87.3006 26.6761 87.846 26.6761C89.4228 26.6761 90.3252 25.7737 90.5533 23.9689H92.4126ZM101.414 17.409V19.0155H98.0369V28H96.1775V19.0155H92.8009V17.409H101.414ZM102.6 28V17.409H104.46V25.5307L109.011 17.409H111.168V28H109.309V19.8782L104.757 28H102.6ZM121.859 26.3935H123.019V30.6329H121.219V28H113.291V17.409H115.15V26.3935H119.999V17.409H121.859V26.3935ZM124.259 28V17.409H126.118V25.5307L130.67 17.409H132.827V28H130.968V19.8782L126.416 28H124.259ZM134.994 28V17.409H136.853V25.5307L141.405 17.409H143.562V28H141.703V19.8782L137.151 28H134.994Z" fill="#00222E"/>
</svg>
