<svg width="32" height="32" fill="none" xmlns="http://www.w3.org/2000/svg"><path fill-rule="evenodd" clip-rule="evenodd" d="M15.98 22.938c-7.3 0-13.218-3.113-13.218-6.953 0-3.84 5.918-6.953 13.218-6.953s13.218 3.113 13.218 6.953c0 3.84-5.918 6.953-13.218 6.953Zm-5.024-6.47c-.273.209-.703.315-1.28.315h-.75l.512-2.63h.921c.532 0 .884.092 1.047.273.16.176.194.504.103.972-.097.502-.284.862-.553 1.07ZM6.55 19.97a.144.144 0 0 0 .111.052h1.518a.143.143 0 0 0 .14-.116l.338-1.736H9.84c.587 0 1.078-.064 1.46-.188a2.834 2.834 0 0 0 1.064-.637c.264-.243.481-.515.646-.81.164-.294.282-.622.35-.975.17-.868.036-1.559-.395-2.052-.43-.492-1.112-.74-2.03-.74H8.015a.143.143 0 0 0-.14.115L6.52 19.852a.143.143 0 0 0 .03.118Zm10.558-1.8a.143.143 0 0 1-.141-.171l.599-3.083c.057-.293.043-.504-.04-.593-.05-.054-.202-.145-.65-.145H15.79l-.754 3.876a.143.143 0 0 1-.14.116H13.39a.143.143 0 0 1-.14-.171l1.354-6.968a.143.143 0 0 1 .14-.116h1.507a.143.143 0 0 1 .14.17l-.326 1.682h1.167c.89 0 1.493.157 1.844.48.358.329.47.855.332 1.564l-.63 3.243a.143.143 0 0 1-.14.116h-1.53Zm6.155-1.703c-.273.21-.704.316-1.28.316h-.75l.511-2.63h.922c.532 0 .884.092 1.047.273.16.176.194.504.103.973-.098.501-.284.86-.553 1.068Zm-4.406 3.503a.143.143 0 0 0 .11.052h1.519a.144.144 0 0 0 .14-.116l.338-1.736h1.182c.586 0 1.078-.064 1.46-.188a2.835 2.835 0 0 0 1.063-.637c.265-.243.482-.515.646-.81.165-.294.283-.622.351-.975.17-.868.036-1.559-.396-2.052-.429-.492-1.112-.74-2.029-.74h-2.919a.144.144 0 0 0-.14.115l-1.355 6.969a.143.143 0 0 0 .03.118Z" fill="#fff"/></svg>