<svg width="32" height="32" fill="none" xmlns="http://www.w3.org/2000/svg"><path fill-rule="evenodd" clip-rule="evenodd" d="M5.6 5.6h20.8v20.8H5.6V5.6Zm15.9 17.437c-.964 0-1.509-.503-1.928-1.187l-1.588.923c.573 1.134 1.746 1.999 3.561 1.999 1.857 0 3.24-.964 3.24-2.724 0-1.632-.939-2.358-2.6-3.07l-.488-.21c-.838-.363-1.202-.6-1.202-1.187 0-.474.363-.837.936-.837.561 0 .923.236 1.258.837l1.522-.977c-.644-1.133-1.537-1.565-2.78-1.565-1.746 0-2.863 1.116-2.863 2.582 0 1.591.937 2.344 2.348 2.945l.488.21c.892.39 1.423.627 1.423 1.297 0 .56-.517.964-1.327.964Zm-7.575-.012c-.671 0-.95-.46-1.258-1.005l-1.59.963c.46.975 1.367 1.785 2.931 1.785 1.733 0 2.92-.921 2.92-2.945V15.15h-1.956v6.647c0 .977-.405 1.228-1.047 1.228Z" fill="#fff"/></svg>