<svg width="80" height="80" viewBox="0 0 80 80" fill="none" xmlns="http://www.w3.org/2000/svg">
<path fill-rule="evenodd" clip-rule="evenodd" d="M14 14H66V66H14V14ZM53.7512 57.5925C51.3411 57.5925 49.9783 56.3354 48.9309 54.6252L44.9599 56.9322C46.3945 59.7666 49.3263 61.9291 53.8643 61.9291C58.5055 61.9291 61.9614 59.519 61.9614 55.1196C61.9614 51.0388 59.6173 49.2238 55.4656 47.4434L54.244 46.9201C52.1475 46.0122 51.2395 45.4187 51.2395 43.9528C51.2395 42.7667 52.1466 41.8588 53.5779 41.8588C54.9811 41.8588 55.8849 42.4506 56.7226 43.9528L60.5277 41.5096C58.9182 38.6785 56.6847 37.5973 53.5779 37.5973C49.214 37.5973 46.4217 40.3871 46.4217 44.0519C46.4217 48.0303 48.7642 49.9122 52.2903 51.4144L53.5119 51.9385C55.7404 52.9133 57.0693 53.5068 57.0693 55.1823C57.0693 56.5806 55.7759 57.5925 53.7512 57.5925ZM34.8141 57.562C33.1353 57.562 32.437 56.4105 31.6694 55.0486L27.6918 57.4567C28.844 59.8954 31.1098 61.92 35.0221 61.92C39.3522 61.92 42.3186 59.6172 42.3186 54.5575V37.8762H37.4323V54.4915C37.4323 56.9338 36.4195 57.562 34.8141 57.562Z" fill="#0B3948"/>
</svg>
