<svg width="80" height="80" viewBox="0 0 80 80" fill="none" xmlns="http://www.w3.org/2000/svg">
<path d="M38.2543 35.3125L38.5917 29.463H38.5883C38.1885 29.5066 37.7903 29.5702 37.3955 29.654C35.2914 30.1232 33.3613 31.1667 31.8227 32.6666L36.6565 36.0661C36.9501 36.2788 37.3398 36.3307 37.6688 36.1565C37.9978 35.9824 38.2121 35.6742 38.229 35.3125H38.2543Z" fill="#0B3948"/>
<path d="M48.1378 32.685C46.3089 30.9082 43.9451 29.7762 41.4059 29.463L41.74 35.3058C41.745 35.6809 41.9644 36.0225 42.3069 36.1833C42.6494 36.3441 43.0543 36.2972 43.3496 36.0627L48.1378 32.685Z" fill="#0B3948"/>
<path d="M30.0685 34.8674C28.7236 37.0412 28.1458 39.5975 28.4264 42.1332L34.0987 40.5139V40.4971C34.448 40.4017 34.7213 40.122 34.8023 39.7687C34.8833 39.4153 34.7635 39.0452 34.4885 38.8074V38.7823L30.0685 34.8674Z" fill="#0B3948"/>
<path d="M51.5881 42.1131C51.8344 39.5794 51.2405 37.0357 49.8975 34.8671L49.9043 34.8805L45.5176 38.7773C45.2426 39.0184 45.1245 39.3852 45.2038 39.7385C45.2831 40.0919 45.553 40.3715 45.9073 40.467V40.4888L51.5881 42.1131Z" fill="#0B3948"/>
<path d="M40.9015 39.0871H39.0928L37.9691 40.4804L38.3521 42.222L39.9803 42.9974L41.605 42.222L42.0066 40.4804L40.9015 39.0871Z" fill="#0B3948"/>
<path d="M45.1144 43.8397C45.0553 43.8313 44.9625 43.8313 44.8866 43.8397L44.8798 43.8648C44.7206 43.874 44.566 43.921 44.429 44.0019C44.2919 44.0828 44.1764 44.1952 44.0923 44.3296C44.0081 44.464 43.9577 44.6166 43.9453 44.7744C43.9329 44.9321 43.9589 45.0906 44.0211 45.2363L46.2819 50.6688C48.455 49.2906 50.1202 47.2308 50.9638 44.8193L45.1144 43.8397Z" fill="#0B3948"/>
<path d="M35.8787 44.3136C35.6982 44.039 35.3928 43.8698 35.0621 43.8648L35.052 43.8799C34.9862 43.8732 34.9204 43.8732 34.8563 43.8799L29.0574 44.8562C29.9263 47.2425 31.5595 49.2772 33.7107 50.6454L35.958 45.2564V45.2346C36.0879 44.9332 36.0592 44.5882 35.8787 44.3136Z" fill="#0B3948"/>
<path d="M40.4883 46.3398C40.3284 46.2487 40.146 46.2035 39.9617 46.2093L39.9769 46.2411C39.6276 46.2495 39.3071 46.4337 39.1333 46.7351L36.2651 51.8544C38.3083 52.5444 40.5033 52.6566 42.6055 52.1793L43.7477 51.8444L40.8896 46.7251H40.8677C40.7797 46.5642 40.6483 46.4308 40.4883 46.3398Z" fill="#0B3948"/>
<path fill-rule="evenodd" clip-rule="evenodd" d="M38.4381 14.368C38.8716 14.1552 39.3438 14.0311 39.8266 14.0029H39.8098C40.4125 13.9788 41.0116 14.1048 41.5526 14.3697L60.3259 23.2502C61.3045 23.7141 62.0215 24.5966 62.2662 25.6482L66.8992 45.6449C67.1607 46.6932 66.9059 47.7985 66.2243 48.6358L53.2397 64.672C52.5547 65.4976 51.5222 66.0016 50.4323 66H29.5956C28.509 66.005 27.4781 65.5244 26.7915 64.6871L13.8002 48.6542C13.7293 48.5638 13.6618 48.47 13.5977 48.3729C13.0494 47.5691 12.8722 46.5861 13.0915 45.6483L17.6942 25.6683C17.9388 24.6167 18.6525 23.7342 19.6344 23.2703L38.4381 14.368ZM38.8937 22.0512C38.86 21.4081 39.3509 20.8572 39.9988 20.8119L40.014 20.8203C40.6636 20.8655 41.1528 21.4165 41.1191 22.0595V22.3945C41.087 22.7512 41.0364 23.1028 40.9639 23.4545C40.8552 24.1225 40.8123 24.7995 40.8357 25.4758C40.8795 25.7018 41.0128 25.9011 41.2035 26.0317C41.2045 26.055 41.2071 26.0932 41.2103 26.1399C41.2179 26.2514 41.2288 26.411 41.2288 26.5291C44.7854 26.8473 48.104 28.4382 50.5673 31.0004L50.9942 30.6989C51.2239 30.738 51.46 30.7125 51.6758 30.6252C52.2106 30.2133 52.7033 29.7528 53.1487 29.247C53.3793 28.9737 53.6255 28.7137 53.886 28.4683L54.1357 28.2707C54.2859 28.1204 54.4758 28.0153 54.6836 27.9676C54.8914 27.9199 55.1086 27.9315 55.31 28.0011C55.5116 28.0708 55.6892 28.1957 55.8222 28.3614C55.9553 28.527 56.0383 28.7267 56.0618 28.9373C56.0853 29.1479 56.0482 29.3608 55.9549 29.5513C55.8615 29.7419 55.7158 29.9023 55.5344 30.014L55.2881 30.2116C54.9883 30.4095 54.6774 30.5901 54.3567 30.7525C53.7662 31.0858 53.2044 31.4759 52.6864 31.918C52.5363 32.0939 52.4603 32.3216 52.4772 32.5511L52.079 32.9161C54.0711 35.8641 54.9032 39.4354 54.4175 42.9521L54.873 43.0861C54.9877 43.2887 55.1565 43.4562 55.3589 43.5684C56.0169 43.7442 56.6918 43.8548 57.3734 43.8983C57.7347 43.9056 58.0952 43.9335 58.4532 43.982L58.7805 44.0591C58.9882 44.0869 59.1841 44.1714 59.3461 44.3033C59.5082 44.4352 59.6302 44.6092 59.6984 44.8059C59.765 45.0028 59.7753 45.2142 59.7281 45.4166C59.6808 45.6189 59.578 45.8043 59.4309 45.952C59.2838 46.0998 59.0982 46.2041 58.8949 46.2533C58.6917 46.3026 58.4786 46.2949 58.2794 46.231H58.2575C58.2166 46.2213 58.1704 46.2122 58.1245 46.2032C58.0679 46.1921 58.012 46.1811 57.9673 46.1691C57.6248 46.0619 57.2874 45.9346 56.9584 45.7839C56.324 45.5495 55.6677 45.3418 54.9979 45.2146C54.7667 45.2079 54.5406 45.2899 54.3685 45.4457L53.8894 45.3619C52.8045 48.7447 50.51 51.6166 47.4393 53.4336C47.492 53.5875 47.5546 53.738 47.6266 53.8841C47.5632 53.9824 47.5204 54.0924 47.5007 54.2074C47.481 54.3225 47.4848 54.4403 47.5118 54.5539C47.802 55.1752 48.1361 55.768 48.5241 56.324C48.7426 56.6086 48.9442 56.9055 49.1282 57.2132L49.2749 57.5147C49.3801 57.6937 49.4333 57.8982 49.4285 58.1054C49.4237 58.3126 49.3612 58.5145 49.2479 58.6886C49.1335 58.8616 48.9731 58.9999 48.7844 59.0881C48.5957 59.1763 48.3861 59.2109 48.1789 59.1882C47.9716 59.1655 47.7746 59.0863 47.6099 58.9594C47.4451 58.8325 47.3189 58.6629 47.2453 58.4692L47.1052 58.1845C46.9764 57.85 46.8671 57.5083 46.7779 57.1613C46.5822 56.5132 46.3257 55.8852 46.0086 55.2857C45.8702 55.1015 45.6644 54.9759 45.4349 54.9424L45.2105 54.5154C41.8683 55.7719 38.1771 55.763 34.8411 54.4903L34.588 54.9475C34.4071 54.9757 34.2389 55.0574 34.1055 55.1819C33.8227 55.5182 33.6581 55.9982 33.4845 56.5047C33.4073 56.7296 33.3284 56.9597 33.2366 57.1848C33.1489 57.5297 33.0409 57.8714 32.9126 58.2063L32.7726 58.491C32.6997 58.6854 32.5739 58.8559 32.4092 58.9836C32.2445 59.1113 32.0473 59.1912 31.8396 59.2144C31.6324 59.2359 31.4232 59.2001 31.2352 59.111C31.0472 59.0219 30.8877 58.8829 30.7742 58.7095C30.6607 58.5361 30.5978 58.3349 30.5923 58.1282C30.5867 57.9215 30.6389 57.7173 30.7429 57.5381L30.8863 57.2367C31.0703 56.9279 31.2719 56.6299 31.4904 56.3441C31.8885 55.768 32.2293 55.1551 32.5077 54.5154C32.5364 54.2994 32.501 54.0817 32.4065 53.8857L32.6123 53.4587C29.5349 51.6552 27.2302 48.7932 26.1336 45.4155L25.6274 45.4992C25.4384 45.3653 25.2157 45.2866 24.9829 45.2732C24.3114 45.3988 23.6551 45.5913 23.0224 45.8425C22.6934 45.9832 22.356 46.1071 22.0135 46.2076L21.7098 46.2411H21.6878C21.4886 46.3058 21.2751 46.3142 21.0713 46.2654C20.8675 46.2166 20.6814 46.1125 20.5338 45.9648C20.3875 45.8163 20.2857 45.6304 20.2395 45.4278C20.1934 45.2253 20.2048 45.014 20.2725 44.8175C20.3402 44.621 20.4615 44.447 20.6229 44.3149C20.7843 44.1827 20.9795 44.0977 21.1867 44.0691H21.2205L21.5191 44.0021C21.8771 43.9536 22.2377 43.9257 22.5989 43.9184C23.2796 43.8737 23.9543 43.7632 24.6134 43.5885C24.8091 43.4662 24.9728 43.3005 25.0959 43.1062L25.5683 42.9722C25.0588 39.4538 25.8737 35.8718 27.8595 32.9144L27.4917 32.5795C27.4789 32.3486 27.4011 32.1258 27.2673 31.9365C26.7443 31.481 26.1808 31.0941 25.5835 30.7642C25.2629 30.6018 24.9519 30.4212 24.6522 30.2233L24.4194 30.0391C23.8862 29.659 23.7614 28.9238 24.1427 28.393C24.25 28.2616 24.3871 28.1573 24.5428 28.0886C24.6985 28.0199 24.8684 27.9888 25.0386 27.9978C25.3237 28.0112 25.597 28.1133 25.8197 28.2908L26.0694 28.4884C26.33 28.7337 26.5762 28.9937 26.8067 29.2671C27.2656 29.767 27.7725 30.2212 28.3201 30.6236C28.5243 30.7324 28.7639 30.7575 28.9866 30.6905L29.3915 30.9752C31.3672 28.8903 33.9266 27.4435 36.7375 26.8138C37.4056 26.6631 38.0839 26.5593 38.7672 26.5023L38.7925 26.0301C38.9679 25.876 39.0962 25.6751 39.1603 25.4523C39.1897 24.7749 39.1524 24.0963 39.0489 23.426C38.9781 23.076 38.9241 22.7227 38.8937 22.366V22.0512Z" fill="#0B3948"/>
</svg>
