<svg width="80" height="80" viewBox="0 0 80 80" fill="none" xmlns="http://www.w3.org/2000/svg">
<path fill-rule="evenodd" clip-rule="evenodd" d="M39.9501 57.3457C21.6997 57.3457 6.9043 49.5628 6.9043 39.9623C6.9043 30.362 21.6997 22.579 39.9501 22.579C58.2005 22.579 72.9961 30.362 72.9961 39.9623C72.9961 49.5628 58.2005 57.3457 39.9501 57.3457ZM27.3897 41.1678C26.7085 41.692 25.632 41.958 24.1899 41.958H22.3166L23.5942 35.3842H25.8988C27.2279 35.3842 28.1083 35.6129 28.5155 36.064C28.9137 36.5056 29.0004 37.324 28.7729 38.4961C28.529 39.75 28.0636 40.6489 27.3897 41.1678ZM16.3758 49.9251C16.4438 50.0079 16.5454 50.0557 16.6524 50.0557H20.4474C20.619 50.0557 20.7665 49.934 20.7993 49.7655L21.6431 45.4241H24.598C26.0642 45.4241 27.2926 45.2661 28.2492 44.9545C29.2211 44.6387 30.1161 44.1021 30.9069 43.362C31.5675 42.7548 32.1107 42.0741 32.5218 41.3385C32.9324 40.6036 33.2276 39.7829 33.3992 38.8991C33.821 36.7299 33.4879 35.0038 32.4092 33.769C31.3362 32.5407 29.6292 31.918 27.3358 31.918H20.0384C19.8668 31.918 19.7192 32.0397 19.6864 32.2081L16.3005 49.6287C16.2801 49.7338 16.3077 49.8426 16.3758 49.9251ZM42.7693 45.424C42.6622 45.424 42.5607 45.3762 42.4927 45.2935C42.4245 45.2109 42.3968 45.1022 42.4173 44.997L43.915 37.2891C44.0575 36.5561 44.0224 36.0299 43.8162 35.8076C43.69 35.6717 43.3108 35.4438 42.1898 35.4438H39.4764L37.5933 45.1338C37.5606 45.3023 37.413 45.424 37.2413 45.424H33.4763C33.3692 45.424 33.2678 45.3762 33.1996 45.2935C33.1315 45.2109 33.1039 45.1021 33.1243 44.997L36.5102 27.5764C36.5429 27.408 36.6906 27.2863 36.8622 27.2863H40.6272C40.7343 27.2863 40.8357 27.3341 40.9039 27.4167C40.972 27.4994 40.9996 27.6081 40.9792 27.7132L40.1621 31.9178H43.0811C45.3049 31.9178 46.8128 32.3099 47.691 33.1164C48.5862 33.9392 48.8656 35.2548 48.5213 37.0271L46.946 45.1338C46.9133 45.3023 46.7658 45.424 46.594 45.424H42.7693ZM58.1564 41.1678C57.4752 41.6921 56.3987 41.958 54.9566 41.958H53.0833L54.3609 35.3842H56.6655C57.9945 35.3842 58.875 35.613 59.2822 36.0641C59.6805 36.5057 59.7672 37.3241 59.5397 38.4961C59.2957 39.7502 58.8303 40.6491 58.1564 41.1678ZM47.1427 49.9252C47.2107 50.0079 47.3123 50.0557 47.4192 50.0557H51.2141C51.3859 50.0557 51.5334 49.934 51.5662 49.7655L52.4097 45.4242H55.3647C56.8309 45.4242 58.0593 45.2662 59.0159 44.9546C59.9878 44.6388 60.8828 44.1021 61.6736 43.362C62.3342 42.7549 62.8774 42.0742 63.2885 41.3385C63.699 40.6037 63.9942 39.7829 64.166 38.8992C64.5877 36.7298 64.2547 35.0038 63.176 33.7691C62.1029 32.5407 60.396 31.918 58.1025 31.918H50.8052C50.6335 31.918 50.486 32.0397 50.4531 32.2081L47.0672 49.6288C47.0468 49.7338 47.0745 49.8426 47.1427 49.9252Z" fill="#0B3948"/>
</svg>
