<svg width="80" height="80" viewBox="0 0 80 80" fill="none" xmlns="http://www.w3.org/2000/svg">
<path d="M71.9752 35.2029C70.4305 34.1454 66.3723 33.6945 63.422 34.5023C63.2633 31.5129 61.7475 28.9935 58.9746 26.7968L57.9488 26.0962L57.2647 27.147C55.9206 29.2222 55.3541 31.9885 55.5538 34.5033C55.7125 36.0526 56.2417 37.7936 57.2647 39.0571C53.4239 41.3232 49.8847 40.8086 34.2081 40.8086H10.0054C9.93451 44.4094 10.5039 51.3346 14.8337 56.9726C15.3115 57.5953 15.8361 58.1982 16.4054 58.7782C19.926 62.3637 25.2452 64.9933 33.1992 65C45.3327 65.0114 55.7293 58.3396 62.0537 42.2098C64.135 42.2449 69.6278 42.5886 72.3159 37.3057C72.3812 37.2164 73 35.9045 73 35.9045L71.9752 35.2039V35.2029ZM25.8005 31.4873H18.9945V38.4097H25.8005V31.4873ZM34.5936 31.4873H27.7876V38.4097H34.5936V31.4873ZM43.3867 31.4873H36.5807V38.4097H43.3867V31.4873ZM52.1798 31.4873H45.3738V38.4097H52.1798V31.4873ZM17.0093 31.4873H10.2015V38.4097H17.0074V31.4873H17.0093ZM25.8024 22.7432H18.9964V29.6656H25.8024V22.7432ZM34.5955 22.7432H27.7895V29.6656H34.5955V22.7432ZM43.3886 22.7432H36.5826V29.6656H43.3886V22.7432ZM43.3858 14H36.5798V20.9224H43.3858V14Z" fill="#0B3948"/>
</svg>
