<svg width="80" height="80" viewBox="0 0 80 80" fill="none" xmlns="http://www.w3.org/2000/svg">
<g clip-path="url(#clip0_4046_125)">
<path d="M34.3241 45.3921C33.2716 51.1652 31.884 55.3652 30.1612 57.9746C28.8186 59.9915 27.3481 61 25.7469 61C25.3196 61 24.7938 60.87 24.1686 60.6118V59.2189C24.4734 59.2654 24.8316 59.2886 25.2432 59.2886C25.9899 59.2886 26.5921 59.0806 27.0507 58.6636C27.5995 58.1557 27.8739 57.5855 27.8739 56.9531C27.8739 56.5214 27.6594 55.6345 27.233 54.2936L24.397 45.3884H26.9356L28.9706 52.0492C29.4282 53.561 29.6188 54.6168 29.5424 55.2185C30.6565 52.2117 31.4337 48.9356 31.8757 45.3939H34.3232M23.117 56.9086H20.5333C20.4421 52.4977 20.1908 48.3515 19.7782 44.4653H19.7571L15.8225 56.9086H13.8538L9.94318 44.4653H9.92016C9.63011 48.1965 9.4478 52.3427 9.37137 56.9086H7.01505C7.16698 51.3574 7.54911 46.1554 8.15776 41.2988H11.3603L15.0886 52.767H15.1116L18.863 41.2988H21.9274C22.5977 46.9874 22.9946 52.1913 23.1152 56.9086" fill="#0B3948"/>
<path d="M68.7248 56.9067H61.3832V41.297H63.8537V54.9845H68.7248V56.9049M50.2628 53.782C49.6366 52.7643 49.3245 51.1318 49.3245 48.8799C49.3245 44.9492 50.5068 42.9824 52.8695 42.9824C54.1052 42.9824 55.0122 43.4532 55.5914 44.3929C56.2157 45.4107 56.5288 47.0302 56.5288 49.2504C56.5288 53.2128 55.3465 55.1953 52.9837 55.1953C51.7489 55.1953 50.841 54.7255 50.2628 53.7839M59.4569 57.2828L56.619 55.8676C56.8713 55.6578 57.1117 55.4312 57.328 55.1712C58.5343 53.7384 59.1365 51.6184 59.1365 48.8112C59.1365 43.6464 57.131 41.063 53.1209 41.063C51.1541 41.063 49.621 41.7177 48.5234 43.0298C47.3171 44.4635 46.7158 46.577 46.7158 49.3665C46.7158 52.1105 47.2499 54.1237 48.3162 55.4024C49.2886 56.5585 50.7591 57.137 52.7287 57.137C53.4635 57.137 54.1375 57.046 54.7498 56.8631L58.445 59.0379L59.4523 57.2828M45.6403 52.5795C45.6403 53.9037 45.1597 54.9901 44.2002 55.8407C43.2407 56.6867 41.9507 57.112 40.3365 57.112C38.8264 57.112 37.3624 56.6226 35.9443 55.6541L36.6082 54.3132C37.8283 54.9298 38.9323 55.2371 39.9231 55.2371C40.8531 55.2371 41.5805 55.0282 42.1072 54.615C42.6321 54.198 42.9479 53.6176 42.9479 52.8813C42.9479 51.9545 42.308 51.1624 41.1358 50.4976C40.0495 49.8863 38.9672 49.2679 37.8891 48.6422C36.7169 47.7768 36.1285 46.8491 36.1285 45.3206C36.1285 44.0559 36.5668 43.0335 37.4425 42.2562C38.32 41.4762 39.4526 41.0862 40.8393 41.0862C42.273 41.0862 43.5759 41.4734 44.7499 42.2451L44.1533 43.5851C43.1496 43.1542 42.1588 42.9378 41.1818 42.9378C40.39 42.9378 39.7785 43.131 39.3531 43.5173C38.925 43.9008 38.6607 44.3948 38.6607 44.9965C38.6607 45.9214 39.3145 46.7237 40.5198 47.4016C41.6155 48.0024 43.8337 49.2811 43.8337 49.2811C45.04 50.1447 45.6413 51.0649 45.6413 52.5813M70.4835 56.9067H70.8933V55.3188H71.4282V54.9938H69.9273V55.3188H70.4835V56.9067ZM73.5986 56.9067H73.9844V54.9938H73.4043L72.9319 56.2976L72.4172 54.9938H71.8582V56.9067H72.2238V55.4507H72.2441L72.7827 56.9067H73.0608L73.5986 55.4507V56.9067Z" fill="#0B3948"/>
<path d="M48.1909 15.0092C47.5381 14.9999 46.969 15.2478 46.6753 15.9768C46.1716 17.2035 47.4212 18.4097 47.8512 19.0328C48.1679 19.4665 48.5786 19.9577 48.8014 20.4471C48.9322 20.7674 48.9699 21.1082 49.1007 21.4472C49.399 22.2773 49.678 23.2013 50.0703 23.9757C50.2747 24.3722 50.4985 24.7873 50.76 25.1439C50.9101 25.3528 51.1707 25.4457 51.2268 25.7865C50.9662 26.1626 50.946 26.729 50.7977 27.2017C50.1255 29.3328 50.3871 31.9738 51.3382 33.5394C51.6366 34.0102 52.3456 35.0483 53.2977 34.6518C54.1375 34.3129 53.9515 33.2376 54.1927 32.2951C54.2489 32.0666 54.2111 31.9171 54.3235 31.7657V31.8048C54.5841 32.3322 54.8465 32.8401 55.0887 33.3704C55.6678 34.2934 56.6743 35.2554 57.514 35.8962C57.9606 36.237 58.3151 36.821 58.875 37.029V36.9715H58.8381C58.7258 36.8025 58.5582 36.7263 58.4091 36.5954C58.073 36.2555 57.701 35.8404 57.4395 35.4625C56.6568 34.4076 55.9653 33.2376 55.3511 32.0304C55.0518 31.4445 54.7912 30.8037 54.5481 30.2196C54.4367 29.994 54.4367 29.6532 54.2498 29.5408C53.969 29.955 53.5592 30.3143 53.3548 30.8214C53.0003 31.6339 52.9634 32.6331 52.8318 33.6703C52.7581 33.6898 52.7949 33.6703 52.7581 33.7074C52.1614 33.557 51.9561 32.9349 51.7314 32.4074C51.1716 31.0674 51.0777 28.9159 51.5638 27.3707C51.6927 26.9751 52.2544 25.7308 52.0298 25.3528C51.9174 24.9925 51.5445 24.7864 51.3392 24.5032C51.0792 24.1225 50.8548 23.7184 50.6688 23.296C50.2213 22.2402 49.9966 21.0701 49.5123 20.0143C49.2885 19.5222 48.8954 19.0142 48.5795 18.562C48.2241 18.0522 47.8337 17.6938 47.5528 17.0911C47.4608 16.8831 47.33 16.5432 47.4792 16.3176C47.5151 16.1662 47.5906 16.1096 47.7407 16.0715C47.981 15.8644 48.6725 16.1272 48.9147 16.2405C49.6053 16.5228 50.1836 16.7884 50.7609 17.183C51.0215 17.3725 51.3014 17.7309 51.6375 17.8256H52.0298C52.6264 17.9575 53.2986 17.8628 53.8585 18.0327C54.8465 18.3531 55.7415 18.8248 56.5444 19.3337C59.0156 20.9271 61.0234 23.1532 62.363 25.7846C62.5876 26.2183 62.6816 26.6148 62.886 27.0661C63.2782 27.9929 63.7635 28.9354 64.1548 29.8398C64.5462 30.7266 64.92 31.632 65.4808 32.3675C65.7589 32.7631 66.8786 32.9711 67.3822 33.1781C67.7552 33.3472 68.3334 33.4985 68.6695 33.7056C69.3049 34.1012 69.9365 34.5543 70.5341 34.9889C70.8325 35.2155 71.7643 35.6863 71.8205 36.0642C70.3288 36.0271 69.1723 36.1775 68.2017 36.5935C67.9227 36.7059 67.4752 36.7059 67.4375 37.0643C67.5876 37.2148 67.6051 37.4599 67.7367 37.6679C67.9605 38.0459 68.3509 38.5538 68.7063 38.8194C69.0986 39.1212 69.4899 39.422 69.9006 39.6858C70.628 40.1408 71.4485 40.4036 72.1566 40.8558C72.5682 41.1195 72.9779 41.4594 73.3886 41.7426C73.593 41.893 73.7229 42.1391 73.9853 42.232V42.1744C73.8536 42.0054 73.8168 41.7603 73.6869 41.5708C73.5009 41.3832 73.314 41.2133 73.1271 41.0248C72.5806 40.2944 71.9267 39.6524 71.1879 39.1212C70.5903 38.7042 69.2837 38.1378 69.0424 37.4423L69.0047 37.4042C69.4144 37.3661 69.9006 37.2148 70.2929 37.1005C70.9255 36.9306 71.5046 36.9687 72.1575 36.7997C72.4558 36.7235 72.7542 36.6288 73.0544 36.5369V36.3651C72.7164 36.0271 72.4752 35.573 72.1216 35.2526C71.1713 34.4234 70.1253 33.6127 69.0434 32.9321C68.4632 32.5551 67.7174 32.3108 67.1023 31.9895C66.8795 31.8763 66.5066 31.8205 66.3749 31.6311C66.0397 31.216 65.8519 30.67 65.6106 30.1788C65.0591 29.1048 64.5489 28.0098 64.0812 26.8962C63.7451 26.1607 63.5397 25.4262 63.13 24.7465C61.2074 21.5391 59.119 19.5974 55.9109 17.6919C55.2203 17.2954 54.3999 17.1255 53.5242 16.9184C53.0564 16.8989 52.5914 16.8627 52.1246 16.8441C51.8253 16.7104 51.5261 16.3519 51.2655 16.182C50.6007 15.7576 49.2803 15.024 48.1928 15.0073L48.1909 15.0092ZM52.7931 19.6717C52.4763 19.6717 52.2535 19.7107 52.0288 19.7664V19.8035H52.0647C52.2148 20.1053 52.4763 20.3143 52.6614 20.578C52.8115 20.8798 52.9423 21.1806 53.0914 21.4824L53.1283 21.4453C53.3907 21.2568 53.5215 20.955 53.5215 20.5018C53.4082 20.3691 53.3907 20.2381 53.2968 20.1053C53.1854 19.9178 52.9423 19.823 52.7931 19.6717Z" fill="#0B3948"/>
</g>
<defs>
<clipPath id="clip0_4046_125">
<rect width="67" height="46" fill="white" transform="translate(7 15)"/>
</clipPath>
</defs>
</svg>
