<svg width="80" height="80" viewBox="0 0 80 80" fill="none" xmlns="http://www.w3.org/2000/svg">
<path fill-rule="evenodd" clip-rule="evenodd" d="M15.542 55.948C15.0698 55.6815 14.678 55.2927 14.4079 54.8225C14.1362 54.3534 13.9949 53.8198 14.0001 53.2777V26.4866L14.0009 26.4859C13.9967 25.9437 14.1375 25.4103 14.4088 24.9408C14.68 24.4713 15.0717 24.0829 15.5435 23.8156L38.7453 10.4193C39.2123 10.1448 39.7443 10 40.2861 10C40.8279 10 41.3598 10.1455 41.8269 10.4201L65.0294 23.8156C65.5009 24.0831 65.8925 24.4716 66.1635 24.941C66.4346 25.4105 66.5754 25.9438 66.5713 26.4859L66.572 26.4866V53.2777C66.5761 53.8196 66.4355 54.3528 66.1645 54.8221C65.8936 55.2914 65.5022 55.6799 65.0308 55.9473L41.8284 69.3428C41.3609 69.6174 40.8286 69.7622 40.2864 69.7622C39.7443 69.7622 39.212 69.6174 38.7445 69.3428L38.7438 69.3435L15.542 55.948ZM31.9834 52.1906C32.543 51.631 32.8574 50.872 32.8574 50.0806L32.8559 50.0814V35.2467L46.2232 51.2437C46.7287 51.8238 47.3543 52.2869 48.0566 52.6009C48.759 52.915 49.5213 53.0724 50.2906 53.0623C50.7045 53.1001 51.1218 53.0546 51.5179 52.9285C51.914 52.8024 52.2807 52.5981 52.5965 52.3279C52.9124 52.0576 53.1708 51.7269 53.3567 51.3551C53.5425 50.9832 53.652 50.578 53.6786 50.1632L53.6822 29.6817C53.6822 29.2898 53.605 28.9018 53.4551 28.5398C53.3051 28.1778 53.0853 27.8488 52.8082 27.5718C52.5312 27.2947 52.2022 27.0749 51.8402 26.9249C51.4782 26.775 51.0902 26.6978 50.6983 26.6978C50.3065 26.6978 49.9185 26.775 49.5564 26.9249C49.1944 27.0749 48.8655 27.2947 48.5884 27.5718C48.3113 27.8488 48.0915 28.1778 47.9416 28.5398C47.7916 28.9018 47.7145 29.2898 47.7145 29.6817H47.7159V44.5149L34.3486 28.5178C33.843 27.9379 33.2174 27.475 32.515 27.1609C31.8127 26.8469 31.0505 26.6894 30.2813 26.6992C29.8673 26.6613 29.45 26.7068 29.0539 26.8329C28.6578 26.959 28.291 27.1632 27.9752 27.4335C27.6593 27.7038 27.4009 28.0346 27.2151 28.4064C27.0292 28.7782 26.9198 29.1835 26.8933 29.5984L26.8904 50.0814L26.8896 50.0806C26.8896 50.872 27.204 51.631 27.7636 52.1906C28.3232 52.7501 29.0821 53.0645 29.8735 53.0645C30.6649 53.0645 31.4239 52.7501 31.9834 52.1906Z" fill="#0B3948"/>
</svg>
