<svg width="80" height="80" viewBox="0 0 80 80" fill="none" xmlns="http://www.w3.org/2000/svg">
<path fill-rule="evenodd" clip-rule="evenodd" d="M66.9696 24.6687C66.9896 24.7433 66.9998 24.8203 67 24.8976V36.9179C67 37.0722 66.9596 37.2237 66.8828 37.3572C66.8061 37.4907 66.6957 37.6014 66.5628 37.6782L56.5478 43.4867V54.9997C56.5478 55.3131 56.3825 55.6023 56.1128 55.76L35.2073 67.8833C35.1594 67.9107 35.1072 67.9282 35.055 67.9468C35.0354 67.9534 35.017 67.9654 34.9963 67.9709C34.8502 68.0097 34.6965 68.0097 34.5504 67.9709C34.5265 67.9643 34.5047 67.9512 34.4819 67.9424C34.434 67.9249 34.384 67.9096 34.3383 67.8833L13.4372 55.76C13.3044 55.6832 13.1941 55.5725 13.1173 55.439C13.0406 55.3055 13.0001 55.154 13 54.9997V18.939C13 18.8601 13.0109 18.7834 13.0305 18.7089C13.037 18.6837 13.0522 18.6607 13.0609 18.6355C13.0772 18.5895 13.0924 18.5424 13.1164 18.4997C13.1327 18.4712 13.1566 18.4482 13.1762 18.4219C13.2012 18.3868 13.224 18.3507 13.2534 18.32C13.2784 18.2948 13.311 18.2762 13.3393 18.2543C13.3708 18.228 13.3991 18.1995 13.435 18.1787L23.8872 12.1171C24.0196 12.0404 24.1696 12 24.3222 12C24.4749 12 24.6249 12.0404 24.7572 12.1171L35.2084 18.1787H35.2105C35.2453 18.2006 35.2747 18.228 35.3062 18.2532C35.3345 18.2751 35.3661 18.2948 35.3911 18.3189C35.4215 18.3507 35.4433 18.3868 35.4694 18.4219C35.4879 18.4482 35.5129 18.4712 35.5281 18.4997C35.5531 18.5435 35.5672 18.5895 35.5846 18.6355C35.5933 18.6607 35.6086 18.6837 35.6151 18.71C35.6351 18.7847 35.6454 18.8617 35.6455 18.939V41.4622L44.3545 36.4106V24.8965C44.3545 24.8199 44.3653 24.7421 44.3849 24.6687C44.3925 24.6424 44.4067 24.6194 44.4154 24.5942C44.4328 24.5482 44.448 24.501 44.4719 24.4583C44.4882 24.4298 44.5121 24.4068 44.5306 24.3805C44.5567 24.3455 44.5785 24.3093 44.6089 24.2787C44.6339 24.2535 44.6655 24.2348 44.6938 24.2129C44.7264 24.1866 44.7547 24.1581 44.7895 24.1373L55.2428 18.0757C55.3751 17.9989 55.5251 17.9585 55.6778 17.9585C55.8305 17.9585 55.9805 17.9989 56.1128 18.0757L66.5639 24.1373C66.6009 24.1592 66.6292 24.1866 66.6618 24.2118C66.689 24.2337 66.7205 24.2535 66.7455 24.2776C66.776 24.3093 66.7977 24.3455 66.8238 24.3805C66.8434 24.4068 66.8673 24.4298 66.8826 24.4583C66.9076 24.501 66.9217 24.5482 66.9391 24.5942C66.9489 24.6194 66.963 24.6424 66.9696 24.6687ZM65.2578 36.4106V26.415L61.6004 28.5359L56.5478 31.4665V41.4622L65.2589 36.4106H65.2578ZM54.8067 54.4925V44.4902L49.8367 47.3496L35.6445 55.5092V65.6057L54.8067 54.4925ZM14.7422 20.4563V54.4925L33.9022 65.6046V55.5103L23.8927 49.8036L23.8894 49.8014L23.885 49.7992C23.8513 49.7795 23.8231 49.751 23.7915 49.7269C23.7643 49.705 23.7328 49.6875 23.7089 49.6634L23.7067 49.6601C23.6784 49.6327 23.6588 49.5987 23.6349 49.5681C23.6132 49.5385 23.5871 49.5133 23.5697 49.4826L23.5686 49.4793C23.549 49.4465 23.537 49.407 23.5229 49.3698C23.5088 49.3369 23.4903 49.3062 23.4816 49.2712C23.4707 49.2295 23.4685 49.1846 23.4642 49.1419C23.4598 49.109 23.4511 49.0762 23.4511 49.0433V49.0411V25.5078L18.3996 22.5762L14.7422 20.4563ZM24.3233 13.8897L15.6155 18.939L24.3211 23.9883L33.0279 18.9379L24.3211 13.8897H24.3233ZM28.8518 45.4017L33.9033 42.4723V20.4563L30.246 22.5773L25.1933 25.5078V47.5238L28.8518 45.4017ZM55.6778 19.8483L46.971 24.8976L55.6778 29.947L64.3834 24.8965L55.6778 19.8483ZM54.8067 31.4665L49.754 28.5359L46.0967 26.415V36.4106L51.1482 39.3401L54.8067 41.4622V31.4665ZM34.7723 53.9919L47.5431 46.6474L53.9269 42.9773L45.2266 37.9313L35.2095 43.7409L26.0797 49.0356L34.7723 53.9919Z" fill="#0B3948"/>
</svg>
