<svg width="80" height="80" viewBox="0 0 80 80" fill="none" xmlns="http://www.w3.org/2000/svg">
<path d="M62.0751 35.2024H46.7167C46.4636 35.204 46.2126 35.1553 45.9785 35.0592C45.7443 34.9631 45.5315 34.8215 45.3525 34.6425C45.1735 34.4635 45.0318 34.2508 44.9357 34.0167C44.8395 33.7825 44.7908 33.5317 44.7924 33.2786V17.9239C44.7924 17.6718 44.7426 17.4222 44.6457 17.1895C44.5489 16.9567 44.4069 16.7454 44.2281 16.5678C44.0492 16.3901 43.837 16.2495 43.6036 16.1541C43.3702 16.0588 43.1203 16.0105 42.8681 16.0121H37.1193C36.8671 16.0105 36.6172 16.0588 36.3838 16.1541C36.1504 16.2495 35.9382 16.3901 35.7593 16.5678C35.5805 16.7454 35.4385 16.9567 35.3417 17.1895C35.2448 17.4222 35.195 17.6718 35.195 17.9239V33.2786C35.1966 33.5317 35.1479 33.7825 35.0517 34.0167C34.9556 34.2508 34.8139 34.4635 34.6349 34.6425C34.4559 34.8215 34.2431 34.9631 34.0089 35.0592C33.7748 35.1553 33.5238 35.204 33.2707 35.2024H27.5218C27.2687 35.204 27.0177 35.1553 26.7835 35.0592C26.5493 34.9631 26.3366 34.8215 26.1576 34.6425C25.9786 34.4635 25.8369 34.2508 25.7407 34.0167C25.6446 33.7825 25.5959 33.5317 25.5975 33.2786V17.9239C25.5991 17.6708 25.5504 17.4199 25.4543 17.1858C25.3581 16.9516 25.2165 16.7389 25.0374 16.56C24.8584 16.381 24.6457 16.2393 24.4115 16.1432C24.1773 16.0471 23.9263 15.9984 23.6732 16H17.9123C17.6602 16 17.4105 16.0499 17.1777 16.1467C16.9449 16.2435 16.7336 16.3854 16.5559 16.5642C16.3781 16.743 16.2375 16.9552 16.1421 17.1886C16.0467 17.4219 15.9985 17.6718 16 17.9239V62.0761C15.9984 62.3292 16.0471 62.5801 16.1433 62.8142C16.2394 63.0484 16.3811 63.2611 16.5601 63.44C16.7391 63.619 16.9519 63.7607 17.1861 63.8568C17.4202 63.9529 17.6712 64.0016 17.9243 64H62.0751C62.3282 64.0016 62.5792 63.9529 62.8134 63.8568C63.0476 63.7607 63.2603 63.619 63.4393 63.44C63.6183 63.2611 63.76 63.0484 63.8562 62.8142C63.9523 62.5801 64.001 62.3292 63.9994 62.0761V37.1623C64.0058 36.9062 63.9607 36.6515 63.8668 36.4131C63.7728 36.1748 63.6319 35.9578 63.4524 35.7749C63.2729 35.5921 63.0585 35.4472 62.8219 35.3489C62.5853 35.2505 62.3313 35.2007 62.0751 35.2024ZM54.3538 51.507C54.3554 51.8854 54.2822 52.2604 54.1385 52.6104C53.9947 52.9605 53.7833 53.2787 53.5162 53.5468C53.2491 53.8149 52.9317 54.0277 52.5822 54.1729C52.2326 54.318 51.8579 54.3928 51.4794 54.3928H47.6308C47.2523 54.3928 46.8775 54.318 46.528 54.1729C46.1785 54.0277 45.8611 53.8149 45.594 53.5468C45.3269 53.2787 45.1154 52.9605 44.9717 52.6104C44.8279 52.2604 44.7548 51.8854 44.7564 51.507V47.6713C44.7548 47.2929 44.8279 46.918 44.9717 46.5679C45.1154 46.2179 45.3269 45.8996 45.594 45.6315C45.8611 45.3634 46.1785 45.1506 46.528 45.0055C46.8775 44.8603 47.2523 44.7856 47.6308 44.7856H51.4794C51.8579 44.7856 52.2326 44.8603 52.5822 45.0055C52.9317 45.1506 53.2491 45.3634 53.5162 45.6315C53.7833 45.8996 53.9947 46.2179 54.1385 46.5679C54.2822 46.918 54.3554 47.2929 54.3538 47.6713V51.507Z" fill="#0B3948"/>
</svg>
