<svg width="80" height="80" fill="none" xmlns="http://www.w3.org/2000/svg"><g clip-path="url(#a)" fill="#0B3948"><path d="M34.324 45.392c-1.052 5.773-2.44 9.973-4.163 12.583C28.82 59.992 27.348 61 25.747 61c-.427 0-.953-.13-1.578-.388v-1.393c.304.046.663.07 1.074.07.747 0 1.35-.208 1.808-.625.549-.508.823-1.078.823-1.71 0-.433-.215-1.32-.641-2.66l-2.836-8.906h2.539l2.035 6.661c.457 1.512.648 2.568.571 3.17 1.114-3.007 1.892-6.283 2.334-9.825h2.447M23.117 56.909h-2.584c-.09-4.411-.342-8.557-.755-12.444h-.02L15.822 56.91h-1.97l-3.91-12.444H9.92c-.29 3.731-.472 7.878-.549 12.444H7.015c.152-5.552.534-10.754 1.143-15.61h3.202l3.729 11.468h.023l3.751-11.468h3.064c.67 5.688 1.068 10.892 1.188 15.61M68.725 56.907h-7.342v-15.61h2.47v13.688h4.872v1.92m-18.462-3.123c-.626-1.018-.938-2.65-.938-4.902 0-3.93 1.182-5.898 3.544-5.898 1.236 0 2.143.471 2.722 1.41.625 1.019.938 2.638.938 4.858 0 3.963-1.183 5.945-3.545 5.945-1.235 0-2.143-.47-2.721-1.411m9.194 3.499-2.838-1.415c.252-.21.493-.437.709-.697 1.206-1.433 1.808-3.553 1.808-6.36 0-5.165-2.005-7.748-6.015-7.748-1.967 0-3.5.655-4.598 1.967-1.206 1.434-1.807 3.547-1.807 6.337 0 2.744.534 4.757 1.6 6.035.973 1.157 2.443 1.735 4.413 1.735.735 0 1.409-.091 2.02-.274l3.696 2.175 1.007-1.755M45.64 52.58c0 1.324-.48 2.41-1.44 3.26-.96.847-2.25 1.272-3.864 1.272-1.51 0-2.974-.49-4.392-1.458l.664-1.34c1.22.616 2.324.923 3.315.923.93 0 1.657-.209 2.184-.622.525-.417.84-.997.84-1.734 0-.926-.639-1.719-1.811-2.383a281.288 281.288 0 0 1-3.247-1.856c-1.172-.865-1.76-1.793-1.76-3.321 0-1.265.438-2.288 1.314-3.065.877-.78 2.01-1.17 3.396-1.17 1.434 0 2.737.387 3.91 1.16l-.596 1.34c-1.003-.432-1.994-.648-2.971-.648-.792 0-1.404.193-1.829.58-.428.383-.692.877-.692 1.478 0 .925.654 1.728 1.859 2.406 1.095.6 3.314 1.88 3.314 1.88 1.206.863 1.807 1.783 1.807 3.3m24.843 4.325h.41v-1.588h.534v-.325h-1.5v.325h.556v1.588Zm3.115 0h.385v-1.913h-.58l-.472 1.304-.515-1.304h-.559v1.913h.366V55.45h.02l.539 1.456h.278l.538-1.456v1.456ZM48.19 15.01c-.652-.01-1.221.238-1.515.967-.503 1.226.746 2.433 1.176 3.056.317.433.728.925.95 1.414.131.32.169.661.3 1 .298.83.577 1.754.97 2.529.204.396.428.811.689 1.168.15.209.41.302.467.643-.26.376-.281.942-.43 1.415-.671 2.13-.41 4.772.541 6.337.299.471 1.008 1.51 1.96 1.113.84-.34.654-1.414.895-2.357.056-.228.018-.378.13-.53v.04c.261.527.523 1.035.766 1.565.579.923 1.585 1.885 2.425 2.526.447.341.801.925 1.361 1.133v-.058h-.037c-.112-.168-.28-.245-.429-.376a9.122 9.122 0 0 1-.97-1.133c-.782-1.054-1.474-2.224-2.088-3.432-.3-.585-.56-1.226-.803-1.81-.111-.226-.111-.567-.298-.68-.281.415-.69.774-.895 1.281-.355.813-.392 1.812-.523 2.85-.074.019-.037 0-.074.036-.597-.15-.802-.772-1.027-1.3-.56-1.34-.653-3.491-.167-5.036.129-.396.69-1.64.466-2.018-.113-.36-.486-.567-.69-.85a7.499 7.499 0 0 1-.671-1.207c-.448-1.056-.672-2.226-1.157-3.282-.224-.492-.617-1-.932-1.452-.356-.51-.746-.868-1.027-1.47-.092-.209-.223-.549-.074-.774.036-.152.112-.208.262-.247.24-.207.931.056 1.174.17.69.282 1.269.547 1.846.942.26.19.54.548.877.643h.392c.596.131 1.269.037 1.828.207.989.32 1.884.792 2.686 1.3a16.671 16.671 0 0 1 5.819 6.452c.225.433.319.83.523 1.281.392.927.877 1.87 1.269 2.774.391.887.765 1.792 1.326 2.527.278.396 1.398.604 1.901.811.373.17.951.32 1.287.528.636.395 1.267.848 1.865 1.283.298.227 1.23.697 1.286 1.075-1.491-.037-2.648.114-3.618.53-.28.112-.727.112-.764.47.15.15.167.396.299.604.224.378.614.886.97 1.151.392.302.783.603 1.194.867.727.455 1.547.718 2.256 1.17.411.264.82.603 1.232.887.204.15.334.396.596.489v-.058c-.131-.169-.168-.414-.298-.603-.186-.188-.373-.358-.56-.546a8.942 8.942 0 0 0-1.94-1.904c-.597-.417-1.903-.983-2.145-1.679l-.037-.038c.41-.038.896-.19 1.288-.304.632-.17 1.212-.131 1.864-.3.299-.076.597-.171.897-.263v-.172c-.338-.338-.579-.792-.932-1.112-.95-.83-1.997-1.64-3.079-2.32-.58-.378-1.326-.622-1.94-.944-.224-.113-.596-.169-.728-.358-.335-.415-.523-.961-.764-1.452a47.183 47.183 0 0 1-1.53-3.283c-.336-.735-.541-1.47-.951-2.15-1.923-3.207-4.011-5.149-7.22-7.054-.69-.397-1.51-.567-2.386-.774-.468-.02-.933-.055-1.4-.074-.299-.134-.598-.492-.858-.662-.665-.424-1.986-1.158-3.073-1.175l-.002.002Zm4.603 4.662c-.317 0-.54.039-.764.094v.038h.036c.15.301.411.51.596.774.15.302.281.603.43.904l.037-.037c.263-.188.394-.49.394-.943-.114-.133-.131-.264-.225-.397-.112-.187-.355-.282-.504-.433Z"/></g><defs><clipPath id="a"><path fill="#fff" transform="translate(7 15)" d="M0 0h67v46H0z"/></clipPath></defs></svg>