<svg width="80" height="80" fill="none" xmlns="http://www.w3.org/2000/svg"><path fill-rule="evenodd" clip-rule="evenodd" d="M39.95 57.346c-18.25 0-33.046-7.783-33.046-17.384 0-9.6 14.796-17.383 33.046-17.383s33.046 7.783 33.046 17.383c0 9.6-14.795 17.384-33.046 17.384ZM27.39 41.168c-.681.524-1.758.79-3.2.79h-1.873l1.277-6.574H25.9c1.329 0 2.21.229 2.616.68.399.442.485 1.26.258 2.432-.244 1.254-.71 2.153-1.383 2.672Zm-11.014 8.757c.068.083.17.13.276.13h3.795c.172 0 .32-.121.352-.29l.844-4.34h2.955c1.466 0 2.695-.159 3.651-.47a7.085 7.085 0 0 0 2.658-1.593 8.17 8.17 0 0 0 1.615-2.023c.41-.735.706-1.556.877-2.44.422-2.17.089-3.895-.99-5.13-1.073-1.228-2.78-1.851-5.073-1.851h-7.298a.359.359 0 0 0-.352.29L16.3 49.628a.358.358 0 0 0 .076.297Zm26.393-4.501a.358.358 0 0 1-.352-.427l1.498-7.708c.142-.733.107-1.26-.099-1.481-.126-.136-.505-.364-1.626-.364h-2.714l-1.883 9.69a.359.359 0 0 1-.352.29h-3.765a.358.358 0 0 1-.352-.427l3.386-17.42a.359.359 0 0 1 .352-.29h3.765a.359.359 0 0 1 .352.426l-.817 4.205h2.92c2.223 0 3.73.392 4.609 1.198.895.823 1.175 2.139.83 3.911l-1.575 8.107a.358.358 0 0 1-.352.29h-3.825Zm15.387-4.256c-.68.524-1.757.79-3.2.79h-1.873l1.278-6.574h2.305c1.329 0 2.209.229 2.616.68.399.442.485 1.26.258 2.432-.244 1.254-.71 2.153-1.384 2.672Zm-11.013 8.757c.068.083.17.13.276.13h3.795c.172 0 .32-.121.352-.29l.844-4.34h2.955c1.466 0 2.694-.159 3.65-.47a7.085 7.085 0 0 0 2.659-1.593 8.167 8.167 0 0 0 1.614-2.023c.411-.735.706-1.556.878-2.44.422-2.17.089-3.895-.99-5.13-1.073-1.228-2.78-1.851-5.074-1.851h-7.297a.359.359 0 0 0-.352.29l-3.386 17.42a.358.358 0 0 0 .076.297Z" fill="#0B3948"/></svg>