<svg width="80" height="80" fill="none" xmlns="http://www.w3.org/2000/svg"><path d="m38.254 35.313.338-5.85h-.004c-.4.044-.798.107-1.193.191a11.6 11.6 0 0 0-5.572 3.013l4.834 3.4a.96.96 0 0 0 1.012.09c.329-.175.543-.483.56-.844h.025ZM48.138 32.685a11.718 11.718 0 0 0-6.732-3.222l.334 5.843a.985.985 0 0 0 .567.877.997.997 0 0 0 1.043-.12l4.788-3.378ZM30.069 34.867a11.42 11.42 0 0 0-1.643 7.266l5.673-1.62v-.016a.98.98 0 0 0 .39-1.69v-.025l-4.42-3.915ZM51.588 42.113a11.623 11.623 0 0 0-1.69-7.246l.006.014-4.386 3.896a.987.987 0 0 0-.314.962c.08.353.349.633.703.728v.022l5.681 1.624ZM40.901 39.087h-1.808l-1.124 1.393.383 1.742 1.628.775 1.625-.775.402-1.742-1.105-1.393ZM45.114 43.84a1.03 1.03 0 0 0-.227 0l-.007.025a1 1 0 0 0-.788.465.983.983 0 0 0-.07.906l2.26 5.433c2.173-1.378 3.838-3.438 4.682-5.85l-5.85-.98ZM35.879 44.314a.996.996 0 0 0-.817-.45l-.01.016a.955.955 0 0 0-.196 0l-5.799.976a11.539 11.539 0 0 0 4.654 5.79l2.247-5.39v-.021a.973.973 0 0 0-.08-.921ZM40.488 46.34a1 1 0 0 0-.526-.13l.015.031a.997.997 0 0 0-.844.494l-2.868 5.12c2.043.69 4.238.802 6.34.324l1.143-.335-2.858-5.119h-.022a.99.99 0 0 0-.38-.385Z" fill="#0B3948"/><path fill-rule="evenodd" clip-rule="evenodd" d="M38.438 14.368a3.632 3.632 0 0 1 1.389-.365h-.017a3.633 3.633 0 0 1 1.743.367l18.773 8.88a3.55 3.55 0 0 1 1.94 2.398L66.9 45.645a3.424 3.424 0 0 1-.675 2.99L53.24 64.673A3.664 3.664 0 0 1 50.432 66H29.596a3.602 3.602 0 0 1-2.805-1.313l-12.99-16.033a4.247 4.247 0 0 1-.203-.281 3.432 3.432 0 0 1-.507-2.725l4.603-19.98a3.54 3.54 0 0 1 1.94-2.398l18.804-8.902Zm.456 7.683a1.184 1.184 0 0 1 1.105-1.24l.015.01c.65.044 1.139.595 1.105 1.238v.335a9.408 9.408 0 0 1-.155 1.06 10.355 10.355 0 0 0-.128 2.022.878.878 0 0 0 .367.556l.007.108c.008.111.019.271.019.39A14.784 14.784 0 0 1 50.567 31l.427-.301c.23.039.466.013.682-.074a10.486 10.486 0 0 0 1.473-1.378c.23-.273.477-.533.737-.779l.25-.197a1.133 1.133 0 0 1 1.926.666 1.115 1.115 0 0 1-.528 1.077l-.246.198c-.3.198-.61.378-.931.54-.59.334-1.153.724-1.67 1.166a.878.878 0 0 0-.21.633l-.398.365a14.4 14.4 0 0 1 2.338 10.036l.456.134c.115.203.284.37.486.482.658.176 1.333.287 2.014.33.362.008.722.035 1.08.084l.328.077a1.134 1.134 0 0 1 .917.747 1.115 1.115 0 0 1-.267 1.146 1.132 1.132 0 0 1-1.152.279h-.022a3.6 3.6 0 0 0-.133-.028 2.528 2.528 0 0 1-.157-.034 8.561 8.561 0 0 1-1.009-.385 12.335 12.335 0 0 0-1.96-.57.899.899 0 0 0-.63.232l-.479-.084a14.546 14.546 0 0 1-6.45 8.072c.053.154.116.304.188.45a.866.866 0 0 0-.115.67c.29.621.624 1.214 1.012 1.77.219.285.42.582.604.89l.147.3a1.115 1.115 0 0 1-1.096 1.674 1.135 1.135 0 0 1-.934-.719l-.14-.285a9.272 9.272 0 0 1-.327-1.023 10.5 10.5 0 0 0-.77-1.875.88.88 0 0 0-.573-.344l-.224-.427a14.645 14.645 0 0 1-10.37-.025l-.253.457a.913.913 0 0 0-.483.235c-.282.336-.447.816-.62 1.323-.078.225-.157.455-.248.68a9.183 9.183 0 0 1-.324 1.021l-.14.285a1.122 1.122 0 0 1-.933.723 1.138 1.138 0 0 1-1.066-.505 1.115 1.115 0 0 1-.031-1.17l.143-.302c.184-.31.386-.607.604-.893.399-.576.74-1.189 1.018-1.829a1.11 1.11 0 0 0-.102-.63l.206-.426a14.527 14.527 0 0 1-6.478-8.044l-.507.084a1.237 1.237 0 0 0-.644-.226c-.672.126-1.328.318-1.96.57a9.06 9.06 0 0 1-1.01.365l-.303.033h-.022a1.138 1.138 0 0 1-1.154-.276 1.12 1.12 0 0 1-.261-1.148 1.122 1.122 0 0 1 .914-.748h.034l.298-.067a9.47 9.47 0 0 1 1.08-.084c.68-.044 1.355-.155 2.014-.33.196-.122.36-.288.483-.482l.472-.134c-.51-3.518.306-7.1 2.291-10.058l-.367-.334a1.232 1.232 0 0 0-.225-.643 9.669 9.669 0 0 0-1.683-1.173 9.393 9.393 0 0 1-.932-.54l-.233-.185a1.176 1.176 0 0 1-.276-1.646 1.078 1.078 0 0 1 .896-.395c.285.013.558.115.78.293l.25.197c.261.246.507.506.738.78.459.499.966.953 1.513 1.356a.88.88 0 0 0 .667.067l.405.284a14.476 14.476 0 0 1 7.345-4.161c.669-.15 1.347-.255 2.03-.312l.025-.472a1.22 1.22 0 0 0 .368-.578 10.34 10.34 0 0 0-.111-2.026 9.351 9.351 0 0 1-.155-1.06v-.315Z" fill="#0B3948"/></svg>