<svg width="80" height="80" fill="none" xmlns="http://www.w3.org/2000/svg"><path d="M71.975 35.203c-1.544-1.058-5.603-1.509-8.553-.7-.159-2.99-1.674-5.51-4.447-7.706l-1.026-.7-.684 1.05c-1.344 2.075-1.91 4.841-1.711 7.356.158 1.55.688 3.29 1.71 4.554-3.84 2.266-7.38 1.752-23.056 1.752H10.005c-.07 3.6.499 10.526 4.829 16.164a19.699 19.699 0 0 0 1.571 1.805c3.521 3.586 8.84 6.215 16.794 6.222 12.134.011 22.53-6.66 28.855-22.79 2.081.035 7.574.379 10.262-4.904.065-.09.684-1.401.684-1.401l-1.025-.701v-.001Zm-46.174-3.716h-6.806v6.923H25.8v-6.923Zm8.793 0h-6.806v6.923h6.806v-6.923Zm8.793 0H36.58v6.923h6.806v-6.923Zm8.793 0h-6.806v6.923h6.806v-6.923Zm-35.17 0H10.2v6.923h6.806v-6.923h.002Zm8.792-8.744h-6.806v6.923h6.806v-6.923Zm8.794 0H27.79v6.923h6.806v-6.923Zm8.793 0h-6.806v6.923h6.806v-6.923ZM43.386 14H36.58v6.922h6.806V14Z" fill="#0B3948"/></svg>