<svg width="80" height="80" fill="none" xmlns="http://www.w3.org/2000/svg"><path d="M62.075 35.202H46.717a1.912 1.912 0 0 1-1.925-1.923V17.924a1.91 1.91 0 0 0-1.924-1.912H37.12a1.913 1.913 0 0 0-1.924 1.912v15.355a1.91 1.91 0 0 1-1.924 1.923h-5.75a1.913 1.913 0 0 1-1.924-1.923V17.924A1.912 1.912 0 0 0 23.674 16h-5.76A1.914 1.914 0 0 0 16 17.924v44.152A1.91 1.91 0 0 0 17.924 64h44.151A1.913 1.913 0 0 0 64 62.076V37.162a1.914 1.914 0 0 0-1.924-1.96Zm-7.721 16.305a2.873 2.873 0 0 1-2.875 2.886h-3.848a2.876 2.876 0 0 1-2.875-2.886v-3.836a2.872 2.872 0 0 1 2.875-2.885h3.848a2.875 2.875 0 0 1 2.875 2.885v3.836Z" fill="#0B3948"/></svg>