<svg width="80" height="80" fill="none" xmlns="http://www.w3.org/2000/svg"><path fill-rule="evenodd" clip-rule="evenodd" d="M66.97 24.669c.02.074.03.151.03.229v12.02a.88.88 0 0 1-.437.76l-10.015 5.809V55a.88.88 0 0 1-.435.76L35.207 67.883c-.048.028-.1.045-.152.064-.02.006-.038.018-.059.024a.869.869 0 0 1-.446 0c-.023-.007-.045-.02-.068-.029-.048-.017-.098-.032-.144-.059l-20.9-12.123A.874.874 0 0 1 13 55V18.939c0-.079.01-.156.03-.23.007-.025.022-.048.03-.073.017-.046.032-.094.056-.136.017-.029.04-.052.06-.078.025-.035.048-.071.077-.102.025-.025.058-.044.086-.066.032-.026.06-.055.096-.075l10.452-6.062a.868.868 0 0 1 .87 0l10.451 6.062h.003c.034.022.064.049.095.074.029.022.06.042.085.066.03.032.052.068.078.103.019.026.044.05.06.078.024.044.038.09.056.136.008.025.024.048.03.074a.89.89 0 0 1 .03.229v22.523l8.71-5.051V24.896a.89.89 0 0 1 .03-.227c.008-.027.022-.05.03-.075.018-.046.033-.093.057-.136.016-.028.04-.051.059-.077.026-.035.047-.072.078-.102.025-.026.056-.044.085-.066.032-.026.06-.055.095-.076l10.454-6.061a.866.866 0 0 1 .87 0l10.45 6.061c.038.022.066.05.099.075.027.022.058.041.084.066.03.031.052.068.078.103.02.026.043.049.059.077.025.043.039.09.056.136.01.025.024.048.03.075ZM65.258 36.41v-9.996l-3.658 2.12-5.052 2.931v9.996l8.71-5.051ZM54.807 54.492V44.49l-4.97 2.86-14.193 8.16v10.096l19.163-11.113ZM14.742 20.456v34.037l19.16 11.112V55.51l-10.01-5.706-.003-.003-.004-.002c-.034-.02-.062-.048-.094-.072-.027-.022-.058-.04-.082-.064l-.002-.003c-.029-.027-.048-.061-.072-.092-.022-.03-.048-.055-.065-.085l-.001-.004c-.02-.032-.032-.072-.046-.11-.014-.032-.033-.063-.041-.098-.011-.041-.014-.086-.018-.13-.004-.032-.013-.065-.013-.098V25.508L18.4 22.576l-3.658-2.12Zm9.581-6.566-8.707 5.049 8.705 5.05 8.707-5.051-8.707-5.048h.002Zm4.529 31.512 5.051-2.93V20.456l-3.657 2.121-5.053 2.93v22.017l3.659-2.122Zm26.826-25.554-8.707 5.05 8.707 5.049 8.705-5.05-8.705-5.049Zm-.871 11.619-5.053-2.931-3.657-2.121v9.996l5.051 2.93 3.659 2.121v-9.996ZM34.772 53.992l12.771-7.345 6.384-3.67-8.7-5.046-10.017 5.81-9.13 5.295 8.692 4.956Z" fill="#0B3948"/></svg>