<svg width="80" height="80" fill="none" xmlns="http://www.w3.org/2000/svg"><path fill-rule="evenodd" clip-rule="evenodd" d="M14 14h52v52H14V14Zm39.751 43.593c-2.41 0-3.773-1.258-4.82-2.968l-3.971 2.307c1.434 2.835 4.366 4.997 8.904 4.997 4.642 0 8.097-2.41 8.097-6.81 0-4.08-2.344-5.895-6.495-7.676l-1.222-.523c-2.096-.908-3.005-1.501-3.005-2.967 0-1.186.908-2.094 2.339-2.094 1.403 0 2.307.592 3.145 2.094l3.805-2.443c-1.61-2.831-3.843-3.913-6.95-3.913-4.364 0-7.156 2.79-7.156 6.455 0 3.978 2.342 5.86 5.868 7.362l1.222.524c2.228.975 3.557 1.569 3.557 3.244 0 1.399-1.293 2.41-3.318 2.41Zm-18.937-.031c-1.679 0-2.377-1.151-3.145-2.513l-3.977 2.408c1.152 2.438 3.418 4.463 7.33 4.463 4.33 0 7.297-2.303 7.297-7.363v-16.68h-4.887V54.49c0 2.443-1.013 3.071-2.618 3.071Z" fill="#0B3948"/></svg>