<svg width="80" height="80" fill="none" xmlns="http://www.w3.org/2000/svg"><path fill-rule="evenodd" clip-rule="evenodd" d="M15.542 55.948a3.02 3.02 0 0 1-1.134-1.126A3.025 3.025 0 0 1 14 53.279V26.486a3.041 3.041 0 0 1 1.543-2.67l23.202-13.397a3.04 3.04 0 0 1 3.082.001l23.202 13.396a3.044 3.044 0 0 1 1.542 2.67h.001v26.792a3.042 3.042 0 0 1-1.541 2.67L41.828 69.342a3.045 3.045 0 0 1-3.084 0L15.542 55.949Zm16.441-3.757c.56-.56.874-1.319.874-2.11h-.001V35.247l13.367 15.997a5.303 5.303 0 0 0 4.068 1.818 3.113 3.113 0 0 0 3.388-2.899l.003-20.481a2.985 2.985 0 0 0-5.968 0h.002v14.833L34.349 28.518a5.306 5.306 0 0 0-4.068-1.819 3.111 3.111 0 0 0-3.388 2.9L26.89 50.08a2.984 2.984 0 0 0 5.093 2.11Z" fill="#0B3948"/></svg>