<svg width="282" height="126" fill="none" xmlns="http://www.w3.org/2000/svg"><mask id="a" style="mask-type:alpha" maskUnits="userSpaceOnUse" x="0" y="0" width="282" height="126"><path fill="#D9D9D9" d="M0 0h282v126H0z"/></mask><g mask="url(#a)"><path fill-rule="evenodd" clip-rule="evenodd" d="m67.924 89.328.812-1.444s.405-3.28 2.84-4.92c2.435-1.64 3.585-2.953 3.585-3.15 0-.196 1.07 3.342-2.908 6.627-1.06.875-3.044 1.444-3.044 1.444l-.44.459-.1.557 6.39-1.312.474-1.05s-.642-2.722.642-4.625c1.286-1.903 2.706-3.64 2.842-4.035.135-.393.338-.919.338-.919s1.25 1.978-.034 5.676c-1.048 3.018-3.303 2.887-3.72 4.395-.1.362 4.328-1.804 5.073-2.657.744-.852.777-1.213.777-1.213s-1.217-2.789-.608-4.396c.608-1.608 1.59-4.593 1.59-4.724v-.886s1.96 3.019 1.589 5.807c-.372 2.788-2.165 4.199-2.267 4.723-.1.525 4.397-3.575 4.634-5.019 0 0 .137-.395-.062-.635-.608-.733-2.094-2.194-1.967-4.121.17-2.559.473-4.396 0-5.183-.474-.787 2.515 1.67 3.145 5.019.372 1.979-.744 4.133-.744 4.133l.034.689s3.213-4.199 2.908-5.675c0 0-3.044-2.066-3.585-5.02-.45-2.452-.608-2.886-.778-3.148-.169-.262-.44-.787-.44-.787s3.771 1.593 5.006 5.412c.18.559 0 2.657 0 2.657l.169.886s1.826-4.363 1.69-6.266c.001 0-2.975-.918-4.362-2.394-1.386-1.477-2.468-4.1-2.84-4.461-.372-.361-.677-.69-.677-.69s3.517.329 5.546 2.69c2.03 2.362 1.76 3.937 1.962 4.298.048.086.406.262.406.262.15-1.442-.087-5.77-1.015-6.495 0 0-3.043-.197-4.295-1.05-1.251-.853-3.618-3.181-3.99-3.444a5.897 5.897 0 0 0-.913-.492s2.47-.987 6.492 1.214c1.32.721 2.064 2.558 2.334 2.92.27.36 1.049 1.016 1.049 1.016s-1.624-5.773-2.537-6.167c-.913-.393-3.111.427-4.531 0-1.42-.427-4.904-2.23-5.276-2.395-.372-.163-.947-.163-.947-.163s3.382-1.542 6.223-.624c2.84.919 2.705 1.903 3.652 2.46.947.558 1.116.46 1.116.46s-3.686-5.216-4.058-5.216a3.11 3.11 0 0 0-.913.164c-.96.331-2.63 1.086-3.484 1.017-1.217-.099-5.41-.755-5.918-.755-.507 0-1.014.033-1.014.033s2.536-2.25 6.053-2.296c2.537-.033 3.619 1.28 4.633 1.28.305 0 .609.032.609.032s-3.72-2.23-3.99-2.23c-.271 0-3.671 1.143-7.34-1.837-2.502-2.034-4.802-1.838-4.802-1.838s5.615-1.866 8.861-.328c2.976 1.41 3.179 3.477 3.179 3.477s4.329 2.395 4.295 2.56c-.034.164-.17-.657-.17-.657s-3.99-2.854-4.599-5.544c-.608-2.69-.913-3.641-.913-3.641s4.502 1.72 5.547 5.708c.54 2.067 0 2.952 0 3.083 0 .132 1.284 3.38 3.618 5.709.34.339.744 1.311.744 1.311s.135-.918-.034-1.115c-.169-.196-2.57-3.05-2.604-6.003-.033-2.953.068-4.2.068-4.2s3.446 2.49 3.585 6.857c.067 2.133-.812 3.018-.812 3.182 0 .164-.068 1.903.068 2.034.135.131 1.961 4.527 1.961 5.544 0 1.017.102.787.102.787s.473-1.28.27-1.608c-.203-.327-1.217-2.92-1.015-4.821.143-1.342 1.15-5.282 1.522-5.708.373-.427 2.401 4.494 1.556 7.25-.845 2.755-1.725 2.952-1.725 2.952s-.203 2.132-.54 2.69c-.339.557.472 4.953.27 5.281-.203.328-.17.754-.17.754s.947-1.115.778-1.541c-.169-.427-.304-3.576.61-5.38.68-1.346 2.908-4.462 2.908-4.462s1.183 4.034-.485 7.12c-1.206 2.23-2.526 2.58-2.526 2.58s-.835 1.634-1.352 2.23c-.237.274-.856 4.462-1.443 5.118-.586.656.722-.306.722-.306s1.082-4.2 2.345-5.205c1.262-1.006 3.561-3.15 4.058-3.28.496-.132-.71 4.636-2.165 6.254-1.323 1.472-3.517 2.361-3.968 2.361-.45 0-1.488 1.094-1.488 1.094s-2.39 4.505-2.93 4.724c-.542.218-.136.569 0 .569.135 0 .81-.263.81-.263s1.489-2.887 3.292-3.98c1.708-1.035 5.186-2.537 5.186-2.537s-.7 3.663-3.698 5.336c-2.627 1.466-4.509 1.312-4.509 1.312s-1.263.438-1.442.394c-.181-.044-3.564 4.239-4.555 4.287-.225.01-.36.305-.36.305l.902-.043s3.426-3.018 4.915-3.15c1.487-.13 5.365-.743 5.365-.743s-3.292 4.155-6.313 4.418c-3.02.262-3.517-.35-3.517-.35l-1.848.175s-4.34 3.04-5.693 3.04l.823.196s2.84-1.706 5.05-1.793c2.21-.087 5.591.787 5.816.656.226-.131-3.025 2.98-7.53 2.537-1.893-.186-3.246-1.094-3.246-1.094l-1.443-.174-5.952 1.224.315.219s2.843-.71 4.206-.558c2.063.23 5.489 2.001 6.436 2.482.947.481-5.636 1.4-7.891.35-2.254-1.05-2.48-1.924-2.48-1.924l-1.082-.35-.587.262-.112-.263ZM65.806 89.328l-.812-1.444s-.406-3.28-2.841-4.92c-2.435-1.64-3.584-2.953-3.584-3.15 0-.196-1.07 3.342 2.908 6.627 1.06.875 3.043 1.444 3.043 1.444l.44.459.102.557-6.392-1.312-.474-1.05s.643-2.722-.642-4.625c-1.285-1.903-2.706-3.64-2.84-4.035-.136-.393-.339-.919-.339-.919s-1.25 1.978.033 5.676c1.05 3.018 3.304 2.887 3.721 4.395.1.362-4.33-1.804-5.073-2.657-.744-.852-.778-1.213-.778-1.213s1.218-2.789.61-4.396c-.61-1.608-1.59-4.593-1.59-4.724v-.886s-1.962 3.019-1.59 5.807c.372 2.788 2.164 4.199 2.266 4.723.101.525-4.396-3.575-4.633-5.019 0 0-.137-.395.061-.635.608-.733 2.095-2.194 1.968-4.121-.17-2.559-.474-4.396 0-5.183.473-.787-2.516 1.67-3.145 5.019-.373 1.979.744 4.133.744 4.133l-.034.689s-3.213-4.199-2.908-5.675c0 0 3.043-2.066 3.584-5.02.45-2.452.609-2.886.779-3.148.168-.262.438-.787.438-.787s-3.77 1.593-5.004 5.412c-.18.559 0 2.657 0 2.657l-.17.886s-1.826-4.363-1.69-6.266c0 0 2.976-.918 4.362-2.394 1.387-1.477 2.47-4.1 2.841-4.461.372-.361.676-.69.676-.69s-3.517.329-5.546 2.69c-2.03 2.362-1.758 3.937-1.961 4.298-.049.086-.406.262-.406.262-.15-1.442.087-5.77 1.014-6.495 0 0 3.044-.197 4.296-1.05 1.25-.853 3.618-3.181 3.99-3.444.372-.262.913-.492.913-.492s-2.47-.987-6.493 1.214c-1.32.721-2.063 2.558-2.334 2.92-.27.36-1.048 1.016-1.048 1.016s1.623-5.773 2.537-6.167c.912-.393 3.11.427 4.531 0 1.42-.427 4.904-2.23 5.276-2.395.372-.163.947-.163.947-.163s-3.382-1.542-6.223-.624c-2.84.919-2.705 1.903-3.652 2.46-.947.558-1.116.46-1.116.46s3.686-5.216 4.058-5.216c.11 0 .503.022.913.164.96.331 2.63 1.086 3.483 1.017 1.218-.099 5.41-.755 5.919-.755.506 0 1.014.033 1.014.033s-2.537-2.25-6.054-2.296c-2.536-.033-3.618 1.28-4.633 1.28-.304 0-.609.032-.609.032s3.72-2.23 3.99-2.23c.272 0 3.672 1.143 7.34-1.837 2.502-2.034 4.802-1.838 4.802-1.838s-5.615-1.866-8.86-.328c-2.976 1.41-3.18 3.477-3.18 3.477s-4.328 2.395-4.294 2.56c.033.164.169-.657.169-.657s3.99-2.854 4.6-5.544c.608-2.69.912-3.641.912-3.641s-4.502 1.72-5.546 5.708c-.541 2.067 0 2.952 0 3.083 0 .132-1.285 3.38-3.618 5.709-.34.339-.744 1.311-.744 1.311s-.136-.918.034-1.115c.168-.196 2.57-3.05 2.603-6.003.034-2.953-.067-4.2-.067-4.2s-3.447 2.49-3.585 6.857c-.067 2.133.812 3.018.812 3.182 0 .164.067 1.903-.068 2.034-.135.131-1.962 4.527-1.962 5.544 0 1.017-.101.787-.101.787s-.474-1.28-.27-1.608c.203-.327 1.217-2.92 1.014-4.821-.143-1.342-1.15-5.282-1.522-5.708-.372-.427-2.401 4.494-1.556 7.25.846 2.755 1.725 2.952 1.725 2.952s.203 2.132.541 2.69c.338.557-.473 4.953-.27 5.281.203.328.169.754.169.754s-.947-1.115-.778-1.541c.17-.427.304-3.576-.609-5.38-.68-1.346-2.908-4.462-2.908-4.462s-1.183 4.034.484 7.12c1.207 2.23 2.526 2.58 2.526 2.58s.836 1.634 1.352 2.23c.238.274.858 4.462 1.443 5.118.587.656-.721-.306-.721-.306s-1.082-4.2-2.345-5.205c-1.262-1.006-3.562-3.15-4.057-3.28-.497-.132.71 4.636 2.164 6.254 1.323 1.472 3.516 2.361 3.967 2.361.451 0 1.488 1.094 1.488 1.094s2.39 4.505 2.931 4.724c.541.218.136.569 0 .569-.135 0-.812-.263-.812-.263s-1.487-2.887-3.29-3.98c-1.709-1.035-5.186-2.537-5.186-2.537s.699 3.663 3.697 5.336c2.628 1.466 4.51 1.312 4.51 1.312s1.262.438 1.442.394c.18-.044 3.563 4.239 4.554 4.287.226.01.361.305.361.305l-.902-.043s-3.426-3.018-4.915-3.15c-1.488-.13-5.366-.743-5.366-.743s3.292 4.155 6.313 4.418c3.021.262 3.517-.35 3.517-.35l1.849.175s4.34 3.04 5.693 3.04l-.823.196s-2.841-1.706-5.05-1.793c-2.21-.087-5.592.787-5.817.656-.226-.131 3.026 2.98 7.53 2.537 1.893-.186 3.247-1.094 3.247-1.094l1.442-.174 5.953 1.224-.316.219s-2.842-.71-4.205-.558c-2.063.23-5.49 2.001-6.436 2.482-.948.481 5.636 1.4 7.89.35 2.255-1.05 2.48-1.924 2.48-1.924l1.083-.35.586.262.113-.263ZM66.865 33l-7.067 3.128 2.649 1.714.009-.655.001-.096.093-.023a18.368 18.368 0 0 1 4.039-.556c1.456-.032 3.01.121 4.63.556l.093.025-.001.097-.01.64 2.63-1.702L66.866 33Z" fill="#DAD8D2"/><path fill-rule="evenodd" clip-rule="evenodd" d="M66.594 36.76a18.09 18.09 0 0 0-3.896.528v2.67h8.364v-2.674a16.129 16.129 0 0 0-4.468-.524Z" fill="#DAD8D2"/><path d="M61.056 36.64v2.823h-.196V36.64h.196Z" fill="#DAD8D2"/><path fill-rule="evenodd" clip-rule="evenodd" d="M60.555 40.036h.806l-.16-.924a.366.366 0 0 0 .066-.212c0-.189-.138-.342-.308-.342-.17 0-.308.153-.308.342 0 .084.027.16.072.22l-.168.916Z" fill="#DAD8D2"/><path fill-rule="evenodd" clip-rule="evenodd" d="M65.633 49.861c.187.09.3.254.331.501-.337-.166-.972.261-1.078-.25.254-.06.302.085.497.083-.087-.245-.375-.29-.58-.417.23-.585.663.62.83.083ZM66.462 58.04c.007.258-.25.248-.498.25.117-.134.286-.214.498-.25ZM64.222 60.793c-.124.097-.202.241-.414.25.085-.28-.258-.13-.415-.166-.18-.161.606-.053.83-.084ZM56.84 63.38c.342.167-.056.762-.415.75.12-.268.31-.467.415-.75ZM60.987 65.216c.206.31.433.138.747.25-.455.133-.994.107-1.41 0-.085-.39.623.016.663-.25ZM70.443 67.719c-.253.183-.286-1.337 0-1.419v1.419ZM57.67 69.22c.267-.018.35.148.663.084.033.2-.378-.046-.249.25-.197-.052-.386-.112-.414-.334ZM69.78 70.973c.192.307.029.972.083 1.418-.348-.275-.075-.975-.083-1.418ZM70.111 71.724c.178-.037.008.992.166 1.252-.504-.136-.031-.743-.166-1.252ZM69.53 71.808c.231.183-.01.594 0 .834-.23-.184.012-.594 0-.834ZM64.057 72.892c.19.318-.473 1.183-.83 1.502.14-.638.678-.876.83-1.502ZM68.121 73.977h.249c-.222.694.173 1.371.249 2.003-.486-.346-.454-1.213-.498-2.003ZM67.872 74.06c.19.17.03.692.083 1-.322-.02-.16-.84-.083-1ZM68.536 74.227c.235.125.23.491.248.834-.163-.196-.195-.526-.248-.834ZM64.222 74.978c.19.252-.355.474-.497.668-.151-.212.405-.424.497-.668ZM59.991 75.646c.254.18-.079.47 0 .75-.237-.164.03-.52 0-.75ZM64.056 77.148c.158.029.103.657.083 1.001-.19-.17-.03-.693-.083-1.001Z" fill="#5C5C5B"/><path fill-rule="evenodd" clip-rule="evenodd" d="M70.527 65.716c.146.02.189.143.166.333.337-.376-.342-1.277.248-1.418.02.295-.217 1.397.25 1.502-.105.34-.346.543-.333 1.001-.025.26.24-.212.25.084.263-.18.793-1.2.248-1.169-.261-.543-.295-1.316-.331-2.086.464.19-.003.705.248 1.252.262-.329.074-1.175 0-2.003.297.258.228.883.332 1.335.177-.68-.152-1.57-.166-2.336.146.16.176.435.249.668.121.001.263-.352.249 0 .067-1.343.085-1.918-.083-3.171-.09.44-.438-.029-.415-.417.32-.036-.044.25.249.333.212-.355-.435-.561-.58-.834.05-.173.128-.316.414-.25-.04-.85-.508-1.27-.995-1.67.026.364.095.683.166 1.002.325-.082-.117-.418.248-.417.517 2.556.035 5.846-.746 8.594-.223-.098 0-.435 0-.584-.22.39-.535.686-.498 1.335.22-.113.199-.467.332-.667-.099 1.26-.936 1.94-1.493 2.67-.051.067.067.187.083.167-.344.434-.933.93-1.493 1.252-.54.308-.7.575-1.41.834-.244.089-1.355 1.145-1.41 1.251-.118.226.37-.056-.084.167-.359.177-.534.744-.912 1.169-.578.649-1.195.87-1.659 1.585.312-.105.932-.62 1.161-1.085.051.886-.673 1.715-.746 2.754.445-.47.462-1.37.995-1.752-.404.927-.596 2.069-.912 3.087.471-.694.727-1.605 1.161-2.337-.07.599-.577 1.477-.83 2.17.564.259.414-.918.913-1.001.204.374-.286.766-.249 1.251-.216-.576-.198.348-.414.5.181-.055.316-.043.248.502.098-.014.07-.153.083-.25.209.16-.097.507-.083.75.269.103.064-.27.332-.167-.24.519-.346.75-.249 1.502.5-.86.469-2.254.83-3.254.219.666-.353 1.257-.249 2.086.547-1.124.88-2.4.912-3.838-.191.085-.171.383-.165.667-.125.246-.125-.553 0-.584-.212.01-.322.121-.332.334-.22-.39.473-.579.497-1.001.239.09.394.135.332-.25.19.17.03.692.083 1 .182-.072.397-.54.25-.667.035-.23.26-.004.165.167.123-.117.178-.266.166.084.173-.18.01-.73-.249-.751-.363-1.233.603-2.049.415-3.088.294.463.282-.378.497-.5.28.45-.303.75-.249 1.251.303-.113.347-.487.498-.75.027.96-1.575 2.043-.746 3.504 0 .428-.122.547 0 .918.252-.103-.09-.288 0-.5.316.237.141.97.58 1.084-.232-.573-.381-1.23-.497-1.92.19-.025.092.241.248.25-.045-.342-.237-.539-.248-.917.152.286.578.587.912.918.006-.368-.177-.546-.498-.584.302-.47-.324-.913-.083-1.335.175.772.491 1.135.747 1.585.065-.235.11-1.166-.415-1.085.064-.314-.101-.399-.083-.667.169.08.18.32.166.584.3-.36.367-1.723.249-2.503.179.07.293.205.249.5.304-.334.244-1.034.415-1.502.112.026.069.21.083.334.166-.416.269-.897.746-1.001-.157.258-.285.548-.415.834.076.227.155-.222.415-.083-.063.364.103.773 0 .918-.131-.174-.172-.44-.166-.751-.24.3.056.775.166 1.001-.38.076-.237-.374-.415-.5-.41 1.25-1.01 2.08-.83 3.587.228-.333.104-.6.167-1.168.137-.017.09.624.165.167.246.799-.078 2.688.25 3.505-.331-.086-.71-.122-1.079-.167-.097-.292-.014-.765-.249-.918-.272.566.328 1.208.83 1.669.154-.152.594-.014.663-.25-.154 1.38-1.903.57-2.073-.501-.274.048-.12.315-.083.5-.272-.06-.092-.575-.415-.584-.222.31.167.72.083 1.168-.205-.183-.096-.682-.249-.917-.327.213-.064.77.083 1-.168.244-.216-.331-.332-.416-.384 1.171-1.111 1.997-1.244 3.42-.279.086-.13-.259-.166-.416-.39 1.443-.484 3.628-.913 4.756-.502.04-.602 1.165-1.16 1.251-.89.139-1.317-1.243-1.328-2.42-.112.026-.069.21-.083.334-.364-.29.193-.706.25-1.085.243-.13-.306.543-.084.668.22.025.214-.174.249-.334.123.07.12.269.166.417.237-.126.258-.519.166-.75-.102.036-.17.106-.166.25-.222-.183.298-.645.083-.835-.097.125-.24.205-.249.418-.226-.077.116-.261 0-.501-.336.246-.342.825-.58 1.168-.071.015-.079-.032-.084-.083a.393.393 0 0 1-.082-.25c.08.002.064.101.082.166.286-.409.489-.9.581-1.502-.363.275-.371.906-.663 1.252-.34-.534-.196-1.396-.083-1.92.037.339.08.733.166 1.085.295-.667.876-1.429.58-2.42-.45.31-.308.915-.663 1.169.098-.207.12-.491.165-.751-.246.086-.106.56-.415.584.035-.383.383-.8.25-1.085-.234.35-.393.774-.498 1.252-.146-.396-.428-1.116-.083-1.502-.477-.114-.292-1.195-.415-1.752-.187-.183-.308.409-.58.417-.097 2.29.183 3.972.165 5.757-.41-.116-.448-.605-.663-.918-.149-.01-.175.103-.332.084a14.396 14.396 0 0 1-.498-3.588c-1.23.945-1.546 2.076-2.82 2.753-.303-1.583-.593-2.574-.249-4.088.113.026.07.209.083.333.281-.254 0-.656.166-.917.18-.199-.041.17 0 .334.364-.782.65-1.229.913-2.003-.319.403-.506.938-.747 1.418-.009-.34.635-1.99.995-2.002.112-.303-.072-.742-.083-1.168-1.494-.083-2.625-.53-3.65-1.085-.125.281-.313.234-.58.083.004-.674.609-.313.747-.75.551.39 1.023.123 1.493.584.205-.061-.274-.251 0-.418.19-.025.092.242.248.25.438-.063.3-.437.25-.834.278-.086.128.26.165.417.154-.012.05-.282.166-.333.098.232-.1.768.332 1 .185-.164-.081-.58-.083-.834.444.525.19 1.349.747 1.836.082-.308-.218-.948-.332-1.335.255-.197.195.635.332.835.299-.99.098-2.159.082-3.088-.01-.569-.002-1.097 0-1.669.008-2.109.285-4.134.498-6.174.081-.777.5-1.479.664-2.17-.353.23-.337.83-.58 1.168-.176-.849.912-1.858 1.077-2.92.93-.985 1.394-2.437 2.24-3.504v-.334c.63-.395.879-1.174 1.161-1.92.081.003.065.103.083.167.059-.37.13-.353.25-.75-.049.199-.23.124-.25-.084-.096-.982.726-2.925 1.079-3.671.423.122-.238.441-.083.834.177.262.258-.556.498-.25-.174-.256.025-.757.248-.584-.075-.303-.245-.051-.498-.084.131-.863.776-1.39 1.328-1.585.196.176-.36.302-.332.584.277-.422.813-.183.912-.667.228.142.347.201.415-.168.074.249.23.204.332.25.284-.131.17-.663.498-.75.04-.11-.412-.037-.332.167-.184-.01-.036-.354-.083-.501-.394.046-.542.7-.995.417-.09.213.388.324 0 .334-.02-.39-.248.18-.498.083.935-1.395 2.596-2.06 4.562-2.42 2.822-.212 4.378 1.24 5.724 2.754.19 1.067.374 1.942.248 2.92-.247 1.928-1.174 3.515-.663 5.675.17.72.555 1.225.746 2.002.351 1.434.133 3.024 0 4.423-.052.545.061 1.09 0 1.585-.13 1.056-.586 2.284-.83 3.255-.12.48-.288 1.096-.165 1.668-.634-.465.113-1.836-.415-2.336-.402.708.023 1.96 0 2.837-.219.025-.272-.116-.249-.334-.287.434-.27 1.175-.746 1.418.346-.969 1.07-1.968.663-3.42.067 1.459-.398 2.299-.912 3.337.227.34.099.555.083 1.001-.161-.116-.124-.431-.25-.584-.178.07-.133.367-.248.501-.07-.365.195-1.016 0-1.585-.584.358-.577 1.311-1.244 1.585.04-.655.04-.802-.083-1.335.345.695.177-.657.332-.918.19.143.03.637.082.918.307-.22.355-.7.415-1.168.521.249.28-.925.498-1.252.754.497.433-1.428.498-2.17Zm-9.29 14.852c-.193-.026-.319.014-.415.084-.165-.057.052-.497-.25-.418-.117.495-.232 1.072.084 1.502a.593.593 0 0 1-.166.25c-.115-.05-.013-.32-.166-.333-.138.247-.191.512 0 .75.089-.205.188-.452.332-.166.087-.245.114-.553.249-.75 0 .11.145.075.166.166-.19.065-.081.516.166.417-.046-.395-.066-.51.248-.667-.002.307.038.574.332.584.076-.74-.18-1.016-.166-1.502-.234-.113-.208.442-.332.167.042-.307-.176-.524-.083-.835h-.248c.114.314-.083.568.248.751Zm-.25-1.836c.097.513-.513.826-.082 1.168.023-.392.403-.936.083-1.168Zm6.387-33.376c-.113.163-.507.045-.663.167.209.36-.156.103-.166.417.337.09.987-.372 1.245-.167-.34-.191.264-.111.248-.25-.368-.184-.849.26-1.16.083.107-.093.788-.032.496-.25Zm1.992.667c.237.197.44-.053.663.084.102-.53-.637-.492-.663-.084Zm-1.908.334c.229-.093.465-.13.414.25.311-.132.678-.208.996-.333-.22-.268-.771.12-.913-.084.14-.164.578-.031.58-.334-.478.047-1.075-.024-1.077.501Zm3.815.167c-.087-.274-.356-.365-.58-.5.036.324.379.341.58.5Zm-1.078 2.837c.299-.91.457-2.278 0-3.087h-.25c-.199.882.224 1.906.25 3.087Zm-5.143-2.587c-.034-.2.152-.181.083-.417-.336-.048-.263.343-.083.417Zm3.484.418c.206.197.488 0 .746 0-.023-.376-.762-.487-.746 0Zm.58-.668c-.366-.1-.72.04-.995.25.26.32.83.022.996-.25Zm2.157.25c-.019-.258-.294-.26-.497-.333.028.25.284.524.497.333Zm-4.313.25c-.274-.584-.367-.444-1.161-.417.241.413-.664.561-.166 1.002.105-.26.517-.645.83-.417-.198.052-.387.112-.416.334 1.623.066 2.754.97 3.401 1.752-.06-.256.143-.246.083-.501-.781-.66-1.2-1.685-2.571-1.752Zm-2.157.251c0 .084.068.1.083.167.327-.09.505-.327.58-.668-.337.05-.563.213-.663.501Zm.083-.417c-.198-.118-.603.133-.663.417.4.04.587-.133.663-.417Zm5.89.5c.234.07.214-.117.414-.083.01-.288-.167-.388-.497-.334-.027.194.013.32.083.417Zm.249.501c.093.018.128.093.165.167.484-.051.557-.682.913-.417v-.334c-.254.06-.302-.085-.498-.083-.104.312-.422.409-.58.667Zm-2.157-.334c.068.21.378.176.663.167.019-.158-.093-.184-.083-.334-.257-.008-.46.038-.58.168Zm-3.816.501c-.023.19.02.314.166.334-.205-.522.774.026.415-.668-.11.195-.37.24-.58.334Zm2.322.167c.163-.156.049-.402-.248-.334-.015.21.186.203.248.334Zm1.909-.25c.031.3.455.21.331.667h.332a2.316 2.316 0 0 0-.332-.75c-.144-.007-.258.018-.332.083Zm-5.392.667c.235-.014.345-.153.58-.167-.014-.263-.058-.497-.332-.5-.105.2-.302.307-.248.667Zm.663-.584c-.021.272.099.401.332.417.114-.106.114-.394 0-.5-.144-.007-.258.018-.332.083Zm7.217-.083c-.071.472-.488.2-.746.417-.32.268-.35 1.086-.664.834.036.332-.19.45.082.584a.392.392 0 0 0-.248.084c.288 1.14-.091 2.434.58 3.17.118.453-.292.919.166 1.002.075-.231-.17-.784.166-.751-.115.264-.04.661.083.918.128-.15.138-.418.498-.334.065.163.114.768.249.584-.129-.121-.073-.427-.083-.668.565-.321.571-1.205.746-1.919-.033-.16-.321-.066-.248-.333.268-.103.063.27.331.166-.266-.473.14-.154.084-.75-.27.048-.387-.057-.581-.084.159.52.033.808.332 1.168-.155.164-.304.026-.498 0-.087.236.137.573 0 .584-.097-.052-.217-.042-.332-.25-.015.249.319.51 0 .584-.05-.534-.368-.798-.663-1.085.31-.067.891.237.912-.417-.284-.035-.25.25-.415.334-.503-.106-.872-.346-.995-.835.441-.87.615-1.724 1.327-2.17.013.099-.014.238.083.251.08-.4.901-1.19-.166-1.084Zm.83 2.253c-.086-.342.447-.49.166-.752.072.173-.274.317-.25.167.147-.075.138-.307.332-.333-.023-.478-.055-.946-.415-1.085-.098.234-.186.48-.248.75.266.074.113-.274.332-.25 0 .084.067.1.082.167-.561.282.015 1.166-.58.918.03.303.193.473.414.584-.142-.004-.212.065-.248.167.455-.026.136.186 0 .25.285.037.465-.033.663-.083-.045-.121.097-.431-.082-.417-.02.09-.138.2-.166.083.2-.193.33-.452 0-.166Zm-8.959-1.503c0-.11.145-.076.166-.166-.197.049.236-.499-.166-.418-.007.148-.145.414 0 .584ZM60.407 53.2c.006.146-.019.26-.083.334.21.073-.028 1.372.166.918v-.167c.526-.446.55-1.147.415-1.92.394.051.328-.181.497-.5.036.4.328 1.1 0 1.002.276.325.098.913.498 1.251.196-.109.16-.45.249-.667-.227-.137-.627-.534-.332-.918.372.24.378-.104.58-.25.256.299.261.85.581 1.084-.093-1.186-.304-2.092-.166-3.337.485-.335.462-.973.498-1.586-.264.18-.254.634-.498.835.027-.103-.013-.516-.082-.25-.005.462-1.04.77-.913 1.334.256-.289.695-.778.995-.75-.18.157-.23.386-.248.5-.745.092.21 1.292-.415 1.585.064.02.164.003.166.084-.44-.303-.23.322-.58.334-.038-.384-.176-.757.33-.751.013-.359.132-.644-.165-.835-.22.144-.111.667-.166.751-.39.089.168-.313-.248-.25.04.319-.289.266-.166.667-.604.228-.422 1.226-.913 1.502Zm6.055-2.753c-.26-.53-.178-.6-.415-1.002.118.26.257.053.415-.083-.123-.126-.134-.366-.166-.584-.387.117-.31.184-.497-.167-.046.121.096.431-.083.417-1.7-.928-2.456 1.241-2.737 2.253.29 1.248.54 2.57 1.824 3.004.536.781 1.371.779 1.991.417-.007.357.298.145.498.417.221-.287-.206-.987.082-1.335-.052.404.11.59 0 .835.36-.159.304-1.332.747-1.335-.45.51-.246 1.836 0 2.336.11-.377-.117-1.153.166-1.585.154.235.044.734.249.918.264-.24-.109-.849.083-1.002.092.158.106.394.166.584.268.104.063-.27.332-.167.095-.297-.252-.572-.084-.667.615.133.477 1.022.83 1.418.103-1.076-.61-1.332-.995-1.919.28.136.354.479.746.5-.139-.288.068-.552 0-1 .164.025.165-.113.25-.167.313.515.205 1.466.165 1.919.678-.344.613-1.799.083-2.253.04.346-.294.217-.415.083.14-.968.198-1.366-.166-2.252-.485.154-.215-.452-.415-.585-.378.211-.512-.539-.83-.667-.518.346-1.06.072-1.492.5-.072-.121-.066-.322-.332-.25.004.275.14.416.083.751.588.188 1.15.4 1.41.918a.585.585 0 0 1 .166-.25c-.099.572.179.766.332 1.085.138-.168.223-.389.498-.418-.192.224-.483.35-.581.668-.176-.817-1.163-1.64-1.908-1.335ZM62.15 49.36v-.167c.29.25.418-.197.498-.417-.347-.039-.654.394-.498.584Zm8.71 1.752c.235-.57.703-.905.995-1.418-.454-.038-1.157.837-.996 1.418Zm-9.54-.75c.046.12-.096.43.083.416.047-.203.321-.177.25-.5-.158-.019-.184.094-.333.083Zm10.203.583c.251.031.172-.271.249-.417h-.249v.417Zm-10.7.167c-.675.165-.533 1.813-.498 1.752.095-.183.214-.34.166-.667.207-.209.362-.47.332-.918.36.002.43-.29.414-.667-.33-.026-.449.16-.414.5Zm2.073 3.171c-.034-.614-.173-1.09-.497-1.585-.091.282.27.786-.083.584-.064.428.301.861.166 1.084-.035-.16-.03-.359-.25-.333.015.374.157.621.416.75-.015-.351.127.002.248 0-.142-.317.246-.52.083-.583-.004.05-.012.098-.083.083Zm-.912.167c-.074.29-.407.755-.249 1.001.155-.29.268-.62.498-.834-.019.157.093.184.083.334-.237.017-.503.433-.332.584.135-.226.225-.497.498-.584-.171.384-.53.579-.581 1.084.38-.228.551-.67.83-1-.214-.291-.463-.589-.747-.585Zm-.83-.417c-.014-.125.03-.308-.082-.334-.032.317-.107.337-.166.75.266.074.114-.274.331-.25.079.415.198.801.084 1.002.496-.356.144-1.59-.084-2.003-.052.254.107.719-.082.835Zm2.24 0c.094-.255.116-.804-.249-.835.144.348-.212.75.25.835Zm-3.484.25c.315.168.33-.38.166-.417-.035.159-.178.21-.166.417Zm10.037.668c.241-.042.754-.586.415-.668-.025.337-.363.358-.415.668Zm-10.368.333c.144-.244.273-.503.331-.834-.382.033-.185.648-.58.667.118.02.14.138.248.167Zm4.23.418c.25-.304-.236-.517 0-.835-.337.024-.187-.03-.166-.25-.096-.07-.223-.11-.415-.084.104.285.06.72.249.918-1.048.02-.012 1.326 0 1.836.313-.113.536.286.415.334-.052-.046-.25-.34-.332-.084.12.218.323.294.166.584.257.165.218.11.497.25-.044-.472-.098-.646.084-1-.313.036-.378-.177-.498-.334.118.02.14.137.249.167-.01-.368.006-.453 0-.918.004.143-.064.214-.166.25-.197-.52-.2-.65-.249-1.001.017.093.092.13.166.167Zm-3.65-.25c.101-.127.163-.72 0-.835.027.348-.172.528 0 .834Zm9.622-.168a.39.39 0 0 0 .332.334c.038-.261-.072-.372-.332-.334Zm2.489 2.337c.063.33.256-.875-.166-1.085-.013.098.014.237-.083.25-.064-.534-.651-.843-.415-1.418-.44-.085-.407-.648-.912-.668-.064.242-.205.406-.581.334v.334c.535-.01.428.626.746.834.034-.105.107-.17.25-.167.152-.328-.333-.433-.084-.584.52.414.314 1.117.415 1.67.312.063.058-.444.415-.334.03.3.132.396.249.417-.152.177-.224.775.083 1.084-.107-.005-.115-.107-.249-.083-.036.509.337.606.497.918-.152.004-.28-.428-.414-.167.523.527-.133 1.092.498 1.585.078-.4-.222-.663.082-.834-.022.328.032.58.25.667.173-.866-.317-.77-.416-1.168.112.45.285-.364.166-.417.028.194.086.36.25.417.08-.946-.487-1.093-.581-1.585Zm-11.115-2.754c-.274.031-.317.294-.415.5.362.33.623-.073.415-.5Zm3.815 1.669c-.04-.365-.316-.947-.663-1.252.004.156-.064.177-.166.084-.025.32.357.483 0 .667.22.086.275.335.497.417-.156.02-.183-.094-.331-.083-.023.357.302.363.414.584-.465.084-.308.795 0 1.085.014-.336.057-.644.083-.751.106.005.115.107.25.083.072-.268-.275-.114-.25-.334.113.027.159.12.332.084.022-.356-.303-.363-.415-.584.098.012.188.148.25 0Zm1.825-.167c-.122-.425-.125-.466-.166-.918-.243.022-.255-.188-.498-.167-.102.27.27.064.166.334-.26.04-.339-.104-.414-.25-.277.051-.284.245-.58.083v.334c.624.164.628.908 1.326.75-.252-.19-.622-.263-.664-.666.113.22.531.133.498.5h.332Zm1.493 0c.017-.629-.474-.747-.746-1.085.14.569.324.715.746 1.085Zm-1.244-1.085c-.059.31.142.359.083.668.394-.206.445.367.83.417-.212-.455-.478-.855-.913-1.085Zm1.742.835c-.025-.337-.072-.651-.332-.751-.141.395.117.512.332.75Zm.58-.5c.026-.22-.114-.275-.331-.251-.084.278.115.273.331.25Zm1.079 1.668c-.22-.725-.218-1.673-.996-1.836.32.625.534 1.355.996 1.836Zm-8.212-.334c.33-.167.723-.88.415-1.168.012.34-.43.589-.415 1.168Zm0 .084c.16.208-.127.343.083.5.168-.295.828-.825.415-1.168-.16.318-.064.824-.498.668Zm.415-1.502c-.154.02-.41.355-.25.417.075-.148.337-.107.25-.417Zm-3.733 2.92c.425-.086 1.046-.662 1.327-1.168-.017-.094-.092-.13-.166-.167-.227.498-.839.73-1.161 1.335Zm1.576-1.669c-.026.113-.118.16-.083.334.608-.235.694-.689.664-1.418-.487.372-.786.934-1.162 1.418.327.023.254-.357.58-.334Zm8.627-.5c.217-.17-.084-.522-.25-.584.072.205-.02.577.25.584Zm-10.037.166c.02-.127.136-.012.166.084-.33.295-.282.962-.166 1.335.349-.641.458-1.482.498-2.086-.117.22-.65.454-.498.667Zm.746.418c.091-.084.312-.455.083-.584-.022.152-.298.467-.083.584Zm.58 1.168c-.098.35.35.149.416.334-.134-.036-.279.31-.083.333.31-.216.515-.539.83-.75.025.252-.093.648.165.667.017-.6-.183-.984-.166-1.585h.25c-.004-.303.046-.66-.167-.751-.001.434-.678.827-.332 1.084-.36.017-.272.58-.331.668-.12-.426-.4.245-.581 0Zm8.13-.417c.832-.26-.505-.97.083-1.002-.56-.188-1.149.65-1.742.418.42-.134.808-.3 1.161-.501-1.023-.27-1.398.813-2.322.918-.157.287-.146.743-.58.75-.02-.157.093-.183.082-.333-.908-.215-.257 1.83-.912 1.335.04.264-.15.295-.084.584-.261-.239-.235.318-.497.334-.165-.001-.106-.228-.332-.167-.219.28-.159.842-.58.918.113-.554.584-.747.663-1.335-.62.377-.83 1.167-1.078 1.919.203.27.697-.133.83.083-.383-.05-.14.529-.333.668-.047-.146.1-.49-.083-.5.013.349-.042.2-.165.083-.161.16.087.336.083.584-.208-.107-.26.042-.332-.084v-.75c-.288.06-.233.466-.166.667-.191.026-.092-.241-.249-.25-.257.214-.226.718-.497.918-.09-.214.251-.398 0-.501-.322.15-.056.512-.332.584.06.278.344.271.165.584 1.156.515 1.62-.716 1.825-1.669.17.08.328.17.498.25.458-.206.516-.816 1.078-.918-.111.194-.235.375-.414.502.124.014.306-.03.331.083-.107.252-.69.088-.83.5.482.122 1.274-.164 1.494-.583-.277-.141-.283.053-.58.083.062-.215.264-.29.58-.25.114-.108.082-.363.083-.585-.31-.088-.131.313-.415.25 0-.083-.067-.099-.083-.166.27-.007.447-.107.498-.334-.008-.258-.324.258-.332 0-.087-.588.505-.493.58-.918-.211-.09-.29.36-.414.084.25-.305.605-.504.83-.835-.412-.107-.31.301-.581.334.228-.222-.06-.293-.083-.5.817.263 1.845-.565 1.659-1.002-.137.001-.047.231-.166.25-.11-.204-.25.15-.332-.083.346-.097.4-.488.581-.751-.04.44.223-.194.248.083-.076.227-.131.394.084.501-.254.106-.042.272-.166.584.197-.052.386-.112.414-.334-.025-.252-.256-.298-.165-.667.334.058.204-.351.497-.334 0 .084.067.1.083.167-.26.045-.299.311-.331.584.226.008.166-.139.331 0 .06-.19-.003-.422.249-.584.052.436.111-.176.332-.083-.035.159-.237.15-.166.417Zm-8.295 6.675c-.374-.406-.712.45-1.161.5.358-.501.272-1.45.58-2.002-.308.023-.168.498-.414.584-.156-.159-.01-.21 0-.417-.317-.069-.098.402-.415.334.527-.98 1.112-2.319 1.659-3.004-.257-.349.528-.955 0-1.335.115.34-.329.39-.415.667-.228.736-.69 1.087-.663 1.585.02-.09.136-.2.166-.083a4.948 4.948 0 0 0-.913 2.003c-.106-.005-.115-.107-.249-.084-.047.345-.448.675-.249 1.002-.224.045-.206.067-.497.167.01.455 0 .89-.166 1.168-.046-.121.097-.431-.083-.418.026.475-.427.904-.166 1.336.203-.435.41-.867.58-1.335-.118.36-.14 1.494-.414 1.168.17.94-.73 1.923-.58 2.837-.015-.33.127.026.248-.167-.003-.387-.122-1.327.498-1.335.382-1.434.763-2.694 1.576-3.839.01.453-.208.602-.166 1.252.372.182.952.155 1.161.5-.12.046-.428-.097-.415.085.31.115-.244.012-.166.166.495.227.212-.106.581-.166.07.346.356.475.664.583-.41-.081-.215.314-.332.334-.519.13-.792-.424-1.162-.167.304.131-.192.125-.082.334.29.265.692.416 1.078.584.025-.164-.112-.166-.166-.25.376-.15.722.212 1.328.083-.027-.419-.655-.232-.747-.584.39-.204.676.38.83-.167-.002-.138-.23-.046-.25-.167.334.086.369-.13.498-.25.127.15.569-.016.498.334-.268.103-.064-.27-.332-.167.24.31 1.572.549 2.074.25.06-.226-.391.06-.332-.167.288.067.319-.124.58-.083-.132.363.289.302.084.5.22.099.488-.16.497 0-.05.005-.098.013-.083.084.25.084.147-.186.166-.334-.171-.05-.545.103-.58-.083.234-.132.352.096.58-.084-.181-.21-.063-.332-.166-.5-.26.148-.845-.093-1.244-.084-.004-.153.425-.282.166-.417-.093.135-.66.219-.415.418.005-.089.106-.066.083.083-.268.047-.417-.026-.498-.167-.045.121.097.431-.083.417-.269-.048-.385.057-.58.084.192-.192-.04-.385-.166-.501.264-.072.315.072.414.167-.057-.31.355-.144.415-.334-.412-.05-.96.197-1.16.083.258-.317 1.713.13 1.824-.584-.594.046-1.196.368-1.576.167.256-.02.469-.084.664-.167-.031-.415-.123-.51.083-.834-.204.057-.775.315-.415 0-.347-.056-.648.095-.332.25-.298.034-.643.021-.746.25.05.144.393-.006.414.167h-.415c.158.292.008.42-.248.501.004-.143-.064-.214-.166-.25.083.25-.185.148-.332.166-.025.164.112.166.166.25-.308.032-.566.014-.58-.25.76-.124 1.06-.713 1.41-1.251-.342-.046-.243-.535-.498-.668-.055.224-.035.522-.166.668-.197-.069.114-.54-.083-.334-.308.163-.406.537-.498.918Zm-.746 1.586c.159.345.646.402.995.333-.066-.37-.514-.228-.995-.333Zm.083 1.084c.188.635-.18.207-.332.5.169.026.22.168.331.251-.015-.461.67-.216.83-.5-.37.01-.514-.207-.83-.25Zm8.377-8.678c.24.242.196-.226.415-.25 0 .084.067.1.083.167-.236.152-.319.458-.498.667.52-.075.422-.383.747-.917-.221.181-.414.14-.249-.167-.383-.052-.348.318-.498.5Zm1.245-.75v.333c.2-.034.18.152.414.084-.036-.242-.175-.38-.414-.418Zm1.16.583c.097.282-.058.356.084.501.195-.196-.014-.41 0-.667-.502.233-.006-.314-.25-.501-.268-.103-.062.27-.33.167.013-.292-.023-.535-.167-.668-.107.037-.666-.102-.415-.5-.266-.074-.113.275-.331.25-.106-.005-.115-.107-.249-.084.494.733.945 1.102 1.659 1.502Zm-4.147-1.168c.017-.239.01-.455-.249-.417.01.213.016.43.25.417Zm-7.216 1.752c.02.12.137.141.166.25-.459-.071-.364.413-.664.501-.025-.927.516-1.95-.166-2.586-.05 1.126-.042 1.72-.166 2.92.25-.048.283-.421.498-.083-.254.18-.194.194-.249.5.266.074.172-.216.332-.25.173.311-.616.85-.083 1.252-.234 1.1-.83 1.835-1.161 2.837.71-.676 1.063-1.713 1.576-2.587-.24-.294-.283-.614-.332-.918.109-.085.306-.081.415-.167.014-.764-.139-1.2.249-1.502.025.392.225.608.497.751.088-.516.135-1.292 0-1.585-.256.267-.679.44-.663.751-.223.149-.16-.367-.25-.084Zm4.313-1.335c-.383.108-.228-.326-.415-.417-.149.462-.628.591-.746 1.085.143.033.212-.124.249 0-.286.372-.01.812-.25 1.252.024-.19-.02-.314-.165-.334.095.68-.82.343-.746 1.001.26.139.338-.31.414-.083-.023.405-.13.294-.166.75.547-.033.272-.894.58-1.168.012.296.137.475.25.668-.077-.994.634-1.703.83-2.336-.076.047-.306.344-.333.166.183-.177.483-.237.498-.584Zm-.332 2.253c.167-.325.085-.452.498-.584-.284-.495.165-.8-.166-1.168-.096.378-.601.783-.332 1.252.124-.098.098-.347.332-.334-.14.196-.51.595-.332.834Zm4.812-1.251c.024.22-.116.274-.332.25-.037.631-.706.626-.996 1.001-.143-.05.007-.396-.166-.417-.11.297.136.437-.249.417.002.392.073.852-.331.835.06-.09.324-.385.083-.501-.093.336-.286.325-.58.584.233.07.214-.117.414-.083-.165.192.02.092.083.25-.048.174-.206.238-.166.5.427-.105.569-.325.83-.417-.079.434-.707.487-.913 1.002.477.065.8-.538 1.078-.167-.47.298-.488.558-.58.918.483-.02.591-.81.995-.417.018-.066.07-.097.166-.084-.299-.634 1.06-.886.58-1.418.211-.01.322-.122.332-.334-.307-.248-.373.303-.58.417-.19-.087.039-.596-.166-.667-.36.197.223.618-.166.834-.1-.289-.225-.553-.166-1.001.206.197.52.033.414-.334.107.005.116.107.25.083.08-.147.38-.5.166-.667-.196.331-.566.488-.747.834-.235-.069-.215.118-.415.084.33-.484 1.517-.87 1.162-1.502Zm-1.826 4.422c.148.02.416-.084.332.167-.476-.12-.688.072-1.078.334-.185-.42-.843-.345-1.244-.334-.004.274-.14.415-.083.75.28.059.86-.075 1.244 0-.154.012-.277.056-.332.168.254.06.244-.144.498-.084a.396.396 0 0 0-.083-.25c.465-.06.551-.502 1.078-.5-.187.18.069.284 0 .583.294-.038.516-.148.664-.333-.22-.098-.489.16-.498 0-.202-.413.13-.853.166-1.085-.23.186-.433.398-.664.584Zm-2.156 1.085c-.191.324.09.664-.166.834.346-.042.455-.32.83-.334-.096-.346.174-.325.165-.583-.331-.028-.46.148-.83.083Zm2.986-.668c-.156-.494.355-.75.166-1-.31.116-.617.84-.166 1Zm1.327-2.503c.604-.037.102-.672.498-.918-.195-.138-.18-.486-.166-.834-.8.057.402.998-.415 1.085v.25c.42-.218.188.25.083.417Zm-.331-.918c.118.02.14.138.248.167v-.5c-.347.095-.561.324-.497.834.317-.02.367-.248.249-.5Zm-10.037 1.502c-.208.014-.26-.128-.332-.25.633-.174.074-1.034.498-1.419-.535-.184.095-1.172-.498-1.168.127.711-1.26 1.175-.58 1.92-.005.318-.103.538 0 .75-.001-.046.066-.095.082 0-.072.248 0 .752.083 1.085-.897.557-1.126 1.477-1.161 2.754.254-.054.589-.46.83-.25-.13.231-.52.2-.498.583.18.008.536-.228.58-.083.002.419-.52.31-.497.75.133.245.427-.132.497.084-.315.425-.635.835-.414 1.586-.2-.034-.18.152-.415.083.044.4.132.757.497.834.071-.265-.072-.316-.165-.417.122-.043.209-.123.331-.166.012-1.41.692-3.082.498-4.673 0 .046-.067.094-.083 0 .016-.124.2-.077.332-.084-.249-.698.462-.92.498-1.585-.143-.033-.213.124-.25 0 .154-.013.052-.283.167-.334Zm-1.825 6.091c-.37.295-.476.857-.747 1.252.432-.233.62-.712.747-1.252Zm4.81-8.594c-.016.267.14.36.333.417.03-.144.25-.516.083-.584-.066.165-.29.3-.415.167Zm7.964.918c.367.119.217-.283.498-.25-.036.159-.237.15-.166.417-.192-.152-.444.172-.498.417.604.198.68-.728 1.161-.918-.163.025-.164-.113-.249-.167-.19.435-.313-.178-.663-.083-.083.31-.177.218-.083.584Zm.166-.751c-.195-.027-.05-.396-.332-.334-.015.328.088.687.332.334Zm1.078.334c.006-.284.026-.583-.166-.668-.12.145-.035.59.166.668Zm.249.5c-.113-.254.31-.57-.083-.584.05.173-.103.548.083.584Zm0 .668c.28-.028.4-.65.249-.835-.268.092-.11.614-.25.835Zm-1.66.333c-.183.646.664 1.208.748.585-.02-.157-.137.047-.166-.084.235-.18.137-.696.497-.75-.052-.254.106-.72-.083-.835-.329.364-.593.794-.995 1.084Zm-7.215-.5c-.515.09-.46.925-.581 1.168-.158-.157-.209-.01-.415 0 .057.534-.3.036-.415.5.176.095.241.033.498.168.146-.132.109-.447.249-.585.175.565-.746 1.476-.332 2.003.367-1.05.906-1.926.995-3.254Zm11.447.75c.144-.143.091-.515-.084-.583-.113.112-.158.582.084.584Zm-.747.585c.169.025.22.167.332.25.065-.394.296-1.097-.083-1.251.055.473-.187.647-.249 1Zm-4.977 1.335c.547-.006.726-.382 1.244-.417.11-.471.461-1.144 0-1.502-.729.317-1.197 1.175-1.244 1.92Zm-11.364.083c.37-.29-.09.435.166.501.18-.598.51-1.044.746-1.585-.231-.157-.085-.694-.497-.668-.075.673-.689 1.218-.415 1.752Zm14.267-1.251c0 .084-.067.099-.083.167.341.037.076-.436 0-.501-.024.051-.206.321 0 .334 0-.047.067-.095.083 0Zm2.488.334c.318.017.31-.545.084-.668.192.327-.102.31-.084.668Zm-3.234.333c.289-.014.417-.192.497-.417-.416.062.11-.307-.166-.333-.183.397.042.399-.331.75Zm-3.401-.25c-.002.138-.23.047-.25.167h.333c-.096-.282.058-.356-.083-.5-.006.142-.54.167-.25.333.002-.11.23-.106.25 0Zm4.479.167c-.012-.156-.055-.28-.166-.334-.143.245-.417.36-.58.584-.113-.026-.16-.119-.332-.083-.5.614-2.336.494-2.074 1.252.055-.361.393.25.663-.084.073-.268-.215-.173-.248-.334.7-.13 1.336-.325 1.825-.667-.038.24-.358.197-.415.417.719.028.686-.7 1.327-.751Zm-.747 1.168c.605.089.7-.717.664-1.001-.323-.1-.725.437-.664 1.001Zm-4.894-.667c.195-.096 1.062-.052 1.245-.418-.34-.086-.679.257-.913 0 .181.015.264-.068.25-.25-.408.23-1.266.007-1.245.668.252.025.566-.314.663-.167-.083 0-.104.146 0 .166Zm-4.894 1.335c.003-.691.709-1.477.415-1.92-.148.565-.882 1.273-.415 1.92Zm3.07-1.085c.27.074.975-.053.912-.584-.294.141-.526-.031-.58 0 .225.269-.208.41-.333.584Zm.165.5c.318.147-.22.383.25.5-.316.018-.288.38-.416.585.275-.086.634-.086.83-.25.086-.544-.085-.395-.332-.5.145.006.258-.02.332-.084-.017-.261.056-.613-.083-.751-.334.025-.596.123-.58.5Zm9.29-.417c.324-.019.096.516.332.584.076-.335.17-.868-.082-1.084-.075.175-.13.37-.25.5Zm-6.801.584c.342.066.156-.4.497-.333-.052.53-.672.492-.497 1.251.257.164.218.11.497.25-.045-.572.387-1.023.166-1.752-.302.113-.537.293-.663.584Zm-3.07 0c.397.065.491-.174.498-.5-.362-.032-.398.266-.497.5Zm6.554-.5c-.132.073-.691.536-.664 0-.158.035-.357.03-.332.25.266-.073.26.128.332.25-.207-.01-.26-.159-.332.084.367.192.147.343 0 .584.535-.131.907-.867.996-1.168Zm-.415 1.752c0-.046.067-.095.083 0-.023.571.205-.493.498.083.29-.254.335-1.14.165-1.585h-.331c-.106.479-.702.906-.415 1.502Zm-2.24-1.335v.5c.368-.176.288-.069.581 0 .189-.467-.508-.045-.415-.416.146-.048.488.1.498-.084-.203-.205-.36.062-.664 0Zm5.89 2.336c.05-.2-.104-.605.083-.667.075 2.255.137-1.076.082-1.168.096.181.017.54.25.584-.006-.44.014-.905-.332-1.002-.26.822-.603 1.524-.083 2.253Zm-4.48-2.17h-.663c-.076.347.7.32.663 0Zm-1.078.501c.054.317.093.317 0 .668.264.01.216-.722.166-.75-.018.064-.07.096-.166.082Zm.415.25c.188-.038.668-.21.498-.333-.065.214-.535.019-.498.334Zm-3.318.335c.102-.12.285-.159.497-.167-.028.222-.206.292-.248.5.078.326.418.071.663.084-.065-.365.259-.514.166-1.002-.395.346-.914.156-1.078.585Zm2.24 1.335c-.065.018-.097.07-.083.167.212-.038.381-.117.497-.251-.124-.014-.306.03-.332-.083.194-.028.358-.086.415-.25-.309.014-.823.264-.498.417Zm-.25.5c.512-.072-.053.204.167.25.02-.173.364-.022.414-.166-.047-.147.1-.49-.083-.501-.104.2-.494.114-.497.417Zm.747-2.42c-.375.055-.194.286-.166.585-.292.044-.37.244-.663.083.04.327.426.449.497.083.063.313-.093.407-.331.418-.034.2.151.18.083.417.273-.031.414-.195.58-.334-.206-.109-.344.245-.415 0 .562-.135.457-.867.415-1.252Zm.747.668c.117-.188.445-.164.497-.417-.119-.195-.608.381-.497.417Zm-.498.75c.287.034.544-.39.663-.25-.206.309-.064.45-.082.919-.65.374-.963 1.09-1.328 1.752.503.34.578-.658 1.079-.334.278-.5.226-1.33.498-1.836.197.135-.068.735.249.751.316-.413.749-1.43.248-1.919-.152.599-1.153.342-1.327.918Zm3.069-.25c.112-.121.17-.66-.083-.667-.03.289-.097.444.083.668Zm-10.783-.166c.162.087.331.167.498.25a.396.396 0 0 1 .083-.25c-.11-.046-.57-.381-.581 0Zm10.285.166c-.019.498-.007.567-.082.919.368.008.31-.813.082-.918Zm.332.335c.006-.284.026-.583-.166-.668-.005.284-.025.582.166.668Zm-11.53 0v.667c.355.005.608.112.913.167-.238-.493-.59-.392-.913-.834Zm.664-.084c.052.254.184.426.498.417.046-.346-.322-.552-.498-.417Zm.083-.5c-.347-.016-.353.312-.58.416-.02.158.093.185.082.334.466.052.352-.48.498-.75Zm-3.235.166c-.064.185-.174.325-.166.584.287-.073.545-.175.664-.417-.191.026-.093-.24-.25-.25-.013.097-.13.09-.248.084Zm9.54.334c-.08.3.357.148.414.084-.005.106-.107.115-.083.25.279.086.129-.26.166-.417-.254-.06-.302.085-.498.083Zm.497-.334c-.235.014-.57-.072-.58.167.148.14.508.022.58-.166Zm6.387 2.003c.332-.59.004-1.354-.25-1.836-.172.554.098 1.335.25 1.836Zm-3.567.084h.249c.008-.26-.038-.464-.166-.585.048.27-.057.388-.083.585Zm.166-1.67c-.306.368-.924 1.391-.25 1.753-.22-.66.71-1.194.25-1.752Zm-3.4.418c.425.285-.128.225.082.584.23-.103.4-.265.332-.668-.2-.034-.18.153-.415.084Zm-9.789.417c.324.081.575-.338.25-.417.012.235-.25.194-.25.417Zm8.544-.25c-.365.078-.721.164-.995.334a.392.392 0 0 1 .082-.251c-.697.227-.865-.235-1.244-.167.377-.004-.249.313.166.418-.143-.005-.212.063-.249.166.2.005-.06.354.083.751.261-.096.202.131.332.167-.23-.313.308-.452-.083-.667.478.038.937.132 1.161-.25.098.123.314.129.415.25-.466.14.065.32-.332.584.098.013.236-.015.25.083-.374-.07-.251.36-.333.584.155.08.277-.25.332 0-.064.019-.164.002-.166.084.49.07.132-.196.498-.25 0 .083-.067.099-.083.166.154-.011.277-.055.331-.167-.03-.26-.193-.413 0-.667-.144-.007-.257.018-.331.083.06-.228-.165-.168-.166-.334.144.007.258-.018.332-.083.013.098-.014.237.083.25.018-.232.052-.7-.166-.834-.03.119-.423.285-.498.084.233-.021.805-.13.58-.334Zm-6.802.584c-.027-.201.416-.607 0-.668-.018.156-.214.553 0 .668Zm-1.41.083c.06-.089.324-.384.083-.5-.014.134-.278.43-.083.5Zm3.65.084c.192-.553-.928-.59-.996-.334.417.025.655.23.996.334Zm-1.41-.5c-.053.302.171.327.414.332.012-.262-.213-.286-.414-.333Zm7.382.332c.142.005.213-.064.249-.166-.377-.046-.455.21-.58.417-.295-.174-.056-.34 0-.584-.323.01-.765-.101-.664.334.205.108.402-.187.414 0-.127.15-.486.067-.497.333.226.418.685-.136.912.084-.407.045-1.229.559-.664.584-.237.061-.45.253-.165.417.105-.283.413-.363.497-.667.154.08.277-.25.332 0-.387.305-.782.604-.83 1.251.235.242.384.055.747.167.137-.14.18-.375.332-.5.15.515-.609.552-.415.834.026-.177.393-.018.332.167.347-.044.227-.399.415 0 .137-.344.11-.612-.166-.584.064-.524.209-1.298-.332-1.502.213-.013.701-.177.415-.417-.027.177-.257-.12-.332-.168Zm3.898.25c.217-.01.468-.412.25-.583-.117.16-.22.336-.25.584Zm-14.184.585c.248-.143.489-.729.415-.918-.218.173-.614.602-.415.918Zm6.304-.5c-.082-.508-.584-.236-.995-.25.317.098.51.32.995.25Zm-3.483-.167c0 .298.822.552.829.083-.028-.272-.68-.192-.83-.083Zm9.29 1.418c.307-.123.143-.178.332.083.073-.232.103-.507.249-.667.013.125-.03.308.082.334-.033-.202.152-.182.083-.417-.543-.129.34-.721-.165-.835-.197.455-.675 1.028-.581 1.502Zm-4.397-1.001c.22.025.273-.116.25-.334h-.25v.334Zm-.497 1.001c.388-.027.772-.058.746-.5-.692.278-.185-.648-.58-.668-.065.506-.225.786-.166 1.168Zm-3.816-.584c.093-.483-.375-.402-.663-.5-.079.468.462.313.663.5Zm3.65.5c-.044-.46-.018-.698-.498-.834-.096.39-.417.065-.58.417.023-.19-.02-.313-.166-.333-.026.112-.118.159-.083.333.177.232.451-.154.497.167-.239-.01-.543.046-.663-.083.016.522.946.452 1.493.334Zm-1.66-.333c-.334.248-.523.094-.746-.167.06.255-.084.304-.083.5.149.001.483-.224.581 0-.467.082-.59.382-1.078.25-.109.36.235.265.332.418-.294.01-.472.137-.664.25.171.023.02.37.249.334.008-.131-.011-.289.166-.25.008.13-.011.29.166.25.032-.143-.124-.214 0-.25.136.001.046.231.166.25.226-.446 1.206-.463 1.16-.917.267-.074.173.216.333.25-.092-.323.293-.297.083-.501-.344-.016-.756.036-.664-.417Zm10.618.417c-.052-.254.107-.719-.082-.834-.076.117-.237.855.082.834Zm-13.769 0c-.047.27.025.42.166.5-.159.04-.357-.257-.332.084.41.05.034.372.249.584.107-.503.602.042.912.084.024.145-.265.447.083.417.155-.29.064-.825.166-1.168-.498-.083-.854-.31-1.244-.501Zm1.41.25c-.076-.257-.344-.32-.249-.75-.427.068-.53-.19-.83-.251.17.428-.101.194-.33.334.083.444.667.385.828.75.22 0 .474.032.58-.082Zm9.622-.334c.224-.056.527-.465.332-.667-.124.21-.276.39-.332.667Zm-9.207.084c.284.085.197-.627.083-.667-.129.12-.073.427-.083.667Zm11.115.5c.374.102-.032.473.165.752.352-.204.391-.72.582-1.085-.278 0-.014-.543-.332-.5-.158.258-.285.547-.415.834Zm-4.314.418c.398-.212.498-.723.664-1.168-.661.036-.654.68-.664 1.168Zm2.074-.5c.06-.141.44-.384.166-.585-.06.14-.44.383-.166.584Zm-4.313-.084c.123-.105.762-.116.414-.418-.092.135-.66.219-.414.418Zm-2.24.25c.034-.217.248-.251.25-.5h-.333c.048.146-.1.49.084.5Zm-6.055-.417c-.524.044-.123.5-.415.75.214.222.4-.01.498.251-.64.032-.57.486-.498 1.085.533.091.264-.625.498-.834.109.412.276-.404.498-.418v.668c.208.11.201-.388.331-.084-.317.123-.328.68-.663.334-.095.263.13.203.166.334-.17.05-.346.16-.166.334-.112.026-.159.118-.332.083.123.43-.251.36-.166.751.29.065.237-.644.498-.334-.236.097-.369.599-.083.751.17-.163.174-.493.498-.5-.377.322-.38.956-.83 1 .048.148-.1.491.083.502.15-.183.136-.531.498-.501-.362.278-1.114 1.515-.25 1.752.472-1.387.472-3.315 1.08-4.339-.369-.11-.64-.992-.25-1.335-.172-.047-.268-.238-.414-.083.036.186.19.452-.083.5-.346-.089-.42-.075-.664.084.052-.226.347-.208.332-.5-.11-.205-.25.15-.332-.084.101-.01.197-.025.166-.167Zm2.323 2.336c.011.156.054.28.166.334-.013-.367.234-.023.331 0 .217-.26-.057-.497.498-.417-.244-.435-.605-.234-.746-.751-.194.083-.101.455-.25.584-.303-.056-.222-.5-.414-.667-.012.155-.055.278-.166.333 0-.11-.145-.076-.166-.167-.053-.332.22-.335.166-.667-.54.268.023-.438-.249-.584-.035.16-.03.359-.249.333.051.719-.094 1.15.166 1.586-.394.02.008.842-.249 1.001.33-.085.324-.51.498-.751a.75.75 0 0 0 .332.334c.071-.266-.13-.258-.166-.417.11.108.309.11.332-.084-.055-.093-.385-.323-.166-.417-.033.372.353.263.415.334.093.173.089.177-.083.083Zm4.81-1.752c.096-.099.094-.295.084-.5-.2.034-.18-.153-.415-.084.01.338.273.17.331.584Zm3.65.334c.262.04.293-.15.581-.084v-.417a.387.387 0 0 1-.249-.083c-.064.24-.18.43-.332.584Zm-2.24 1.919c.314-.462.161-1.172.333-2.086-.227.06-.168-.166-.332-.167-.032.327-.35.269-.498.083.023.19-.02.314-.166.334-.076-.146-.028-.416-.166-.5-.043.407-.218.46-.497.667.05-.078.193-.308-.084-.25-.122.015-.076.201-.083.334.589.172.935-.337 1.245-.167-.293.009.009.153-.249.25.201.066.367.083.498.167.082.609-.05.86 0 1.335Zm-2.487-1.752c-.154.02-.68.084-.498.166.124.015.306-.03.331.084-.23.075-.778-.171-.746.167-.06.226.39-.06.332.167h-.332c.086.272.21.177 0 .417.43.053.383-.468.498-.5.12.045.428-.098.415.083-.195.027-.343.1-.498.167.136.12-.113.641.083.5-.046-.396.21-.488.497-.334.004-.47.524-.418.995-.417-.074-.562-.8.232-.912-.334h.415v-.417c-.372.24-.378-.103-.58-.25-.09.078-.026.308-.25.25-.013-.098.015-.236-.082-.25-.063.34.176.379.331.5Zm.58.75c.55.05.558-.177.912-.166-.006-.146.019-.26.083-.334h-.414c-.025.164.112.166.165.25-.246.086-.663 0-.746.25Zm2.323.835c.582-.24-.088-1.405.331-1.669-.025.43.117 1.104-.083 1.836.384-.06.385-.945.498-1.001-.122.117-.044-.675-.332-.668a.42.42 0 0 0 .25-.25c-.21-.183-.331-.065-.499-.167-.004-.05-.012-.099-.083-.084-.096.733-.17 1.567-.082 2.003Zm5.889-.834c.202-.354.16-.709-.083-1.002-.178.261-.035.775.083 1.002Zm-10.12-.334c-.19.065-.08.516.166.417.132-.125.121-.476-.166-.417Zm-.912.25c.264-.05.256.157.414 0 .016-.182-.067-.265-.248-.25.025.164-.112.165-.166.25Zm-.25.5c.253-.139 1.162.19 1.328-.25-.437.06-.939.03-1.327-.166-.048.05-.194.395 0 .417Zm3.484 1.42c.412-.103.317-.953.167-1.17-.158.288-.036.855-.166 1.17Zm.415.667c.014-.098.131-.09.25-.084.152-.64-.07-1.196.082-1.752-.521.223-.444 1.464-.332 1.836Zm.498-1.836c-.024.404-.27 1.43 0 1.836.146-.132.109-.447.25-.584.12.402.555-.181.414-.584-.521-.046-.135.304-.415.5-.006-.42-.01-1.106-.083-1.001-.115.31-.012-.246-.166-.167Zm-1.327.584c.19.031.11.334.249.417.062-.25.15-.624-.083-.75.102.27-.269.063-.166.333Zm-.415-.083c-.34.09-.514.098-.746-.084.027.473-.726.16-.664.668.36.1.761.068.995-.167-.145-.048-.487.1-.497-.084.403-.01.931.103.912-.333Zm-2.654.667c.252.052.714-.106.83.084-1.172-.123-.616.264.165.25-.153-.368.133-.341 0-.584-.182-.184-.275.146-.497.167-.046-.149-.043-.347-.166-.417-.102.175-.23.325-.332.5Zm-2.406 0c.07.236-.117.216-.083.417.192.46.369.246.415.668.022-.117.182-.095.249-.167.021-.522-.386-.612-.58-.918Zm.25-.417c-.098.793.427.96.663 1.419.315-.05.561-.113.415.25.218.025.213-.174.248-.334-.197-.107-.395-.214-.58-.334.387-.148-.392-.723-.581-.584.185-.06.04-.475-.166-.417Zm1.41.417c-.203-.083-.177-.028-.498-.083.068.236-.117.216-.083.417.209.034.38.285.248.417.427.068.315-.406.332-.75Zm.331-.083h.332c-.035-.16-.03-.36-.249-.334.019.158-.093.184-.083.334Zm.166.667c.153-.02.68-.084.498-.167-.438.009-.283-.037-.083-.166-.298.049-.402-.097-.58-.167-.015.236.28.163.165.5Zm.083.167c.225.052.658-.106.746.084-.248.11-.634.085-.995.083v.334c.508-.157 1.285-.043 1.493-.5-.006-.162-.386.144-.166-.168-.362 0-1.099.059-1.078.167Zm1.327.5c.09.508-.415.418-.498.752.446-.156.792-.336 1.162-.25-.061.132-.406-.02-.332.25.49-.213.29.534.498-.167.034.105.107.17.248.167.073-.122.125-.265.332-.25.006-.395.043-.822-.248-.918.023.218-.031.359-.25.334-.06.255.144.245.084.5-.107.005-.115.107-.25.084-.033-.202.152-.181.084-.418-.261.096-.202-.13-.332-.166.203.456-.4.376-.498.083Zm1.493 0c.008.343.016.685-.083.919.503.088.025-.809.415-.835.117.346-.236.645 0 .835.227-.272.579-.42.498-1.001-.267-.074-.114.275-.332.25-.019-.148.084-.418-.166-.334-.075.281-.185.01-.332.167Zm-5.474 1.252c-.173.05-.268.176-.415.25.123.374-.079.674.249.918.134-.527.484-.644.331-1.084-.033.14-.216.55-.331.334.116-.106.004-.44.331-.334-.01-.156-.054-.279-.165-.334v.25Zm.166-1.168c-.124.312-.781.913-.415 1.168.241-.201.315-.573.663-.667.02.119.137.141.166.25-.204.567.239 1.056.249 1.67.39.155.488.1.996.083.043.123.122.21.165.334.406-.085.658.124.747-.334-.336-.163-.885-.112-.83-.668-.202.054-.426.169-.414-.167-.267-.073-.114.275-.332.25.007-.27.043-.513.166-.667.78-.116 1.362.35 2.074-.084v.25c.281-.319.908.053 1.078-.667-.493-.058-1.837.457-1.576.084-.51.358-.432-.076-.996.167v-.417c-.282-.062-.136.307-.331.333-.335-.15.096-.58-.166-.834-.172.157-.096.433-.166.5-.014-.247-.605-.132-.332-.416-.145.005-.258-.02-.332-.084-.115.39.506.696.581 1.168-.442-.307-.513-.986-.995-1.252Zm4.23 1.085c-.125.377-.492.759-.913.584-.014.125.03.308-.082.334-.193-.093-.222.018-.415-.167-.129.077-.102.192-.498.334-.054.332.316.239.58.25-.234.2.115.505-.082.668.482.04.107-.783.498-.835-.109.197-.036.577-.166.751.357.11.262-.236.414-.334.07.268.07.173-.083.334.513.043.467-.476.83-.584.019.065.002.165.083.167.252-.358.762-.457.83-1.001-.435.12-.489.621-.83.834a.308.308 0 0 0-.415 0c.025-.164-.112-.165-.166-.25.26-.057.14-.254 0-.334.193-.142.617-.487.415-.75Zm-5.64 3.004c.197-.186.757-.82.414-1.001-.05.421-.424.518-.415 1Zm.497-2.253c-.027.299-.451.869-.166 1.085.172-.198.578-.829.166-1.085Zm1.078.5c-.129-.02-.057-.182 0-.25-.345.049-.744.524-.414.752.12-.157.122-.434.331-.502 0 .047.068.096.083 0Zm1.328 1.086c.131-.061.351-.74 0-.751.028.23-.239.585 0 .75Zm-1.493.166c.02-.312.2-.466.248-.75-.435-.125-.753.698-.248.75Zm1.493.5c.296-.203.776-.662.746-.917-.205.35-.603.506-.746.918Zm-1.41-.25c.07-.265.11.149.082.25.306-.305.547-.21.664-.75a.39.39 0 0 0-.249.084c-.019-.065-.002-.165-.083-.167-.045.12.097.43-.083.417-.17-.023-.078-.311-.249-.334-.041.107-.21.499-.083.5Zm.829.084c.233-.127.478-.242.415-.667h-.25c-.155.12-.01.546-.165.667Zm-1.908.417c-.023-.332.418-.632.166-.917-.437.62-.569 1.28-.415 2.336.295.13.05-.283.25-.25-.008.396-.018.796.414.75V79.4c-.163-.025-.165.113-.249.167.09-.873.01-1.14.166-2.17.04.402-.154.569-.332.751Zm1.493.25c.274-.006.466-.527.249-.75-.08.254-.33.336-.249.75Zm3.07-.166c.185-.041.364-.516.248-.584-.037.24-.293.26-.249.584Zm-5.143 2.67v-.835c-.235-.083-.208-.122-.332-.166.023-.474-.181-.954-.083-1.419-.012.156-.055.279-.166.334.05-.234.336-1.006.166-.918-.533.903-.195 2.14.415 3.004Zm3.98-2.504c.08-.254.404-.26.416-.583-.289-.008-.605.387-.415.584Zm-2.322-.083c.052.227-.105.663.083.751.147-.181.468-.809.083-1 .022.219.171.273-.166.25Zm.415.834c.382.051.234-.431.498-.5-.09.55-.409.869-.58 1.335.325-.106.246.197.248.417.409.007.164-.327.166-.584.24-.287.612-.441.747-.834-.165-.158-.355-.078-.415-.167.277-.153-.057-.379-.166-.418.18.016.264-.067.249-.25-.385.374-.702.393-.747 1.001Zm4.728.334c.283-.074.5-1.02.25-1.085-.032.414-.11.782-.25 1.085Zm-5.557.334c.17-.188.598-.921.166-1.168-.064.33-.642.828-.166 1.168Zm4.396.084c.138-.284.01-.57.249-.752.019.066.002.165.083.168.05-.33-.186-.37-.415-.418-.183.12.105.204-.083.25-.005-.05-.012-.098-.083-.083.346.356-.025.597.249.834Zm-.498.25c-.011-.349.35-.757.083-1.085-.072.277-.425.917-.083 1.085Zm-.663.5c.09-.411.494-.946.331-1.334-.332.186-.67.996-.331 1.335Zm-4.894 1.67c.208-.069.115-.44.249-.585-.732-.283-.658-1.569-.747-2.253-.237 1.038.155 2.11.498 2.837Zm7.714-1.753c.12.213-.054.722.249.751-.16-.519.357-.83.083-1.502-.162.2.072.796-.332.751Zm-7.05.751c.098-.18.23-.578.082-.75h-.249c.075.23-.17.782.166.75Zm.248-.667c.11.258-.246.463 0 .584.17-.191.374-.348.415-.668-.235-.015-.193.314-.415.084Zm1.908 1.585c.323-.025.37-.974.083-1.085-.18.365.137.735-.083 1.085Zm5.143 1.502c.592-.288.561-2.018.083-2.42-.288.606.02 1.486-.083 2.42Zm-.332-.334c.015-.519-.093-.645 0-1.085-.266-.073-.114.275-.332.25 0-.11-.145-.075-.166-.166.285.071.047-.541-.166-.5.092.579-.102.727 0 1-.398.04-.212-.51-.663-.417-.08.478.154.77.332.751-.255.082.095.223.083.334-.17-.025-.163-.226-.332-.25.002.47.188.757.498.917.014-.236-.072-.572.165-.584-.023.219.03.36.25.334.06-.303.058-.719.082-.834.047.12.13.203.249.25Zm-1.078 1.502c-.055.556.096.905.249 1.252-.084 0-.1.067-.166.083-.06-.279-.095-.522-.25-.5.115-.108.083-.363.084-.585-.336.265-.098.154-.498 0-.02.28-.179.526.083.668.019-.065.002-.164.083-.167.108.207-.243.346 0 .417.01-.066.274-.252.249-.083-.026.113-.118.16-.083.333.672.85.883-.412 1.493-.584.09-.55.73-1.338.414-1.752-.01.156-.054.28-.165.334-.157-.01-.058-.276-.25-.25.024.19-.02.314-.165.334-.083-.111-.078-.31-.249-.334.171.311-.026.527-.166.75-.072-.121-.124-.264-.331-.25.132.374-.099.536-.083.751-.16-.014-.15-.617-.25-.417Zm3.732-7.927c.46-.108.216-1.14.083-1.252-.17.275-.045.846-.083 1.252Zm2.074-1.168c.006-.284-.244-.311-.415-.417.01.602.276.946.415 1.418.148-.442-.526-1.214 0-1.001Zm.249 1.168c.146-.048.487.101.498-.083-.128-.178-.483-.126-.58-.334-.07.236.116.216.082.417Z" fill="#5C5C5B"/><path fill-rule="evenodd" clip-rule="evenodd" d="M65.633 52.282c.414-.207.024-1.112.331-1.586.781.134 2.283-.039 2.157 1.252-.675.721-1.998.673-2.157-.417-.169.45.337.94.664 1.168.8-.002 1.155-.451 1.825-.584-.669.384-1.08 1.027-1.493 1.669-.26-.058-.108-.223-.083-.417-.421.21-.57.299-.995.584.102-.418.935-.48.663-1.002-.199-.033.046.38-.249.25.115-.106.05-.393.166-.5-.295-.14-.5-.558-.83-.417Zm1.659-.668c.087-.336.109-.6-.332-.584-.19.233-.046.664.332.584ZM67.209 61.127c-.058.247-.477.132-.498.417-.13-.23-.143-.579-.249-.835.074-.037.149-.073.166-.166.111.055-.023.51.25.25.264.146-.374.304-.084.5.158-.035.209-.18.415-.166ZM68.203 61.794c.25-.072-.239.379-.248.584-.227-.18.194-.411.248-.584ZM68.286 72.975c-.377-.377.218-1.078.166-1.669.29.146-.188.58.166.585-.217.009-.34.595-.332 1.084ZM69.863 73.894c-.149.01-.175-.103-.332-.084-.035.175.057.221.084.334.3-.214.362-.208.663-.334v.25c.456-.04.561.27.995.25.496 1.123 2.683.794 3.733 1.253-.04-.018-.06.454.166.166a.942.942 0 0 1-.58.501c-.04-.262.222-.22.248-.417-.692.117-.994-.025-1.327.5-.156-.27.352-.589.746-.584-.669-.329-1.621-.77-2.073 0 .085-.192.111-.444.414-.417-.617-.24-1.7-.349-2.405.167.218.368-.18.44-.249.751.38-.368.889-.608 1.244-1.001.11.03.13.147.25.166-.03.118-.147.008-.167-.083-.291.096-.303.473-.58.584.238.277-.001.515.166.834.163-.392.384-.725.83-.834-.057.194-.276.224-.333.417.524-.03.246-.491.498-.667.141.374.09.862 0 1.168.036.124.106-.033.249 0 .013.236-.25.194-.249.417-.088.311.311.132.249.418.13-.871.192-1.81.912-2.086-.22.334-.3.436-.415.75.096.172.331-.217.332-.417.263.31.123.014.415-.083.286.444-.518.745-.746 1.168-.283-.138.219-.548-.167-.584-.029.119-.186.434-.165.834.564-.012.312.798.746.918-.156-.566-.078-1.49.332-1.752.077.314.048.216.415.083-.065.269-.114.553-.25.751.016.235.145.356.416.334.284-.02.07-.541.414-.5.083.217.018.501-.082.75-.294-.036-.473-.128-.664.084-.181-.151-.528-.137-.498-.5-.262.215.083.522.083.75.268.103.063-.27.332-.167.001.428.413.01.415.5.142-.318.399-.03.497.168.098-.014.07-.152.083-.25.193.056.349.15.332.417-1.647.071-2.504-.846-4.48-1.002-.23.047-.231.323-.33.5-1.095.324-2.066-.263-1.826-1.25.174.075.253.246.25.5.211-.01.164-.28.165-.5.074.064.188.09.332.083-.447.202.68 1.395 1.16.667-.468-.507-1.256-1.118-1.16-1.919.153.235.228.55.332.834.234-.35-.233-.708-.25-1.084.42-.032.146.632.498.667.067-.016.083-.083.166-.083-.07-.373-.451-.436-.497-.835.3.087.287.49.58.585.067-.017.083-.084.166-.084-.054-.306-.306-.415-.498-.584.013-.183.21-.18.415-.167.03-.364-.15-.516-.332-.667.389-.249-.232-.56-.414-.751.446.089-.02-.627 0-1.085-.432.61-.305 1.293.331 1.585-.023.197-.22-.095-.331-.083.06.302.272.45.331.751-.077-.09-.305-.026-.248-.25-.19.115-.032.58-.083.834-.196-.22-.45-1.528-.166-1.419-.02-.146-.143-.19-.332-.166.167-.75.326-1.508.663-2.086-.163.057.02.465-.165.5.169.16.288.24.165.5.055.25.178-.08.333 0v.418c.191-.855.178.24.248.668Zm.332 1.001c-.071-.29-.259-.463-.415-.668.001.36.059.664.415.668Zm.912-.083c.024-.219-.03-.36-.248-.334-.024.218.03.359.248.334Zm-.995 1.668c-.012.207-.015.405.166.417-.077-.316.293-.503.166-.75-.124.097-.098.346-.332.333Zm1.493.918c.064-.057.216-.497-.083-.417-.025.195-.177.36.083.417ZM63.559 77.732c.216-.123-.088.468 0 .75-.192.15-.026-.582 0-.75ZM63.393 78.816c.15-.063-.009.577 0 .751-.238-.164.029-.52 0-.75Z" fill="#5C5C5B"/><path fill-rule="evenodd" clip-rule="evenodd" d="M61.078 85.428s.01.005.07.005c.06 0 .06-.004.058-.005l-.05-.256a5.588 5.588 0 0 1-.078.256ZM61.227 85.496s.01.006.07-.004c.059-.01.058-.014.058-.016l-.034-.253a6.834 6.834 0 0 0-.094.273ZM61.45 85.552s.01.008.07 0c.06-.006.058-.012.058-.014a1.174 1.174 0 0 1-.02-.317.976.976 0 0 0-.108.331ZM61.66 85.592s.008.007.068.007c.06 0 .059-.005.059-.007l-.019-.278-.108.278ZM61.882 85.606s.009.008.07.008c.06 0 .06-.004.06-.007a2.539 2.539 0 0 1-.007-.286c-.048.086-.085.188-.123.285ZM62.045 85.651s.01.006.07.006c.06 0 .06-.004.06-.006l-.02-.263-.11.263Z" fill="#5D4F4A"/><path d="M112.792 63.543V47.264h6.833c.733 0 1.406.153 2.017.459.612.305 1.147.71 1.605 1.215.459.504.81 1.07 1.055 1.697.245.626.367 1.268.367 1.926 0 .901-.206 1.765-.619 2.59a4.99 4.99 0 0 1-1.72 1.972c-.734.505-1.59.757-2.568.757h-4.402v5.663h-2.568Zm2.568-7.933h4.242c.489 0 .917-.13 1.284-.39a2.67 2.67 0 0 0 .848-1.1c.214-.459.321-.979.321-1.56 0-.596-.122-1.123-.367-1.582a2.682 2.682 0 0 0-.963-1.054 2.194 2.194 0 0 0-1.261-.39h-4.104v6.076Zm19.169 8.048c-1.177 0-2.239-.23-3.187-.688a7.72 7.72 0 0 1-2.453-1.857 9.082 9.082 0 0 1-1.605-2.66 8.736 8.736 0 0 1-.551-3.05c0-1.085.199-2.116.597-3.095a8.535 8.535 0 0 1 1.65-2.636 7.7 7.7 0 0 1 2.477-1.835 7.159 7.159 0 0 1 3.118-.688c1.162 0 2.216.237 3.164.711a7.518 7.518 0 0 1 2.453 1.903 8.685 8.685 0 0 1 1.582 2.66c.383.978.574 1.98.574 3.004a8.327 8.327 0 0 1-.596 3.118 8.569 8.569 0 0 1-1.628 2.637 7.788 7.788 0 0 1-2.5 1.81c-.947.444-1.979.666-3.095.666Zm-5.182-8.254c0 .764.123 1.505.367 2.224.245.718.589 1.36 1.032 1.926.459.55 1.009.986 1.651 1.307.642.32 1.36.481 2.155.481.825 0 1.559-.168 2.201-.504a4.747 4.747 0 0 0 1.605-1.353c.443-.58.78-1.223 1.009-1.926a7.062 7.062 0 0 0 .344-2.155 6.64 6.64 0 0 0-.367-2.201 5.585 5.585 0 0 0-1.032-1.904 4.956 4.956 0 0 0-1.651-1.33c-.626-.32-1.329-.48-2.109-.48-.825 0-1.559.167-2.201.504a4.977 4.977 0 0 0-1.628 1.352 6.563 6.563 0 0 0-1.032 1.903 6.919 6.919 0 0 0-.344 2.156Zm15.315-.115a8.3 8.3 0 0 1 .528-2.912 8.34 8.34 0 0 1 1.536-2.614 7.441 7.441 0 0 1 2.499-1.88c.978-.474 2.087-.71 3.325-.71 1.467 0 2.736.336 3.806 1.008 1.07.658 1.865 1.506 2.384 2.545l-2.017 1.353c-.306-.657-.696-1.177-1.17-1.559a4.024 4.024 0 0 0-1.513-.803 5.736 5.736 0 0 0-1.582-.229c-.856 0-1.605.176-2.247.528a4.977 4.977 0 0 0-1.628 1.352 6.426 6.426 0 0 0-.986 1.903 7.212 7.212 0 0 0-.321 2.11c0 .78.13 1.536.39 2.27.26.718.619 1.36 1.078 1.926a5.33 5.33 0 0 0 1.673 1.306 4.65 4.65 0 0 0 2.11.482c.519 0 1.062-.092 1.628-.275a4.855 4.855 0 0 0 1.559-.849c.489-.397.871-.917 1.146-1.559l2.132 1.216a5.063 5.063 0 0 1-1.582 2.063 7.49 7.49 0 0 1-2.384 1.284 8.153 8.153 0 0 1-2.591.436c-1.146 0-2.193-.237-3.141-.711a8.146 8.146 0 0 1-2.453-1.926 9.312 9.312 0 0 1-1.605-2.705 8.533 8.533 0 0 1-.574-3.05Z" fill="#9D0000"/><path d="M176.248 63.543V51.116l-5.365 9.561h-1.261l-5.388-9.56v12.426h-2.064V47.264h2.178l5.893 10.57 5.915-10.57h2.156v16.28h-2.064Zm17.701-1.834v1.834h-11.051V47.264h10.845v1.834h-8.782v5.274h7.636v1.72h-7.636v5.617h8.988Zm15.258-12.61h-5.617v14.444h-2.064V49.098h-5.617v-1.834h13.298v1.834Zm9.144 14.559c-1.147 0-2.186-.23-3.119-.688a7.809 7.809 0 0 1-2.43-1.857 8.947 8.947 0 0 1-1.559-2.66 8.735 8.735 0 0 1-.55-3.05c0-1.085.191-2.116.573-3.095a8.765 8.765 0 0 1 1.628-2.636 7.77 7.77 0 0 1 2.453-1.835 6.814 6.814 0 0 1 3.049-.688c1.147 0 2.186.237 3.119.711a7.675 7.675 0 0 1 2.407 1.903 8.948 8.948 0 0 1 1.559 2.66 8.615 8.615 0 0 1-.023 6.122 8.531 8.531 0 0 1-1.628 2.637 7.657 7.657 0 0 1-2.43 1.81c-.932.444-1.949.666-3.049.666Zm-5.572-8.254c0 .825.13 1.628.39 2.407a6.84 6.84 0 0 0 1.146 2.04 5.493 5.493 0 0 0 1.766 1.422c.688.352 1.452.528 2.292.528.872 0 1.651-.184 2.339-.55a5.388 5.388 0 0 0 1.743-1.468 6.38 6.38 0 0 0 1.1-2.064c.26-.764.39-1.536.39-2.315a6.99 6.99 0 0 0-.413-2.385 6.244 6.244 0 0 0-1.146-2.04 5.115 5.115 0 0 0-1.766-1.422c-.672-.352-1.421-.527-2.247-.527-.871 0-1.65.183-2.338.55a5.366 5.366 0 0 0-1.766 1.444c-.474.612-.84 1.3-1.1 2.064-.26.749-.39 1.52-.39 2.316Zm15.661 11.258v-4.953h.734c.428 0 .802-.168 1.123-.505.321-.351.596-.901.826-1.65.229-.765.412-1.781.55-3.05.138-1.268.237-2.835.298-4.7l.115-4.54h10.088V61.71h2.018v4.953h-1.834v-3.119h-12.084v3.119h-1.834Zm3.485-4.953h8.186v-12.61h-6.122l-.069 2.957c-.046 1.926-.145 3.539-.298 4.838-.153 1.3-.367 2.339-.642 3.118-.275.78-.627 1.345-1.055 1.697Z" fill="#393939"/><path d="M112.627 79.944v-8.098h1.001v3.571h4.262v-3.57h1.001v8.097h-1.001v-3.577h-4.262v3.577h-1.001Zm9.906.168c-.454 0-.835-.082-1.142-.247a1.765 1.765 0 0 1-.692-.663 1.813 1.813 0 0 1-.23-.9c0-.319.06-.594.18-.827a1.61 1.61 0 0 1 .517-.585c.221-.157.486-.28.793-.37.289-.08.611-.147.967-.203.36-.06.724-.114 1.091-.163.368-.049.711-.096 1.029-.14l-.36.207c.012-.54-.097-.939-.326-1.198-.225-.258-.615-.388-1.169-.388-.368 0-.69.085-.968.253-.273.165-.466.435-.579.81l-.95-.286c.146-.533.429-.95.849-1.255.42-.303.973-.455 1.659-.455.551 0 1.023.1 1.417.298.397.195.682.491.855.888.086.188.14.392.163.613.022.218.033.447.033.686v3.757h-.888v-1.457l.208.135c-.229.492-.549.863-.962 1.114-.408.251-.907.376-1.495.376Zm.151-.837c.36 0 .671-.064.934-.192a1.683 1.683 0 0 0 .956-1.209c.056-.187.086-.395.09-.624.007-.232.011-.41.011-.534l.349.152-.962.13c-.315.04-.613.085-.894.134-.281.045-.534.1-.759.163-.165.053-.321.12-.467.203-.142.082-.259.189-.349.32a.836.836 0 0 0-.129.478c0 .165.041.323.124.473.086.15.217.271.393.365.18.094.415.14.703.14Zm7.369.669V73.87h.967v5.162h2.092V73.87h.967v5.162h2.087V73.87h.967v6.073h-7.08Zm10.713.168c-.453 0-.834-.082-1.141-.247a1.759 1.759 0 0 1-.692-.663 1.804 1.804 0 0 1-.231-.9c0-.319.06-.594.18-.827.124-.236.297-.43.518-.585a2.62 2.62 0 0 1 .793-.37c.288-.08.611-.147.967-.203.36-.06.723-.114 1.091-.163l1.029-.14-.36.207c.011-.54-.098-.939-.326-1.198-.225-.258-.615-.388-1.17-.388-.367 0-.69.085-.967.253-.274.165-.467.435-.579.81l-.951-.286c.147-.533.43-.95.849-1.255.42-.303.973-.455 1.659-.455.551 0 1.024.1 1.417.298.398.195.683.491.855.888.086.188.141.392.163.613.023.218.034.447.034.686v3.757h-.888v-1.457l.208.135c-.229.492-.55.863-.962 1.114-.409.251-.907.376-1.496.376Zm.152-.837c.36 0 .671-.064.933-.192.267-.13.48-.301.642-.511.161-.214.266-.446.314-.698.057-.187.087-.395.09-.624.008-.232.012-.41.012-.534l.348.152a136.3 136.3 0 0 1-.961.13c-.315.04-.613.085-.894.134-.282.045-.535.1-.76.163a2.48 2.48 0 0 0-.466.203c-.143.082-.259.189-.349.32a.836.836 0 0 0-.129.478c0 .165.041.323.123.473.087.15.218.271.394.365.18.094.414.14.703.14Zm4.785.669V73.87h4.218v.95h-3.217v5.123h-1.001Zm8.204 0V73.87h2.587c.153 0 .318.009.495.028.18.015.343.043.489.084.326.086.594.264.804.534.214.267.32.604.32 1.013 0 .228-.035.427-.106.596a1.252 1.252 0 0 1-.293.438 1.218 1.218 0 0 1-.388.259c.131.022.265.073.399.152.214.116.381.279.501.489.124.21.186.478.186.804 0 .412-.1.754-.299 1.023-.198.267-.472.45-.821.552-.146.04-.307.069-.483.084a8.075 8.075 0 0 1-.512.017h-2.879Zm1.012-.816h1.811c.079 0 .172-.007.281-.022.113-.015.212-.034.298-.056a.67.67 0 0 0 .422-.315.973.973 0 0 0 .135-.5.841.841 0 0 0-.203-.585.864.864 0 0 0-.523-.282 1.097 1.097 0 0 0-.258-.039 5.972 5.972 0 0 0-.242-.006h-1.721v1.806Zm0-2.631h1.507c.105 0 .216-.006.332-.017.116-.015.217-.04.304-.073a.672.672 0 0 0 .376-.315.994.994 0 0 0 .124-.49.956.956 0 0 0-.135-.511.67.67 0 0 0-.399-.31 1.24 1.24 0 0 0-.405-.073 7.333 7.333 0 0 0-.281-.01h-1.423v1.799Zm5.443 3.447V73.87h4.977v6.073h-1.001V74.82h-2.975v5.123h-1.001Zm9.521.168c-.596 0-1.118-.13-1.564-.393a2.755 2.755 0 0 1-1.034-1.108c-.248-.476-.372-1.03-.372-1.664 0-.664.122-1.237.366-1.721a2.676 2.676 0 0 1 1.018-1.125c.438-.266.952-.399 1.541-.399.611 0 1.13.14 1.557.422.431.28.754.682.967 1.203.218.521.312 1.142.282 1.861h-1.013v-.36c-.011-.746-.163-1.302-.455-1.67-.292-.37-.727-.556-1.305-.556-.618 0-1.089.198-1.411.596-.323.397-.484.967-.484 1.71 0 .715.161 1.27.484 1.664.322.393.782.59 1.378.59.401 0 .749-.092 1.046-.275.296-.184.528-.448.697-.793l.961.332a2.722 2.722 0 0 1-1.068 1.248 2.961 2.961 0 0 1-1.591.438Zm-2.244-2.924v-.804h4.487v.804h-4.487Zm9.383 2.924c-.57 0-1.05-.14-1.439-.421a2.671 2.671 0 0 1-.889-1.153 4.293 4.293 0 0 1-.298-1.636c0-.611.099-1.159.298-1.642.203-.484.499-.865.889-1.142.393-.277.875-.416 1.445-.416.562 0 1.046.14 1.451.422.408.277.721.658.939 1.141.217.484.326 1.03.326 1.637s-.109 1.152-.326 1.636a2.752 2.752 0 0 1-.939 1.153c-.405.281-.891.421-1.457.421Zm-2.795 2.531v-8.772h.895v4.47h.112v4.302h-1.007Zm2.671-3.447c.402 0 .733-.101.996-.304.262-.202.459-.476.59-.82.131-.35.197-.74.197-1.17 0-.428-.066-.814-.197-1.159a1.757 1.757 0 0 0-.596-.82c-.266-.203-.605-.304-1.018-.304-.393 0-.719.097-.978.292-.259.191-.452.46-.579.804a3.369 3.369 0 0 0-.191 1.187c0 .442.061.838.185 1.186.128.345.322.617.585.816.262.195.598.292 1.006.292Zm7.048.916c-.596 0-1.117-.13-1.564-.393a2.755 2.755 0 0 1-1.034-1.108c-.248-.476-.371-1.03-.371-1.664 0-.664.121-1.237.365-1.721a2.676 2.676 0 0 1 1.018-1.125c.439-.266.952-.399 1.541-.399.611 0 1.13.14 1.557.422.432.28.754.682.968 1.203.217.521.311 1.142.281 1.861h-1.012v-.36c-.012-.746-.164-1.302-.456-1.67-.292-.37-.727-.556-1.305-.556-.618 0-1.089.198-1.411.596-.322.397-.484.967-.484 1.71 0 .715.162 1.27.484 1.664.322.393.782.59 1.378.59.401 0 .75-.092 1.046-.275.296-.184.528-.448.697-.793l.962.332a2.73 2.73 0 0 1-1.069 1.248 2.961 2.961 0 0 1-1.591.438Zm-2.244-2.924v-.804h4.487v.804h-4.487Zm6.144 4.105v-2.176c.341 0 .585-.11.731-.332.147-.224.265-.594.355-1.107.06-.323.108-.668.146-1.035.037-.367.069-.776.095-1.226.03-.454.058-.969.085-1.546h4.183v5.246h.591v2.176h-.956v-1.35h-4.274v1.35h-.956Zm1.541-2.176h3.054v-4.42h-2.278a35.631 35.631 0 0 1-.197 2.525c-.03.255-.065.484-.107.686-.048.281-.105.52-.168.714-.064.195-.165.36-.304.495Zm11.082-5.246v6.073h-.967v-4.476l-3.183 4.476h-.827V73.87h.968v4.414l3.188-4.414h.821Zm2.475 6.073v-1.035h1.001v1.035h-1.001Zm0-2.025v-6.073h1.001v6.073h-1.001Z" fill="#9D0000"/></g></svg>