<svg width="282" height="126" fill="none" xmlns="http://www.w3.org/2000/svg"><mask id="a" style="mask-type:alpha" maskUnits="userSpaceOnUse" x="0" y="0" width="282" height="126"><path fill="#D9D9D9" d="M0 0h282v126H0z"/></mask><g mask="url(#a)"><mask id="b" style="mask-type:alpha" maskUnits="userSpaceOnUse" x="70" y="47" width="142" height="32"><path fill-rule="evenodd" clip-rule="evenodd" d="M70 47h142v32H70V47Z" fill="#fff"/></mask><g mask="url(#b)" fill-rule="evenodd" clip-rule="evenodd"><path d="M79.566 62.382c3.368 0 5.524-.575 7.096-1.856 1.392-1.15 2.065-2.697 2.065-4.597 0-2.343-1.032-3.934-2.649-4.995-1.752-1.149-3.907-1.458-7.544-1.458H72.74v12.906h6.825ZM70 47h8.712c3.772 0 6.691.443 8.982 1.902 2.2 1.414 3.772 3.712 3.772 6.894 0 2.917-1.347 5.304-3.413 6.762-1.482 1.062-3.233 1.592-5.254 1.901L93.667 79 90.344 79l-10.6-14.32H72.74V79H70V47ZM125.223 57h1.971v22h-1.972l.001-22ZM135.625 74.463c2.394 1.455 5.465 2.226 8.4 2.226 3.749 0 6.144-1.241 6.144-3.767 0-3.167-3.704-3.51-7.181-4.023-3.704-.557-7.905-1.584-7.905-5.864.001-3.981 3.568-6.035 8.627-6.035 2.89 0 5.827.685 7.995 1.798v2.653c-2.349-1.412-5.33-2.14-8.084-2.14-3.479 0-5.872 1.156-5.873 3.553.001 2.953 3.614 3.253 6.956 3.767 4.02.599 8.129 1.626 8.129 6.077 0 4.152-3.568 6.292-8.942 6.292-2.936 0-6.008-.643-8.266-1.84v-2.697ZM161.059 71.3l.001-11.698h-4.282v-2.237h4.282V51.43l2.577-.43v6.366h6.946v2.236h-6.946v11.269c0 3.182.48 5.806 3.888 5.807 1.135-.001 2.228-.302 3.058-.775v2.409c-.83.387-2.097.688-3.408.688-1.572 0-3.364-.43-4.587-1.807-1.093-1.247-1.529-3.14-1.529-5.892ZM188.27 74.258v-4.741c-1.612-.47-3.478-.77-5.175-.77-2.968 0-6.023.94-6.022 4.059-.001 2.734 2.332 3.93 4.877 3.93 2.375 0 4.665-1.025 6.32-2.478Zm-11.58 3.29c-1.356-1.026-2.162-2.563-2.162-4.529 0-2.221 1.018-3.802 2.629-4.87 1.57-1.024 3.69-1.409 5.726-1.41 1.909 0 3.647.3 5.387.77v-2.434c0-2.051-.382-3.375-1.527-4.4-.976-.855-2.417-1.325-4.284-1.325-2.459 0-4.707.812-6.404 2.05v-2.52c1.697-1.068 4.029-1.88 6.659-1.88 2.503 0 4.538.641 5.938 1.838 1.399 1.196 2.12 3.075 2.12 5.639v9.098c-.001 1.794.423 3.12 2.12 3.118.509 0 .976-.127 1.358-.34l-.001 2.178c-.466.213-1.102.341-1.823.341-1.782 0-3.181-.854-3.775-2.478h-.085c-1.569 1.368-4.113 2.606-6.955 2.606-1.782 0-3.563-.427-4.921-1.453ZM202.476 71.301V59.602h-4.282l.001-2.236h4.281V51.43l2.578-.43v6.366H212v2.236h-6.946v11.269c0 3.183.479 5.807 3.888 5.807 1.135 0 2.227-.302 3.058-.775l-.001 2.409c-.83.387-2.096.688-3.407.688-1.573 0-3.364-.43-4.587-1.807-1.093-1.246-1.529-3.14-1.529-5.892Z" fill="#1B2A30"/><path d="M111.783 64.871c.605.882.958 1.958.958 3.13 0 2.996-2.288 5.392-5.268 5.392s-5.269-2.397-5.269-5.393c0-2.995 2.289-5.393 5.269-5.393a5.18 5.18 0 0 1 3.431 1.275l3.873-4.648c-1.98-1.408-4.493-2.233-7.304-2.234-6.781 0-11.834 4.794-11.834 11 0 6.207 5.053 11 11.834 11 6.78 0 11.833-4.793 11.833-10.999 0-2.579-.874-4.91-2.38-6.76l-5.143 3.63ZM126.086 53l5.053-3.863A11.121 11.121 0 0 0 129.027 47l-3.805 4.946c.328.309.616.663.864 1.054Z" fill="#26A4F0"/></g></g></svg>