<svg width="282" height="126" fill="none" xmlns="http://www.w3.org/2000/svg"><mask id="a" style="mask-type:alpha" maskUnits="userSpaceOnUse" x="0" y="0" width="282" height="126"><path fill="#D9D9D9" d="M0 0h282v126H0z"/></mask><g mask="url(#a)"><path d="M87 64.18V73h-5.76V47.8c1.368 0 2.88-.012 4.536-.036 1.656-.024 3-.036 4.032-.036 6.216 0 9.324 2.688 9.324 8.064 0 3.456-1.416 5.88-4.248 7.272L102.228 73h-6.984l-6.12-8.82H87Zm2.52-11.052c-.024 0-.132.012-.324.036-.192 0-.492.012-.9.036H87v5.58h2.088c2.616 0 3.924-.972 3.924-2.916 0-1.824-1.164-2.736-3.492-2.736Zm24.869 14.652 1.476 3.816c-1.632 1.224-3.732 1.836-6.3 1.836-2.64 0-4.776-.78-6.408-2.34-1.584-1.56-2.376-3.624-2.376-6.192 0-2.448.804-4.476 2.412-6.084 1.632-1.632 3.756-2.448 6.372-2.448 2.136 0 3.984.72 5.544 2.16 1.536 1.392 2.304 3.216 2.304 5.472 0 1.08-.108 1.98-.324 2.7h-10.728c.48 1.488 1.74 2.232 3.78 2.232 1.584 0 3-.384 4.248-1.152Zm-5.004-6.912c-1.584 0-2.652.744-3.204 2.232h5.832c0-.624-.24-1.152-.72-1.584-.48-.432-1.116-.648-1.908-.648Zm7.658 14.22c0-1.32.468-2.412 1.404-3.276.936-.864 2.256-1.476 3.96-1.836a1.988 1.988 0 0 1-.216-.9c0-.384.084-.696.252-.936-1.248-.504-2.232-1.248-2.952-2.232a5.706 5.706 0 0 1-1.044-3.312c0-1.704.648-3.168 1.944-4.392 1.344-1.224 3.084-1.836 5.22-1.836 1.584 0 2.964.36 4.14 1.08l5.076-1.008.18 4.32-2.412.468c.12.6.18 1.056.18 1.368 0 1.608-.612 3-1.836 4.176-1.2 1.176-2.784 1.812-4.752 1.908a1.449 1.449 0 0 0-.036.396c0 .192.036.396.108.612 2.352.072 4.272.564 5.76 1.476 1.488.912 2.232 2.22 2.232 3.924 0 1.8-.804 3.144-2.412 4.032-1.632.912-3.696 1.368-6.192 1.368-2.544 0-4.62-.444-6.228-1.332-1.584-.888-2.376-2.244-2.376-4.068Zm5.04 0c0 .72 1.188 1.08 3.564 1.08 2.376 0 3.564-.36 3.564-1.08 0-.744-1.188-1.116-3.564-1.116-2.376 0-3.564.372-3.564 1.116Zm3.528-10.728c.648 0 1.164-.156 1.548-.468.384-.312.576-.744.576-1.296 0-.576-.192-1.032-.576-1.368-.36-.36-.876-.54-1.548-.54-.864-.024-1.488.288-1.872.936-.36.648-.36 1.284 0 1.908.36.624.984.9 1.872.828Zm12.021 6.66c-1.632-1.632-2.448-3.672-2.448-6.12s.816-4.488 2.448-6.12c1.632-1.608 3.816-2.412 6.552-2.412 2.736 0 4.908.804 6.516 2.412 1.656 1.608 2.484 3.648 2.484 6.12s-.828 4.512-2.484 6.12c-1.608 1.608-3.78 2.412-6.516 2.412s-4.92-.804-6.552-2.412Zm3.312-6.12c0 1.008.3 1.848.9 2.52.624.648 1.404.972 2.34.972.96 0 1.74-.312 2.34-.936.6-.648.9-1.5.9-2.556 0-1.008-.312-1.836-.936-2.484-.6-.672-1.368-1.008-2.304-1.008-.936 0-1.716.324-2.34.972-.6.624-.9 1.464-.9 2.52Zm14.204 3.456V47.8h5.4v18.504c0 1.392.3 2.088.9 2.088.336 0 .804-.192 1.404-.576l1.08 4.104c-1.224 1.008-2.808 1.512-4.752 1.512-2.688 0-4.032-1.692-4.032-5.076ZM171.046 73h-5.4V56.8h5.4V73Zm-5.868-21.78c0-.912.312-1.644.936-2.196.624-.576 1.404-.864 2.34-.864.84 0 1.56.288 2.16.864.6.576.9 1.308.9 2.196 0 .984-.3 1.776-.9 2.376-.6.6-1.32.9-2.16.9-.96 0-1.752-.288-2.376-.864-.6-.6-.9-1.404-.9-2.412Zm8.86 15.624V52.3h5.4v4.5h4.5v5.04h-4.5v4.752c0 1.2.348 1.8 1.044 1.8.768 0 1.572-.312 2.412-.936l1.62 4.14c-1.392 1.224-3.204 1.836-5.436 1.836-1.752 0-3.036-.54-3.852-1.62-.792-1.104-1.188-2.76-1.188-4.968ZM191.902 73h-5.4V47.8h5.4v10.116c1.032-.936 2.364-1.404 3.996-1.404 2.088 0 3.708.588 4.86 1.764 1.152 1.152 1.728 2.892 1.728 5.22V73h-5.4v-8.82c0-.792-.24-1.428-.72-1.908s-1.104-.72-1.872-.72c-1.032 0-1.896.348-2.592 1.044V73Z" fill="#00222E"/></g></svg>