<svg width="282" height="126" fill="none" xmlns="http://www.w3.org/2000/svg"><mask id="a" style="mask-type:alpha" maskUnits="userSpaceOnUse" x="0" y="0" width="282" height="126"><path fill="#D9D9D9" d="M0 0h282v126H0z"/></mask><g mask="url(#a)"><path d="M89.031 57.565c-.295-.67-1.274-.682-1.575-.015a94.674 94.674 0 0 1-3.4 6.803.85.85 0 0 0 .042.889c.654.96 2.255 3.407 3.532 6.165.317.686 1.365.684 1.659-.013.748-1.775 1.927-4.34 3.168-6.13a.868.868 0 0 0 .043-.933 70.992 70.992 0 0 1-3.469-6.766Z" fill="url(#b)"/><path d="M102.842 86.065a.817.817 0 0 0-.648 1.173l.793 1.624c.283.58.869.948 1.51.948h18.451c.578 0 1.115-.299 1.423-.79l1.498-2.39c-6.862-2.627-14.028-18.706-14.169-19.022l-.009-.02-14.276-29.106a.807.807 0 0 0-1.452 0l-3.655 7.471a4.398 4.398 0 0 0 .03 3.928c3.288 6.474 10.558 21 13.451 26.898 3.543 7.224-.53 8.83-2.34 9.226l-.607.06Z" fill="url(#c)"/><path d="M81.493 75.184c-.307-.652-1.276-.654-1.593-.008-1.508 3.073-5.06 9.322-9.9 11.454l1.329 3.18h16.749c.715 0 1.351-.456 1.588-1.135l.712-2.045c-1.229-.545-4.808-2.794-8.885-11.446Z" fill="url(#d)"/><path d="M166.897 73.68v.554l.383 11.67c.34.256.655.385.945.385.289 0 .451-.265.485-.796 0-.16-.008-.538-.025-1.133 0-.61-.009-1.326-.026-2.146 0-.82-.009-1.695-.026-2.628-.017-.932-.034-1.808-.051-2.628-.017-.82-.034-1.527-.051-2.121-.017-.611-.025-.997-.025-1.158l.025-.514-.025-.434v-.715a17.075 17.075 0 0 1-.102-1.423 50.419 50.419 0 0 1-.026-1.615l.051-1.664c.017-.562.043-1.093.077-1.591a.698.698 0 0 0-.307-.386.84.84 0 0 0-.511-.169.856.856 0 0 0-.51.121.689.689 0 0 0-.333.458l.052 6.823v1.109ZM156.833 84.336c-.46-.016-.852-.145-1.175-.386-.477.177-.707.426-.69.748.017.305.221.619.613.94.358.096.826.105 1.405.024.596-.08 1.226-.233 1.89-.458a15.748 15.748 0 0 0 2.044-.844 12.42 12.42 0 0 0 1.839-1.157 7.113 7.113 0 0 0 1.379-1.374c.358-.499.545-1.013.562-1.543-.034-.836-.213-1.407-.537-1.712-.323-.322-.732-.498-1.226-.53-.493-.049-1.047-.009-1.66.12a18.14 18.14 0 0 1-1.813.241c-.579.048-1.133 0-1.661-.145-.511-.16-.928-.53-1.251-1.109-.154-.498-.119-1.053.102-1.663.221-.611.596-1.158 1.124-1.64.528-.498 1.192-.884 1.992-1.157s1.703-.314 2.708-.12c.289.032.519-.025.689-.17a.797.797 0 0 0 .281-.578c.017-.193-.008-.338-.076-.434a.48.48 0 0 0-.256-.217 1.08 1.08 0 0 0-.408-.072c-.137-.016-.29-.033-.46-.049a6.819 6.819 0 0 0-2.529.338 7.824 7.824 0 0 0-2.248 1.181 6.726 6.726 0 0 0-1.66 1.88 5.165 5.165 0 0 0-.715 2.34c-.034.868.162 1.51.587 1.928.426.418.979.683 1.661.796.698.113 1.481.113 2.349 0a29.522 29.522 0 0 0 2.606-.458c.477.16.783.378.919.65.137.274.145.58.026.917-.119.322-.349.667-.69 1.037a7.06 7.06 0 0 1-1.175 1.013 10.57 10.57 0 0 1-1.481.892 9.13 9.13 0 0 1-1.584.602 5.32 5.32 0 0 1-1.481.17Z" fill="#150333"/><path fill-rule="evenodd" clip-rule="evenodd" d="M180.026 85.445c-.239-.337-.392-.78-.46-1.326a26.628 26.628 0 0 1-.102-1.712v-1.784c.017-.595-.026-1.1-.128-1.519-.8 1.656-1.558 2.95-2.273 3.882-.699.916-1.346 1.575-1.942 1.977-.579.386-1.107.563-1.583.53a2.277 2.277 0 0 1-1.226-.482 3.179 3.179 0 0 1-.767-1.037 3.275 3.275 0 0 1-.306-1.181c-.119-.61-.128-1.342-.026-2.194.119-.868.315-1.76.588-2.676.289-.916.647-1.808 1.073-2.677.442-.883.936-1.647 1.481-2.29.562-.643 1.158-1.117 1.788-1.422a2.538 2.538 0 0 1 1.967-.17c.34-.031.621-.015.843.049.238.048.434.16.587.338.153.176.264.425.332.747.068.305.119.7.154 1.181-.035 1.56.008 2.886.127 3.979.136 1.093.29 2.057.46 2.893.17.836.332 1.591.485 2.266.171.675.273 1.374.307 2.098 0 .257-.068.458-.204.602a.911.911 0 0 1-.46.242.718.718 0 0 1-.486-.025c-.136-.064-.212-.16-.229-.289Zm-1.482-12.175c-.409-.515-.851-.732-1.328-.651-.477.08-.954.361-1.431.843-.459.466-.902 1.085-1.328 1.857a15.393 15.393 0 0 0-1.098 2.435 16.275 16.275 0 0 0-.69 2.604c-.136.852-.162 1.607-.076 2.266.238.724.527 1.157.868 1.302.341.145.707.097 1.098-.145.392-.257.792-.659 1.201-1.205.409-.546.8-1.133 1.175-1.76.374-.643.707-1.278.996-1.905.307-.643.553-1.181.741-1.615l-.128-4.027Z" fill="#150333"/><path d="M182.58 79.586c.034 1.543.076 3.424.128 5.642a.783.783 0 0 0 .357.41c.187.08.366.112.537.096.187 0 .349-.04.485-.12a.521.521 0 0 0 .255-.41c.017-.53.009-1.15-.025-1.856a49.264 49.264 0 0 1 0-2.243c.034-.787.11-1.575.23-2.362a8.261 8.261 0 0 1 .74-2.29c.239-.5.562-.973.971-1.424.426-.45.911-.835 1.456-1.157a6.534 6.534 0 0 1 1.839-.747 6.873 6.873 0 0 1 2.171-.193.779.779 0 0 0 .358-.29.616.616 0 0 0 .127-.433.622.622 0 0 0-.178-.434c-.103-.129-.264-.217-.486-.266-.664-.112-1.387-.104-2.171.025a6.257 6.257 0 0 0-2.222.843c-.715.418-1.362.997-1.941 1.736-.562.74-.971 1.664-1.226 2.773l-.077-5.545a.617.617 0 0 0-.332-.314.83.83 0 0 0-.485-.048.91.91 0 0 0-.435.169.507.507 0 0 0-.229.362v.602c.017.273.025.7.025 1.278.017.563.034 1.35.051 2.363.017 1.013.043 2.29.077 3.833Z" fill="#150333"/><path d="M199.334 54.098c-1.128-2.922-15.622.348-32.374 7.302-16.752 6.955-29.418 14.961-28.29 17.883" stroke="url(#e)" stroke-width="2.423"/><path d="M170.892 48.156c1.171-.777 2.842-2.457 3.693-5.218h2.518v5.125h3.595v1.538h-3.595v10.078c0 1.23.141 2.084.424 2.563.284.455.709.683 1.275.683.61 0 1.22-.148 1.831-.444.239-.137.49-.296.751-.479l.458.957c-.283.25-.621.501-1.013.752-.916.5-1.994.751-3.236.751-1.504 0-2.669-.421-3.497-1.264-.828-.865-1.242-2.107-1.242-3.724v-9.873h-1.962v-1.445Z" fill="#150333"/><path fill-rule="evenodd" clip-rule="evenodd" d="M154.281 64.257c-1.373 0-2.615-.296-3.726-.888-1.111-.615-2.016-1.8-2.713-3.553l-.752-1.913h-8.694l-2.68 6.218h-1.7l9.642-22.55h1.471l7.322 18.245c.828 2.118 1.961 3.257 3.399 3.416v.855c-.392.113-.915.17-1.569.17Zm-15.199-7.892h7.387l-3.595-8.917-3.792 8.917Z" fill="#150333"/><path d="M162.402 64.462c-2.55 0-4.304-.467-5.262-1.4-.349-.342-.567-.82-.654-1.435-.087-.638-.131-1.515-.131-2.631h1.144c.196 1.184.643 2.141 1.34 2.87.697.706 1.667 1.059 2.909 1.059 2.179 0 3.269-.774 3.269-2.323 0-.592-.24-1.082-.719-1.47-.458-.387-1.199-.82-2.223-1.298l-1.7-.751c-1.394-.638-2.44-1.333-3.137-2.084-.698-.752-1.046-1.663-1.046-2.734 0-1.434.566-2.55 1.699-3.348 1.155-.797 2.659-1.196 4.511-1.196 2.549 0 4.303.467 5.262 1.401.349.342.567.82.654 1.435.087.615.131 1.492.131 2.63h-1.144c-.197-1.183-.643-2.129-1.341-2.835-.697-.729-1.666-1.093-2.908-1.093-.937 0-1.635.216-2.092.649-.458.41-.687.968-.687 1.674 0 .57.186 1.048.556 1.435.392.364.98.729 1.765 1.093l1.961.855c1.612.706 2.767 1.423 3.465 2.152.719.706 1.078 1.64 1.078 2.801 0 1.458-.621 2.586-1.863 3.383-1.22.774-2.833 1.161-4.837 1.161ZM194.214 48.405c.392.296.675.626.849.99.175.342.262.524.262.547l-1.667 1.333a5.267 5.267 0 0 0-.588-.65c-.48-.455-1.035-.683-1.667-.683-1.264 0-2.234.353-2.909 1.06l.065.512c.044.41.065.786.065 1.127v11.48h-4.249V52.505c0-1.162-.152-2.016-.457-2.563-.283-.57-.883-.854-1.798-.854h-.327v-1.025h3.236c.741 0 1.318.103 1.732.308.436.182.774.5 1.014.956 1.176-1.07 2.549-1.605 4.118-1.605.937 0 1.71.227 2.321.683Z" fill="#150333"/><path fill-rule="evenodd" clip-rule="evenodd" d="M199.972 63.37c1.198.728 2.593 1.092 4.184 1.092 1.59 0 2.974-.364 4.151-1.093a7.45 7.45 0 0 0 2.745-3.006c.632-1.276.948-2.7.948-4.271 0-1.572-.316-2.984-.948-4.236a7.172 7.172 0 0 0-2.745-3.007c-1.177-.752-2.561-1.127-4.151-1.127-1.591 0-2.986.375-4.184 1.127-1.177.729-2.081 1.731-2.713 3.007-.632 1.252-.948 2.664-.948 4.236 0 1.572.316 2.995.948 4.27a7.523 7.523 0 0 0 2.713 3.007Zm6.733-2.324c-.588 1.253-1.438 1.879-2.549 1.879-1.112 0-1.961-.626-2.55-1.88-.588-1.252-.882-2.903-.882-4.953 0-2.05.294-3.701.882-4.954.589-1.253 1.438-1.88 2.55-1.88 1.111 0 1.961.627 2.549 1.88.588 1.253.883 2.904.883 4.954s-.295 3.701-.883 4.954Z" fill="#150333"/><path d="M199.334 54.098c1.128 2.922-11.538 10.928-28.29 17.883-16.752 6.955-31.247 10.224-32.374 7.302" stroke="#150333" stroke-width="2.423"/></g><defs><linearGradient id="b" x1="88.292" y1="55.716" x2="88.292" y2="73.429" gradientUnits="userSpaceOnUse"><stop stop-color="#45DEFF"/><stop offset="1" stop-color="#45DEFF" stop-opacity=".27"/></linearGradient><linearGradient id="c" x1="108.836" y1="38.028" x2="117.648" y2="92.137" gradientUnits="userSpaceOnUse"><stop stop-color="#00FDFE"/><stop offset="1" stop-color="#0266EF"/></linearGradient><linearGradient id="d" x1="80.172" y1="74.694" x2="81.451" y2="90.806" gradientUnits="userSpaceOnUse"><stop stop-color="#00FDFE"/><stop offset="1" stop-color="#0266EF"/></linearGradient><linearGradient id="e" x1="169.109" y1="67.845" x2="166.43" y2="60.536" gradientUnits="userSpaceOnUse"><stop stop-color="#0F0226"/><stop offset="1" stop-color="#19043C" stop-opacity="0"/></linearGradient></defs></svg>