<svg width="282" height="126" fill="none" xmlns="http://www.w3.org/2000/svg"><mask id="a" style="mask-type:alpha" maskUnits="userSpaceOnUse" x="0" y="0" width="282" height="126"><path fill="#D9D9D9" d="M0 0h282v126H0z"/></mask><g mask="url(#a)" fill="#0094FF"><path d="m70.696 53.514-2.401-2.758 5.925-4.867a20.653 20.653 0 0 1 5.916 6.466l-9.44 1.16ZM52.373 44.251l.215-.105a19.25 19.25 0 0 1 2.391-.987c.127-.048.254-.086.38-.124l.089-.03c.127-.038.244-.076.37-.114.264-.077.528-.153.791-.22l.225-.058.117-.029c.313-.076.635-.143.947-.2.195-.04.4-.068.595-.106l.118-.02.215-.038c.35-.048.693-.086 1.044-.124l.098-.01.751-.057.254-.01c.371-.019.674-.019.957-.019.322 0 .654.01 1.015.029.078 0 .166.01.244.019l.147.01c.205.01.41.028.614.047.118.01.235.03.352.039l.107.01c.186.018.361.038.537.066.166.02.322.048.488.077.196.029.39.067.586.105l.215.039c.722.153 1.445.335 2.147.565.166.048.323.105.479.163l.107.038c.069.029.147.048.225.077 1.093.402 2.157.88 3.172 1.456L61.93 53.313 51.494 44.74c.176-.096.361-.202.537-.297.117-.077.234-.134.342-.192ZM49.65 45.89l6.188 5.086-2.538 2.558-9.567-1.179a20.652 20.652 0 0 1 5.916-6.466ZM65.844 62.624l-.732-6.274 5.79-.738-4.52 2.462.273 4.991-4.022 4.953v.833l4.88 2.06 1.27-2.319 7.624 8.66a20.712 20.712 0 0 1-3.846 2.855l-.518.297-5.652-6.581.908-2.328-5.379-1.169-5.379 1.17.908 2.327-5.662 6.59c-.273-.162-.556-.325-.83-.498a21.961 21.961 0 0 1-2.518-1.781l-.196-.163c-.273-.23-.537-.47-.8-.719l7.634-8.65 1.269 2.318 4.959-2.098.01-.804-4.208-4.895.361-5.04-4.52-2.461 5.79.738-.733 6.274 3.964 1.303c.02-.02 3.875-1.313 3.875-1.313ZM82.381 66.897 72.365 55.421l8.776-1.121a20.023 20.023 0 0 1 1.513 11.112 23.55 23.55 0 0 1-.273 1.485Z"/><path d="m67.445 63.918 5.545-4.512 8.698 9.867a20.458 20.458 0 0 1-3.807 6.456L67.445 63.918ZM50.889 59.415l5.496 4.474-10.387 11.85a20.082 20.082 0 0 1-2.42-3.43 20.25 20.25 0 0 1-1.387-3.027l8.698-9.867ZM41.176 59.846a20.274 20.274 0 0 1 1.552-5.536l8.776 1.12-10.006 11.477a19.937 19.937 0 0 1-.322-7.06ZM61.93 75.02l2.743-.01 5.457 6.352A21.291 21.291 0 0 1 61.93 83c-2.841 0-5.604-.546-8.21-1.638l5.467-6.351 2.743.01ZM99.68 78.967v-5.45h2.342c.332 0 .645.057.947.181.303.125.576.307.82.537.244.24.43.517.566.852.137.336.206.719.206 1.14 0 .431-.069.805-.206 1.14a2.505 2.505 0 0 1-.566.853 2.516 2.516 0 0 1-1.767.718h-2.343v.03Zm.634-.584h1.689c.4 0 .742-.096 1.035-.297a1.97 1.97 0 0 0 .673-.786 2.43 2.43 0 0 0 .234-1.063c0-.393-.078-.747-.234-1.073a1.847 1.847 0 0 0-1.708-1.073h-1.689v4.292ZM107.216 79.034c-.41 0-.762-.096-1.064-.287a2.088 2.088 0 0 1-.713-.767 2.322 2.322 0 0 1-.254-1.073c0-.392.088-.756.254-1.072.166-.316.4-.575.713-.767a1.962 1.962 0 0 1 1.064-.287c.341 0 .644.067.888.201a1.7 1.7 0 0 1 .605.537v-.671h.625v4.11h-.625v-.662a1.77 1.77 0 0 1-.605.527c-.244.144-.547.211-.888.211Zm.078-.565c.312 0 .576-.067.791-.21.214-.144.38-.336.488-.576.107-.239.166-.498.166-.776 0-.287-.059-.545-.166-.785a1.328 1.328 0 0 0-.488-.565c-.215-.144-.479-.21-.791-.21-.303 0-.576.066-.801.21-.224.144-.39.335-.507.565-.117.24-.176.498-.176.785 0 .278.059.537.176.776.117.24.283.431.507.575.225.144.498.21.801.21ZM110.886 78.967v-3.573h-.859v-.546h.859v-1.475h.625v1.475h.966v.546h-.966v3.573h-.625ZM114.85 79.034c-.41 0-.762-.096-1.064-.287a2.088 2.088 0 0 1-.713-.767 2.322 2.322 0 0 1-.254-1.073c0-.392.088-.756.254-1.072a1.96 1.96 0 0 1 1.777-1.054c.341 0 .644.067.888.201a1.7 1.7 0 0 1 .605.537v-.671h.625v4.11h-.625v-.662a1.77 1.77 0 0 1-.605.527c-.244.144-.547.211-.888.211Zm.078-.565c.312 0 .576-.067.791-.21.214-.144.38-.336.488-.576.107-.239.166-.498.166-.776 0-.287-.059-.545-.166-.785a1.328 1.328 0 0 0-.488-.565c-.215-.144-.479-.21-.791-.21-.303 0-.576.066-.801.21-.224.144-.39.335-.507.565-.117.24-.176.498-.176.785 0 .278.059.537.176.776.117.24.283.431.507.575.235.144.498.21.801.21ZM121.976 79.034c-.547 0-.996-.077-1.337-.22-.342-.144-.596-.345-.772-.604a1.706 1.706 0 0 1-.293-.871h.655c.019.258.107.479.263.641.166.163.371.278.644.355.274.077.557.115.879.115.469 0 .84-.077 1.113-.24a.787.787 0 0 0 .41-.718.602.602 0 0 0-.205-.47 1.704 1.704 0 0 0-.547-.287 9.827 9.827 0 0 0-.742-.21c-.263-.068-.537-.135-.81-.202a3.97 3.97 0 0 1-.742-.268 1.514 1.514 0 0 1-.547-.422c-.136-.172-.205-.392-.205-.66 0-.441.176-.805.528-1.083.351-.278.868-.421 1.562-.421.488 0 .898.076 1.22.22.322.144.556.335.712.575.157.24.244.488.264.766h-.644c-.03-.278-.176-.508-.42-.7-.244-.19-.625-.287-1.132-.287-.313 0-.567.029-.762.086a1.147 1.147 0 0 0-.449.23.633.633 0 0 0-.205.297.845.845 0 0 0-.059.297c0 .182.069.326.205.44.137.116.323.202.547.279.225.076.478.143.752.2.273.058.546.125.82.202.273.077.517.163.742.278.224.115.41.258.546.431.137.172.205.402.205.67 0 .508-.195.891-.585 1.17-.391.277-.928.411-1.611.411ZM125.441 80.596l.762-1.686-1.708-4.052h.693l1.347 3.371 1.376-3.371h.693l-2.479 5.738h-.684ZM130.703 79.034c-.39 0-.712-.067-.976-.191-.264-.125-.469-.288-.605-.499a1.39 1.39 0 0 1-.235-.67h.655c.019.134.068.268.146.402a.93.93 0 0 0 .371.316c.166.087.381.115.654.115.088 0 .185-.01.312-.029.127-.019.244-.047.362-.086a.617.617 0 0 0 .292-.2.487.487 0 0 0 .118-.336.449.449 0 0 0-.205-.393 1.607 1.607 0 0 0-.518-.22c-.215-.048-.439-.106-.673-.153a4.94 4.94 0 0 1-.674-.192 1.292 1.292 0 0 1-.517-.335c-.137-.144-.205-.345-.205-.594 0-.374.136-.661.41-.872.273-.201.683-.307 1.23-.307.371 0 .673.058.898.173.224.115.41.259.527.43.117.173.195.365.215.566h-.635a.662.662 0 0 0-.263-.45c-.157-.125-.41-.192-.762-.192-.664 0-.996.202-.996.594 0 .163.069.288.205.383.137.087.303.154.518.211.215.048.439.106.673.144.235.048.459.115.674.192.215.086.381.2.517.344.137.154.205.355.205.613 0 .403-.156.71-.468.92-.313.21-.732.316-1.25.316ZM133.671 78.967v-3.573h-.859v-.546h.859v-1.475h.625v1.475h.966v.546h-.966v3.573h-.625ZM137.722 79.034c-.42 0-.8-.096-1.113-.287a2.017 2.017 0 0 1-.742-.767 2.222 2.222 0 0 1-.263-1.073c0-.392.088-.756.254-1.072.165-.316.41-.575.722-.767.312-.191.683-.287 1.103-.287.43 0 .8.096 1.113.287.312.192.547.44.713.767.165.325.253.68.253 1.073v.249h-3.514c.039.239.117.46.244.66.127.202.293.365.508.48.214.115.459.172.742.172.292 0 .546-.067.742-.192a1.28 1.28 0 0 0 .468-.498h.683c-.146.364-.371.67-.693.9-.312.24-.722.355-1.22.355Zm-1.464-2.452h2.85a1.537 1.537 0 0 0-.449-.881c-.244-.24-.566-.355-.976-.355-.41 0-.722.115-.966.355-.244.239-.391.526-.459.88ZM140.534 78.967v-4.11h.624v.623a1.68 1.68 0 0 1 .449-.47c.205-.153.479-.22.82-.22.283 0 .537.077.772.22.234.144.419.355.556.614.059-.096.146-.201.264-.335.117-.135.273-.25.478-.345a1.58 1.58 0 0 1 .703-.144c.273 0 .517.067.751.201.235.134.43.335.576.584.147.26.225.556.225.901v2.481h-.625v-2.471c0-.345-.097-.623-.293-.834a.977.977 0 0 0-.742-.316c-.302 0-.576.105-.8.307-.225.2-.332.488-.332.852v2.462h-.625v-2.471c0-.345-.097-.623-.302-.834a.978.978 0 0 0-.742-.316c-.303 0-.576.105-.801.307-.224.2-.332.488-.332.852v2.462h-.624ZM149.339 79.034c-.391 0-.713-.067-.976-.191-.264-.125-.469-.288-.606-.499a1.4 1.4 0 0 1-.234-.67h.654c.02.134.069.268.147.402a.93.93 0 0 0 .371.316c.166.087.38.115.654.115.088 0 .185-.01.312-.029a2.19 2.19 0 0 0 .361-.086.62.62 0 0 0 .293-.2.486.486 0 0 0 .117-.336.446.446 0 0 0-.205-.393 1.591 1.591 0 0 0-.517-.22c-.215-.048-.439-.106-.674-.153a4.925 4.925 0 0 1-.673-.192 1.303 1.303 0 0 1-.518-.335c-.136-.144-.205-.345-.205-.594 0-.374.137-.661.41-.872.274-.201.684-.307 1.23-.307.371 0 .674.058.898.173.225.115.41.259.528.43.117.173.195.365.214.566h-.634a.667.667 0 0 0-.264-.45c-.156-.125-.41-.192-.761-.192-.664 0-.996.202-.996.594 0 .163.068.288.205.383.137.087.303.154.517.211.215.048.44.106.674.144.234.048.459.115.674.192.214.086.38.2.517.344.137.154.205.355.205.613 0 .403-.156.71-.469.92-.312.21-.732.316-1.249.316ZM99.66 66.677h3.3V50.315l-3.3 3.247v13.115ZM193.463 66.677h3.31V50.18h-3.31v16.496ZM131.055 50.152V53.4h6.843v13.277h3.299V53.4h6.619v-3.248h-16.761ZM152.629 50.152v.077h-.02v14.81h.02v1.552h16.761v-3.248h-13.471v-3.334h13.471v-3.237h-13.471V53.4h13.471v-3.248h-16.761ZM179.172 50.229h-3.3v14.81h.02v1.551h13.5v-3.247h-10.22V50.229ZM122.962 61.169 112.77 51.166l-1.015-.986h-2.187v16.496h3.3V55.852l10.162 9.972.957.853h2.274V50.18h-3.299v10.988ZM238.769 50.18h-.078V61.17l-10.192-10.002-1.015-.986h-2.187v16.496h3.31V55.852l10.084 9.905.048.038.03.03.947.852H242V53.352l-3.231-3.171ZM211.035 49.76c-4.979 0-9.02 3.879-9.02 8.669 0 4.79 4.031 8.67 9.02 8.67 4.979 0 9.02-3.88 9.02-8.67s-4.041-8.67-9.02-8.67Zm0 14.158c-3.153 0-5.711-2.462-5.711-5.49 0-3.036 2.558-5.488 5.711-5.488 3.153 0 5.711 2.462 5.711 5.489 0 3.027-2.558 5.489-5.711 5.489Z"/></g></svg>